<svg width="523" height="386" viewBox="0 0 523 386" fill="none" xmlns="http://www.w3.org/2000/svg">
<path opacity="0.6" d="M144.875 96.4932C210.772 88.2561 269.461 91.345 268.432 108.849C267.402 126.353 254.017 132.53 262.254 138.708C270.491 144.886 356.981 167.538 336.388 189.16C315.795 210.783 281.817 217.991 286.965 224.168C292.113 230.346 349.773 267.413 317.854 283.887C285.935 300.362 262.254 299.332 252.987 305.51C243.72 311.688 181.942 308.599 162.379 306.539C142.816 304.48 99.5707 231.376 106.778 202.546C113.986 173.716 144.875 96.4932 144.875 96.4932Z" fill="white"/>
<path d="M285.704 189.754C286.083 207.395 272.089 222.002 254.448 222.38C236.808 222.759 222.2 208.765 221.822 191.125C221.444 173.484 235.437 158.877 253.078 158.498C270.719 158.12 285.326 172.114 285.704 189.754Z" fill="#E0F2F6"/>
<path d="M276.64 188.743C276.911 201.391 266.878 211.864 254.23 212.135C241.582 212.407 231.108 202.374 230.837 189.725C230.566 177.077 240.599 166.604 253.247 166.333C265.895 166.062 276.368 176.095 276.64 188.743Z" fill="white"/>
<path d="M253.256 166.325C240.608 166.596 230.564 177.081 230.835 189.729C230.908 193.131 231.73 196.329 233.122 199.203C232.924 198.069 232.809 196.887 232.784 195.702C232.512 183.053 242.531 172.596 255.179 172.324C264.427 172.126 272.51 177.432 276.295 185.245C274.369 174.301 264.71 166.079 253.256 166.325Z" fill="white"/>
<g opacity="0.6">
<path d="M395.076 61.6221C390.812 62.9082 387.004 65.9128 385.255 70.0478C383.759 72.595 383.274 75.7488 383.56 78.6931C384.008 83.682 386.633 88.6067 390.988 91.1594C393.25 92.5889 395.76 93.6969 398.481 93.8253C403.74 94.2016 409.226 92.0838 412.636 88.0242C414.506 85.4509 416.14 82.5444 416.357 79.2809C416.897 74.3884 415.168 69.269 411.771 65.7313C409.898 63.9306 407.555 62.5245 405.148 61.5878C401.884 60.6373 398.33 60.555 395.076 61.6221Z" fill="#E0F2F6"/>
<path d="M410.869 74.077C412.352 80.1726 408.612 86.3156 402.516 87.798C396.421 89.2804 390.278 85.5407 388.795 79.4451C387.313 73.3496 391.053 67.2065 397.148 65.7241C403.244 64.2417 409.387 67.9815 410.869 74.077Z" fill="white"/>
<path d="M397.154 65.7208C391.058 67.2032 387.314 73.3531 388.797 79.4486C389.195 81.088 389.935 82.5489 390.916 83.7917C390.699 83.2641 390.517 82.704 390.378 82.1326C388.896 76.0371 392.63 69.903 398.725 68.4206C403.182 67.3367 407.663 69.0425 410.331 72.4218C408.229 67.3282 402.674 64.3785 397.154 65.7208Z" fill="white"/>
</g>
<g opacity="0.6">
<path d="M398.697 306.204C394.264 305.78 389.602 307.12 386.418 310.285C384.069 312.076 382.426 314.812 381.576 317.645C380.102 322.432 380.668 327.984 383.732 331.995C385.284 334.175 387.188 336.151 389.658 337.3C394.383 339.639 400.262 339.755 404.956 337.289C407.66 335.615 410.273 333.544 411.709 330.605C414.062 326.281 414.4 320.888 412.594 316.328C411.542 313.952 409.906 311.764 408.033 309.986C405.372 307.87 402.114 306.449 398.697 306.204Z" fill="#E0F2F6"/>
<path d="M408.601 323.711C407.666 329.914 401.879 334.185 395.676 333.249C389.473 332.313 385.202 326.526 386.138 320.323C387.074 314.12 392.861 309.85 399.064 310.786C405.267 311.721 409.537 317.508 408.601 323.711Z" fill="white"/>
<path d="M399.069 310.783C392.866 309.847 387.073 314.122 386.137 320.325C385.886 321.993 386.017 323.625 386.455 325.147C386.454 324.577 386.497 323.989 386.585 323.408C387.52 317.205 393.299 312.941 399.502 313.877C404.037 314.561 407.539 317.836 408.729 321.973C408.712 316.463 404.686 311.63 399.069 310.783Z" fill="white"/>
</g>
<path d="M314.038 245.526C311.773 257.641 297.761 266.024 282.742 264.252C267.722 262.48 257.383 251.223 259.648 239.109C261.914 226.994 275.925 218.61 290.945 220.383C305.964 222.155 316.303 233.412 314.038 245.526Z" fill="#E0F2F6"/>
<path d="M306.497 243.789C304.873 252.475 294.827 258.486 284.058 257.215C273.29 255.945 265.876 247.874 267.501 239.188C269.125 230.502 279.171 224.491 289.94 225.762C300.708 227.032 308.121 235.103 306.497 243.789Z" fill="white"/>
<path d="M289.949 225.759C279.181 224.488 269.123 230.506 267.499 239.192C267.062 241.528 267.29 243.811 268.05 245.937C268.048 245.139 268.124 244.317 268.276 243.503C269.9 234.817 279.932 228.815 290.7 230.085C298.574 231.014 304.653 235.576 306.718 241.358C306.689 233.648 299.701 226.909 289.949 225.759Z" fill="white"/>
<path d="M388.97 129.569C391.733 139.743 383.951 150.082 371.589 152.661C359.227 155.24 346.966 149.084 344.204 138.91C341.441 128.736 349.222 118.397 361.584 115.818C373.946 113.239 386.207 119.395 388.97 129.569Z" fill="#E0F2F6"/>
<path d="M382.447 130.195C384.428 137.489 378.849 144.902 369.985 146.751C361.122 148.6 352.331 144.186 350.35 136.891C348.369 129.597 353.949 122.184 362.812 120.335C371.675 118.486 380.466 122.9 382.447 130.195Z" fill="white"/>
<path d="M362.818 120.33C353.955 122.179 348.369 129.6 350.35 136.894C350.883 138.856 351.914 140.6 353.301 142.079C353.001 141.449 352.752 140.779 352.567 140.095C350.586 132.801 356.157 125.399 365.02 123.55C371.501 122.198 377.941 124.191 381.71 128.214C378.806 122.128 370.844 118.655 362.818 120.33Z" fill="white"/>
<path d="M239.528 203.688C268.903 97.8898 159.302 73.4034 116.518 96.3338C73.7338 119.264 72.4473 219.587 138.499 245.503C204.55 271.419 239.528 203.688 239.528 203.688Z" fill="#1D5A6A"/>
<path d="M237.474 209.436C239.956 133.71 211.128 113.311 175.033 106.788C138.938 100.264 131.295 102.296 121.1 117.913C110.904 133.529 76.06 179.393 105.668 219.105C135.276 258.818 186.778 241.597 205.705 229.503C224.632 217.408 237.474 209.436 237.474 209.436Z" fill="#9CD7E3"/>
<path d="M250.622 244.39C260.683 216.251 259.295 184.759 239.616 162.314C234.289 154.036 218.878 138.938 213.232 145.844C202.757 136.958 197.504 127.529 186.232 122.367C178.344 115.094 163.216 105.989 152.695 101.745C109.415 84.2847 63.2675 107.498 55.1223 138.876C54.1592 142.586 48.5505 151.691 47.8313 155.358C41.662 163.065 36.9108 169.081 33.3889 178.93C15.0191 230.306 43.9118 289.635 97.946 311.433C129.266 324.069 162.149 321.323 187.84 306.778C215.388 303.97 236.624 285.231 250.622 244.39Z" fill="#1D5A6A"/>
<path d="M236.84 239.139C236.84 239.139 248.714 205.931 237.385 186.015C226.06 166.101 216.229 159.221 216.229 159.221C224.932 168.436 221.914 212.784 217.085 201.949C213.538 193.99 217.291 171.337 207.766 150.687C215.173 120.286 134.876 82.8494 81.48 123.425C58.9839 141.58 63.6573 190.197 66.9018 211.215C66.4452 212.598 65.7617 214.687 65.7617 214.687C56.3584 210.894 51.4012 175.294 51.4012 175.294C51.4012 175.294 17.9109 219.506 73.902 275.709C129.893 331.911 177.44 299.945 187.715 271.208C196.179 247.538 197.844 238.594 198.171 236.135C203.55 250.384 199.153 274.625 192.736 293.694C202.609 294.023 227.035 264.399 230.461 254.82C233.886 245.241 216.895 234.737 216.895 234.737L236.84 239.139Z" fill="url(#paint0_radial_796_2025)"/>
<path d="M176.968 114.314C149.22 103.752 109.409 102.203 81.479 123.426C58.9829 141.581 63.6564 190.198 66.9009 211.216C66.4442 212.599 65.7607 214.689 65.7607 214.689C62.9304 213.547 60.509 209.504 58.4982 204.438C62.9939 226.927 71.2672 244.559 74.9769 249.098C80.3235 255.639 67.8725 234.549 81.4384 181.563C94.6319 130.031 126.563 105.406 176.968 114.314Z" fill="white"/>
<path d="M96.7149 294.281C93.2845 291.389 89.8171 288.47 85.2851 284.682C63.3321 266.338 38.3856 234.218 56.7314 199.409C53.2235 188.283 51.3996 175.295 51.3996 175.295C51.3996 175.295 17.9093 219.508 73.9004 275.71C81.6967 283.535 89.324 289.627 96.7149 294.281Z" fill="#9CD7E3"/>
<path d="M236.839 239.139C236.839 239.139 248.708 205.915 237.38 186C226.055 166.086 216.226 159.211 216.226 159.211C222.358 165.703 222.653 189.623 220.615 199.409C223.418 192.795 225.951 185.801 225.951 185.801C225.951 185.801 229.666 201.165 227.759 219.395C225.852 237.625 206.413 225.412 206.171 228.238C205.93 231.063 224.233 244.275 216.953 260.337C209.673 276.399 202.922 280.261 202.048 276.255C201.635 274.36 199.057 277.628 196.844 279.526C195.657 284.401 194.235 289.19 192.722 293.688C202.595 294.018 227.034 264.399 230.459 254.82C233.884 245.241 216.894 234.737 216.894 234.737L236.839 239.139ZM218.783 203.593C218.255 203.787 217.688 203.304 217.084 201.949C216.83 201.378 216.592 200.665 216.341 199.891C216.944 204.158 217.675 205.81 218.783 203.593ZM187.714 271.207C193.285 255.626 195.879 246.506 197.117 241.337C192.177 218.701 179.31 204.221 173.353 199.652C167.322 195.027 153.195 191.52 153.195 191.52C153.195 191.52 190.685 226.37 164.788 277.304C141.58 322.947 82.3502 281.299 60.9893 261.037C64.6398 265.822 68.921 270.71 73.9003 275.708C129.891 331.91 177.438 299.945 187.714 271.207Z" fill="white"/>
<path d="M191.692 171.967C149.134 121.184 112.087 160.313 97.5528 188.063C83.019 215.814 81.797 232.128 96.762 244.011C111.727 255.894 136.095 271.571 142.852 267.72C149.609 263.869 158.38 260.831 155.022 259.476C151.664 258.122 121.6 256.223 109.241 222.008C96.8811 187.792 125.305 164.184 147.335 158.457C169.365 152.73 188.293 177.173 192.108 177.25C195.923 177.328 191.692 171.967 191.692 171.967Z" fill="white"/>
<path opacity="0.646018" d="M86.3292 213.213C74.3525 251.268 103.885 275.066 123.357 282.922C142.83 290.778 157.306 285.25 153.829 282.814C150.353 280.378 139.913 274.617 132.333 268.458C124.753 262.3 99.2296 257.687 93.6248 239.925C88.0201 222.163 86.3292 213.213 86.3292 213.213Z" fill="#9CD7E3"/>
<path d="M102.765 179.935C49.2892 226.32 110.519 270.02 132.28 271.492C154.042 272.964 157.722 258.373 152.551 259.94C147.379 261.507 118.861 263.886 101.733 238.708C84.6045 213.53 98.6282 195.804 104.753 185.121C110.879 174.439 102.765 179.935 102.765 179.935Z" fill="#1D5A6A"/>
<path d="M192.426 173.342C175.756 148.532 152.284 145.78 143.061 148.777C133.838 151.773 132.774 144.11 141.988 142.66C151.201 141.21 167.235 140.444 181.293 151.283C195.352 162.121 197.508 172.809 197.157 178.351C196.806 183.893 192.426 173.342 192.426 173.342Z" fill="#9CD7E3"/>
<defs>
<radialGradient id="paint0_radial_796_2025" cx="0" cy="0" r="1" gradientTransform="matrix(-197.833 -79.8108 84.4802 -236.289 144.57 207.029)" gradientUnits="userSpaceOnUse">
<stop stop-color="#EAF6F9"/>
<stop offset="1" stop-color="#CAE9F0"/>
</radialGradient>
</defs>
</svg>
