<svg width="513" height="387" viewBox="0 0 513 387" fill="none" xmlns="http://www.w3.org/2000/svg">
<g opacity="0.3">
<path d="M479.401 182.127C477.395 182.291 475.396 183.147 474.129 184.738C473.134 185.817 472.134 186.964 471.862 188.454C471.259 191.074 471.569 194.006 473.013 196.28C474.176 197.326 475.196 198.577 476.582 199.318C479.321 200.577 482.675 200.396 485.299 198.938C486.588 197.868 487.881 196.681 488.773 195.249C490.177 192.082 489.848 188.143 487.792 185.329C486.928 184.73 486.079 183.845 485.17 183.167C484.213 182.463 482.903 182.339 481.733 182.143C480.955 182.085 480.179 182.052 479.401 182.127Z" fill="#E0F2F6"/>
<path d="M486.178 190.678C486.244 193.765 483.795 196.321 480.708 196.387C477.621 196.453 475.065 194.005 474.999 190.918C474.933 187.831 477.381 185.274 480.468 185.208C483.555 185.142 486.112 187.591 486.178 190.678Z" fill="white"/>
<path d="M480.471 185.206C477.384 185.272 474.933 187.831 474.999 190.918C475.017 191.749 475.217 192.529 475.557 193.231C475.509 192.954 475.481 192.666 475.474 192.376C475.408 189.289 477.853 186.737 480.94 186.67C483.198 186.622 485.171 187.917 486.094 189.824C485.624 187.153 483.267 185.146 480.471 185.206Z" fill="white"/>
</g>
<path d="M340.247 59.8094C334.812 61.4487 329.958 65.2787 327.728 70.5495C325.821 73.7964 325.203 77.8165 325.568 81.5696C326.139 87.9288 329.485 94.2063 335.036 97.4601C337.919 99.2823 341.119 100.695 344.588 100.858C351.29 101.338 358.283 98.6384 362.631 93.4637C365.014 90.1836 367.097 86.4787 367.373 82.3188C368.062 76.0825 365.858 69.5568 361.527 65.0473C359.14 62.752 356.154 60.9596 353.086 59.7657C348.925 58.5541 344.395 58.4492 340.247 59.8094Z" fill="#E0F2F6"/>
<path d="M360.379 75.6868C362.268 83.4568 357.502 91.2872 349.732 93.1768C341.962 95.0664 334.131 90.2995 332.242 82.5295C330.352 74.7597 335.119 66.9291 342.889 65.0396C350.659 63.15 358.489 67.917 360.379 75.6868Z" fill="white"/>
<path d="M342.896 65.034C335.126 66.9236 330.354 74.7627 332.243 82.5326C332.752 84.6222 333.694 86.4845 334.945 88.0687C334.668 87.396 334.436 86.6822 334.259 85.9538C332.37 78.1839 337.129 70.3649 344.899 68.4753C350.58 67.0937 356.292 69.268 359.692 73.5756C357.014 67.0828 349.932 63.3229 342.896 65.034Z" fill="white"/>
<path d="M336.008 300.17C330.357 299.63 324.414 301.338 320.355 305.372C317.361 307.655 315.267 311.142 314.184 314.754C312.305 320.856 313.026 327.933 316.932 333.046C318.911 335.824 321.337 338.343 324.486 339.808C330.508 342.789 338.003 342.938 343.986 339.794C347.433 337.66 350.764 335.02 352.594 331.274C355.593 325.763 356.023 318.888 353.722 313.075C352.381 310.047 350.296 307.257 347.908 304.991C344.516 302.294 340.363 300.482 336.008 300.17Z" fill="#E0F2F6"/>
<path d="M348.632 322.487C347.44 330.394 340.063 335.837 332.156 334.644C324.249 333.452 318.806 326.075 319.999 318.168C321.191 310.261 328.568 304.818 336.475 306.011C344.382 307.203 349.825 314.58 348.632 322.487Z" fill="white"/>
<path d="M336.482 306.008C328.575 304.815 321.19 310.265 319.998 318.171C319.677 320.298 319.844 322.378 320.403 324.318C320.401 323.591 320.457 322.842 320.568 322.101C321.761 314.194 329.127 308.759 337.034 309.952C342.815 310.824 347.279 314.998 348.795 320.273C348.773 313.249 343.642 307.088 336.482 306.008Z" fill="white"/>
<path opacity="0.6" d="M137.99 96.5824C203.886 88.3451 252.131 91.8031 241.152 105.474C206.631 148.46 428.167 135.569 419.633 161.118C409.027 192.865 284.198 164.538 263.606 186.161C243.013 207.783 376.473 213.96 376.086 234.575C375.685 255.992 278.021 251.028 246.102 267.502C214.183 283.977 365.54 283.447 334.651 304.039C325.384 310.217 175.785 320.337 137.292 313.181C117.952 309.586 92.6855 231.465 99.893 202.635C107.1 173.805 137.99 96.5824 137.99 96.5824Z" fill="white"/>
<path d="M265.087 240.876C262.611 254.114 247.299 263.276 230.887 261.339C214.474 259.402 203.175 247.101 205.651 233.863C208.126 220.624 223.438 211.463 239.851 213.399C256.264 215.336 267.562 227.637 265.087 240.876Z" fill="#CCEAF0"/>
<path d="M256.844 238.978C255.069 248.47 244.091 255.038 232.323 253.65C220.556 252.261 212.455 243.441 214.23 233.95C216.005 224.458 226.983 217.889 238.751 219.278C250.518 220.666 258.619 229.486 256.844 238.978Z" fill="white"/>
<path d="M238.763 219.273C226.995 217.885 216.005 224.461 214.23 233.952C213.753 236.505 214.002 239 214.832 241.324C214.83 240.452 214.913 239.553 215.079 238.663C216.854 229.172 227.816 222.613 239.584 224.001C248.188 225.016 254.831 230.001 257.088 236.32C257.056 227.894 249.419 220.531 238.763 219.273Z" fill="white"/>
<path d="M325.684 135.484C328.952 147.519 319.747 159.749 305.123 162.8C290.5 165.851 275.996 158.568 272.728 146.533C269.46 134.498 278.665 122.269 293.288 119.218C307.912 116.167 322.415 123.449 325.684 135.484Z" fill="#E0F2F6"/>
<path d="M317.967 136.225C320.31 144.854 313.71 153.623 303.225 155.81C292.741 157.998 282.342 152.776 279.999 144.147C277.655 135.519 284.255 126.75 294.74 124.562C305.225 122.375 315.624 127.597 317.967 136.225Z" fill="white"/>
<path d="M294.747 124.555C284.263 126.742 277.656 135.52 279.999 144.149C280.629 146.47 281.848 148.533 283.489 150.283C283.134 149.537 282.84 148.745 282.621 147.936C280.277 139.307 286.868 130.551 297.352 128.364C305.018 126.764 312.636 129.123 317.095 133.881C313.66 126.682 304.242 122.574 294.747 124.555Z" fill="white"/>
<path d="M183.502 285.305C289.813 257.845 256.218 150.684 214.968 125.097C173.717 99.5105 86.1922 148.558 96.7739 218.718C107.356 288.879 183.502 285.305 183.502 285.305Z" fill="#1D5A6A"/>
<path d="M177.497 286.399C244.319 250.687 247.571 215.521 235.173 181C222.775 146.479 217.194 140.876 198.572 139.855C179.949 138.834 122.809 131.59 103.22 177.087C83.6323 222.585 124.297 258.576 144.235 268.92C164.172 279.265 177.497 286.399 177.497 286.399Z" fill="#9CD7E3"/>
<path d="M153.799 315.263C183.198 309.907 209.777 292.959 219.376 264.693C223.881 255.941 229.251 235.046 220.448 233.609C222.905 220.095 228.444 210.83 227.279 198.488C229.633 188.021 229.954 170.367 228.37 159.133C221.851 112.921 178.673 84.5635 147.427 93.1983C143.732 94.2194 133.043 93.9143 129.507 95.1254C119.749 93.6356 112.163 92.529 101.872 94.4039C48.1947 104.183 11.2607 158.869 19.3995 216.563C24.1171 250.005 42.9365 277.11 68.3785 292.087C84.5847 314.54 111.431 323.56 153.799 315.263Z" fill="#1D5A6A"/>
<path d="M151.455 300.702C151.455 300.702 186.151 294.381 197.734 274.612C209.318 254.848 210.361 242.893 210.361 242.893C206.732 255.038 166.816 274.599 173.785 264.999C178.904 257.948 200.399 249.871 213.52 231.297C243.551 222.511 235.824 134.254 173.986 108.299C147.016 97.8947 107.249 126.25 90.6689 139.569C89.2433 139.865 87.0917 140.318 87.0917 140.318C85.6754 130.278 114.027 108.185 114.027 108.185C114.027 108.185 58.9928 101.288 38.3159 177.878C17.639 254.469 69.0952 279.663 99.1205 274.193C123.851 269.688 132.429 266.658 134.722 265.712C125.071 277.495 101.88 285.808 82.1573 289.784C86.8087 298.499 124.677 304.841 134.685 303.018C144.694 301.195 145.295 281.229 145.295 281.229L151.455 300.702Z" fill="url(#paint0_radial_796_2211)"/>
<path d="M229.621 186.439C224.894 157.127 206.33 121.875 173.985 108.299C147.014 97.8942 107.248 126.25 90.6677 139.569C89.2421 139.865 87.0905 140.318 87.0905 140.318C86.6642 137.296 88.9542 133.177 92.3369 128.903C75.1084 144.041 63.9754 160.021 61.8996 165.503C58.9079 173.404 70.947 152.077 123.617 137.332C174.842 122.992 212.133 138.332 229.621 186.439Z" fill="white"/>
<path d="M33.6392 206.92C34.4279 202.503 35.223 198.041 36.2367 192.222C41.1472 164.038 56.4906 126.374 95.8088 124.857C103.69 116.257 114.026 108.183 114.026 108.183C114.026 108.183 58.9919 101.286 38.315 177.876C35.436 188.541 33.9739 198.192 33.6392 206.92Z" fill="#9CD7E3"/>
<path d="M151.455 300.702C151.455 300.702 186.162 294.368 197.746 274.6C209.329 254.836 210.368 242.886 210.368 242.886C207.812 251.442 187.245 263.658 177.75 266.786C184.88 265.907 192.203 264.604 192.203 264.604C192.203 264.604 180.755 275.503 164.014 282.966C147.273 290.43 148.13 267.488 145.562 268.692C142.995 269.895 140.705 292.353 123.154 294.079C105.604 295.805 98.8838 291.889 101.916 289.13C103.351 287.825 99.2321 287.226 96.4812 286.258C91.6661 287.668 86.8077 288.831 82.1554 289.769C86.8068 298.485 124.677 304.84 134.685 303.017C144.694 301.193 145.295 281.227 145.295 281.227L151.455 300.702ZM173.21 267.291C172.779 266.931 172.914 266.198 173.785 264.998C174.153 264.492 174.652 263.93 175.196 263.325C171.803 265.981 170.737 267.44 173.21 267.291ZM99.1205 274.192C115.4 271.226 124.595 268.913 129.691 267.4C146.824 251.804 152.931 233.421 153.909 225.978C154.899 218.442 150.872 204.454 150.872 204.454C150.872 204.454 139.437 254.347 82.3778 257.386C31.2458 260.109 37.6991 187.99 44.5664 159.36C42.2471 164.914 40.1547 171.066 38.3159 177.877C17.639 254.468 69.0952 279.662 99.1205 274.192Z" fill="white"/>
<path d="M187.054 228.018C209.754 165.77 157.344 153.25 126.044 154.539C94.7447 155.828 80.0055 162.926 77.1969 181.828C74.3882 200.729 72.9959 229.671 79.7092 233.597C86.4224 237.524 93.4392 243.601 92.9333 240.015C92.4275 236.43 79.0395 209.445 102.491 181.633C125.943 153.822 160.601 166.633 176.576 182.848C192.551 199.064 180.846 227.677 182.687 231.02C184.527 234.363 187.054 228.018 187.054 228.018Z" fill="white"/>
<path opacity="0.646018" d="M98.6516 157.391C59.7066 166.047 53.8627 203.521 56.7957 224.313C59.7288 245.104 71.7538 254.877 72.1251 250.649C72.4964 246.42 72.2665 234.498 73.8096 224.854C75.3528 215.211 66.5861 190.8 79.1663 177.065C91.7466 163.33 98.6516 157.391 98.6516 157.391Z" fill="#9CD7E3"/>
<path d="M135.691 154.988C68.7825 131.869 61.5513 206.746 71.1575 226.328C80.7637 245.91 95.2404 241.802 91.2972 238.107C87.3541 234.411 71.0346 210.903 84.2756 183.481C97.5167 156.058 119.88 159.34 132.193 159.304C144.507 159.267 135.691 154.988 135.691 154.988Z" fill="#1D5A6A"/>
<path d="M186.23 229.342C199.381 202.499 190.028 180.797 182.822 174.307C175.615 167.818 181.72 163.065 187.582 170.319C193.445 177.573 202.125 191.076 199.768 208.67C197.41 226.265 189.233 233.476 184.258 235.943C179.282 238.41 186.23 229.342 186.23 229.342Z" fill="#9CD7E3"/>
<defs>
<radialGradient id="paint0_radial_796_2211" cx="0" cy="0" r="1" gradientTransform="matrix(-29.7981 -211.233 246.873 -44.9826 133.128 204.739)" gradientUnits="userSpaceOnUse">
<stop stop-color="#EAF6F9"/>
<stop offset="1" stop-color="#CAE9F0"/>
</radialGradient>
</defs>
</svg>
