<svg width="544" height="387" viewBox="0 0 544 387" fill="none" xmlns="http://www.w3.org/2000/svg">
<path opacity="0.6" d="M165.873 97.1748C231.77 88.9377 290.459 92.0267 289.43 109.53C288.4 127.034 267.734 132.484 275.971 138.662C284.208 144.84 448.601 164.58 435.289 190.57C421.677 217.147 292.169 216.083 291.946 231.403C291.59 255.789 396.981 269.551 365.063 286.025C333.144 302.499 293.845 299.67 273.985 306.191C250.512 313.899 202.94 309.28 183.377 307.221C163.814 305.162 120.569 232.058 127.776 203.228C134.984 174.398 165.873 97.1748 165.873 97.1748Z" fill="white"/>
<g opacity="0.6">
<path d="M476.184 177.792C472.577 178.066 469.03 179.783 466.919 182.757C465.287 184.516 464.351 186.933 464.062 189.319C463.544 193.355 464.765 197.721 467.773 200.507C469.317 202.037 471.114 203.355 473.251 203.933C477.356 205.152 482.078 204.432 485.494 201.809C487.427 200.094 489.233 198.075 489.975 195.524C491.26 191.737 490.785 187.374 488.709 183.973C487.538 182.217 485.925 180.692 484.18 179.527C481.757 178.202 478.953 177.515 476.184 177.792Z" fill="#E0F2F6"/>
<path d="M486.534 190.436C486.644 195.531 482.602 199.75 477.507 199.859C472.413 199.968 468.194 195.927 468.085 190.832C467.975 185.738 472.017 181.519 477.112 181.41C482.206 181.3 486.425 185.342 486.534 190.436Z" fill="white"/>
<path d="M477.116 181.406C472.021 181.515 467.975 185.738 468.085 190.833C468.114 192.203 468.445 193.491 469.006 194.649C468.926 194.192 468.88 193.716 468.869 193.239C468.76 188.144 472.796 183.931 477.89 183.822C481.616 183.742 484.872 185.879 486.396 189.027C485.62 184.618 481.73 181.307 477.116 181.406Z" fill="white"/>
</g>
<path d="M356.855 80.6782C360.08 93.9413 351.943 107.308 338.68 110.533C325.417 113.759 312.05 105.622 308.825 92.3586C305.599 79.0956 313.736 65.729 326.999 62.5035C340.262 59.2781 353.629 67.4151 356.855 80.6782Z" fill="#E0F2F6"/>
<path d="M349.837 81.4237C352.149 90.9332 346.315 100.517 336.806 102.829C327.296 105.142 317.713 99.3078 315.4 89.7984C313.088 80.289 318.922 70.7053 328.431 68.3928C337.941 66.0802 347.524 71.9143 349.837 81.4237Z" fill="white"/>
<path d="M328.44 68.3868C318.93 70.6994 313.09 80.2936 315.402 89.803C316.024 92.3604 317.178 94.6396 318.709 96.5785C318.37 95.7552 318.086 94.8816 317.869 93.9901C315.557 84.4807 321.382 74.9112 330.892 72.5986C337.845 70.9077 344.835 73.5687 348.997 78.8407C345.718 70.8943 337.051 66.2926 328.44 68.3868Z" fill="white"/>
<path d="M342.652 318.466C340.616 331.964 328.025 341.255 314.528 339.219C301.031 337.183 291.739 324.592 293.775 311.095C295.811 297.598 308.402 288.306 321.899 290.342C335.396 292.378 344.688 304.969 342.652 318.466Z" fill="#E0F2F6"/>
<path d="M335.874 316.501C334.414 326.178 325.386 332.84 315.709 331.38C306.032 329.92 299.37 320.892 300.83 311.215C302.289 301.538 311.318 294.877 320.995 296.336C330.672 297.796 337.333 306.824 335.874 316.501Z" fill="white"/>
<path d="M321.005 296.332C311.328 294.872 302.29 301.541 300.831 311.218C300.438 313.821 300.643 316.367 301.326 318.741C301.324 317.851 301.392 316.935 301.529 316.028C302.988 306.35 312.003 299.699 321.68 301.158C328.756 302.225 334.219 307.335 336.075 313.79C336.048 305.193 329.768 297.653 321.005 296.332Z" fill="white"/>
<g opacity="0.3">
<path d="M452.658 250.876C450.019 250.694 447.235 251.238 445.235 252.68C443.702 253.633 442.148 254.657 441.462 256.168C440.092 258.803 439.836 261.925 441.2 264.559C442.474 265.857 443.516 267.347 445.148 268.366C448.417 270.164 452.808 270.565 456.539 269.503C458.45 268.609 460.394 267.596 461.871 266.255C464.402 263.188 464.859 259.01 462.823 255.703C461.837 254.925 460.934 253.849 459.906 252.98C458.823 252.075 457.152 251.714 455.679 251.304C454.683 251.106 453.684 250.934 452.658 250.876Z" fill="#E0F2F6"/>
<path d="M459.53 261.016C458.924 264.257 455.174 266.501 451.156 266.026C447.137 265.552 444.371 262.54 444.977 259.299C445.583 256.057 449.332 253.814 453.351 254.288C457.369 254.762 460.136 257.775 459.53 261.016Z" fill="white"/>
<path d="M453.356 254.287C449.338 253.813 445.584 256.058 444.978 259.3C444.815 260.171 444.9 261.023 445.184 261.817C445.183 261.519 445.211 261.212 445.268 260.909C445.874 257.667 449.618 255.427 453.637 255.901C456.575 256.248 458.844 257.95 459.614 260.108C459.603 257.231 456.995 254.716 453.356 254.287Z" fill="white"/>
</g>
<path d="M306.369 149.917C309.94 163.068 299.881 176.432 283.901 179.767C267.921 183.101 252.071 175.142 248.5 161.991C244.928 148.839 254.988 135.475 270.968 132.141C286.948 128.806 302.797 136.765 306.369 149.917Z" fill="#E0F2F6"/>
<path d="M297.936 150.725C300.497 160.155 293.284 169.737 281.827 172.127C270.37 174.518 259.006 168.812 256.445 159.382C253.884 149.953 261.097 140.371 272.554 137.98C284.011 135.59 295.375 141.296 297.936 150.725Z" fill="white"/>
<path d="M272.562 137.974C261.105 140.365 253.885 149.957 256.445 159.387C257.134 161.923 258.467 164.177 260.259 166.089C259.872 165.274 259.551 164.409 259.31 163.525C256.75 154.095 263.951 144.527 275.409 142.137C283.786 140.389 292.111 142.966 296.984 148.166C293.23 140.299 282.938 135.809 272.562 137.974Z" fill="white"/>
<path d="M118.069 286.623C195.005 364.961 271.012 282.287 272.546 233.769C274.079 185.252 187.841 133.977 132.371 178.221C76.9009 222.465 118.069 286.623 118.069 286.623Z" fill="#1D5A6A"/>
<path d="M114.117 281.97C178.456 321.983 210.537 307.216 234.234 279.218C257.931 251.221 259.993 243.586 251.566 226.948C243.139 210.31 220.842 157.203 171.646 162.988C122.45 168.773 111.613 221.985 112.623 244.424C113.634 266.862 114.117 281.97 114.117 281.97Z" fill="#9CD7E3"/>
<path d="M77.2726 275.879C96.6107 298.662 124.578 313.206 153.856 307.385C163.688 306.911 184.469 301.114 181.311 292.772C194.244 288.142 205.037 288.308 215.142 281.127C225.385 277.933 240.834 269.383 249.771 262.394C286.531 233.643 289.501 182.071 266.4 159.328C263.669 156.639 258.588 147.229 255.772 144.773C252.183 135.577 249.348 128.454 242.579 120.479C207.271 78.8829 141.445 74.2402 95.5493 110.136C68.9466 130.942 54.8831 160.793 54.6338 190.314C43.292 215.576 48.9027 243.336 77.2726 275.879Z" fill="#1D5A6A"/>
<path d="M88.7106 266.567C88.7106 266.567 111.533 293.454 134.445 293.601C157.353 293.751 168.228 288.676 168.228 288.676C155.896 291.606 118.997 266.818 130.795 268.054C139.462 268.962 157.204 283.538 179.849 285.614C202.474 307.229 275.044 256.408 266.602 189.878C262.127 161.319 217.687 141.057 197.863 133.358C196.894 132.272 195.426 130.635 195.426 130.635C203.413 124.388 236.722 137.895 236.722 137.895C236.722 137.895 215.178 86.7851 138.51 107.174C61.8416 127.562 65.7511 184.722 85.5009 207.989C101.768 227.154 108.681 233.068 110.647 234.581C95.6171 232.114 76.822 216.186 63.5174 201.094C58.2953 209.48 71.737 245.446 78.3203 253.202C84.9036 260.958 102.495 251.495 102.495 251.495L88.7106 266.567Z" fill="url(#paint0_radial_796_2174)"/>
<path d="M226.748 277.131C249.77 258.381 271.017 224.678 266.602 189.878C262.127 161.319 217.687 141.058 197.863 133.358C196.894 132.272 195.426 130.635 195.426 130.635C197.83 128.755 202.541 128.679 207.934 129.471C186.21 122.12 166.804 120.468 161.018 121.412C152.68 122.771 177.17 122.534 216.275 160.775C254.306 197.967 259.666 237.932 226.748 277.131Z" fill="white"/>
<path d="M111.02 117.647C115.239 116.122 119.502 114.579 125.047 112.548C151.911 102.708 192.201 97.1638 213.173 130.456C224.562 132.981 236.722 137.896 236.722 137.896C236.722 137.896 215.178 86.786 138.51 107.175C127.835 110.014 118.746 113.573 111.02 117.647Z" fill="#9CD7E3"/>
<path d="M88.7119 266.568C88.7119 266.568 111.55 293.459 134.461 293.606C157.37 293.756 168.238 288.681 168.238 288.681C159.55 290.745 138.687 279.041 131.231 272.383C135.557 278.117 140.348 283.808 140.348 283.808C140.348 283.808 125.185 279.343 110.351 268.577C95.5165 257.81 115.813 247.082 113.487 245.46C111.161 243.838 90.5671 253.084 80.297 238.748C70.0269 224.412 70.0578 216.634 73.9638 217.881C75.8113 218.47 74.2707 214.604 73.7331 211.738C70.1051 208.272 66.668 204.647 63.5296 201.087C58.3075 209.473 71.7387 245.447 78.322 253.203C84.9053 260.959 102.497 251.496 102.497 251.496L88.7119 266.568ZM128.523 268.704C128.62 268.15 129.322 267.901 130.797 268.055C131.419 268.12 132.155 268.271 132.951 268.44C128.954 266.83 127.158 266.637 128.523 268.704ZM85.5026 207.99C96.211 220.606 102.812 227.413 106.67 231.069C128.743 238.109 147.717 234.206 154.651 231.331C161.673 228.421 171.773 217.94 171.773 217.94C171.773 217.94 122.847 232.983 91.6859 185.088C63.7613 142.168 129.445 111.697 157.673 103.329C151.703 104.098 145.329 105.361 138.511 107.175C61.8433 127.563 65.7528 184.723 85.5026 207.99Z" fill="white"/>
<path d="M169.458 261.057C234.716 249.592 219.353 197.944 202.587 171.482C185.821 145.02 172.304 135.804 154.531 142.823C136.757 149.841 110.997 163.107 110.953 170.883C110.91 178.66 109.155 187.776 112.007 185.545C114.859 183.314 131.535 158.227 167.346 164.631C203.158 171.035 209.391 207.455 203.336 229.398C197.281 251.34 166.649 255.511 164.674 258.776C162.699 262.041 169.458 261.057 169.458 261.057Z" fill="white"/>
<path opacity="0.646018" d="M186.42 149.184C159.452 119.784 124.076 133.461 107.536 146.397C90.9968 159.332 88.5457 174.633 92.3936 172.84C96.2415 171.047 106.451 164.887 115.574 161.402C124.698 157.916 141.454 138.119 159.639 142.146C177.824 146.174 186.42 149.184 186.42 149.184Z" fill="#9CD7E3"/>
<path d="M207.02 180.058C193.587 110.554 125.126 141.73 112.971 159.84C100.815 177.95 111.612 188.433 112.84 183.171C114.069 177.908 126.268 152.021 156.637 149.777C187.006 147.533 195.345 168.541 201.534 179.186C207.722 189.832 207.02 180.058 207.02 180.058Z" fill="#1D5A6A"/>
<path d="M167.899 261.003C197.721 258.971 211.84 240.02 213.856 230.535C215.873 221.049 223.042 223.959 219.691 232.663C216.34 241.368 208.986 255.636 192.57 262.392C176.154 269.147 165.82 265.671 161.196 262.596C156.572 259.521 167.899 261.003 167.899 261.003Z" fill="#9CD7E3"/>
<defs>
<radialGradient id="paint0_radial_796_2174" cx="0" cy="0" r="1" gradientTransform="matrix(168.034 -131.423 162.392 191.307 162.654 202.714)" gradientUnits="userSpaceOnUse">
<stop stop-color="#EAF6F9"/>
<stop offset="1" stop-color="#CAE9F0"/>
</radialGradient>
</defs>
</svg>
