<svg width="514" height="386" viewBox="0 0 514 386" fill="none" xmlns="http://www.w3.org/2000/svg">
<path opacity="0.6" d="M135.873 96.4935C201.77 88.2564 329.436 100.664 328.407 118.167C327.377 135.671 215.487 120.903 235.05 139.437C242.525 146.518 466.649 168.516 446.057 190.139C425.464 211.761 254.555 228.186 253.386 242.775C251.081 271.531 346.596 279.063 316.133 290.44C282.484 303.008 230.682 297.148 189.38 300.414C178.277 301.292 172.94 308.599 153.377 306.54C133.814 304.481 90.5688 231.376 97.7762 202.546C104.984 173.716 135.873 96.4935 135.873 96.4935Z" fill="#F9F9F9"/>
<path d="M372.335 190.938C372.628 204.585 361.803 215.884 348.156 216.177C334.51 216.47 323.21 205.645 322.917 191.998C322.624 178.352 333.449 167.052 347.096 166.759C360.742 166.466 372.043 177.291 372.335 190.938Z" fill="#E0F2F6"/>
<path d="M365.322 190.155C365.532 199.939 357.77 208.041 347.986 208.251C338.202 208.461 330.1 200.7 329.89 190.915C329.68 181.131 337.442 173.029 347.226 172.819C357.01 172.609 365.112 180.371 365.322 190.155Z" fill="white"/>
<path d="M347.235 172.813C337.45 173.023 329.68 181.134 329.89 190.918C329.946 193.55 330.582 196.024 331.659 198.247C331.506 197.37 331.417 196.456 331.397 195.538C331.187 185.754 338.937 177.664 348.722 177.454C355.876 177.301 362.129 181.405 365.057 187.45C363.567 178.984 356.095 172.623 347.235 172.813Z" fill="white"/>
<path d="M231.098 106.835C235.267 123.98 224.749 141.259 207.604 145.428C190.459 149.598 173.18 139.079 169.01 121.934C164.841 104.789 175.36 87.5106 192.505 83.3411C209.65 79.1716 226.928 89.6902 231.098 106.835Z" fill="#E0F2F6"/>
<path d="M222.026 107.799C225.016 120.092 217.474 132.48 205.181 135.47C192.889 138.459 180.5 130.918 177.511 118.625C174.521 106.332 182.063 93.9438 194.355 90.9543C206.648 87.9649 219.037 95.5066 222.026 107.799Z" fill="white"/>
<path d="M194.366 90.9458C182.074 93.9352 174.524 106.337 177.513 118.63C178.317 121.936 179.808 124.882 181.787 127.389C181.35 126.325 180.983 125.195 180.702 124.043C177.713 111.75 185.243 99.3798 197.536 96.3903C206.524 94.2045 215.561 97.6444 220.94 104.459C216.702 94.1872 205.498 88.2387 194.366 90.9458Z" fill="white"/>
<path d="M223.521 294.951C220.89 312.398 204.613 324.408 187.165 321.777C169.718 319.146 157.707 302.869 160.339 285.421C162.97 267.974 179.247 255.963 196.695 258.595C214.142 261.226 226.153 277.503 223.521 294.951Z" fill="#E0F2F6"/>
<path d="M214.76 292.409C212.873 304.918 201.202 313.529 188.693 311.643C176.184 309.756 167.572 298.086 169.459 285.576C171.346 273.067 183.016 264.455 195.525 266.342C208.035 268.229 216.646 279.899 214.76 292.409Z" fill="white"/>
<path d="M195.538 266.338C183.029 264.451 171.346 273.072 169.459 285.581C168.952 288.946 169.216 292.237 170.099 295.306C170.097 294.156 170.185 292.971 170.362 291.799C172.248 279.289 183.902 270.69 196.411 272.577C205.558 273.957 212.62 280.561 215.018 288.906C214.984 277.794 206.866 268.046 195.538 266.338Z" fill="white"/>
<path d="M348.333 236.882C343.07 236.043 337.388 236.879 333.323 239.618C330.369 241.115 328.182 243.59 326.935 246.236C324.781 250.703 325.003 256.105 328.338 260.266C330.015 262.516 332.128 264.603 334.987 265.95C340.442 268.662 347.459 269.346 353.271 267.427C356.64 266.077 359.933 264.336 361.889 261.646C365.054 257.71 365.899 252.549 364.114 247.982C363.051 245.592 361.275 243.325 359.182 241.431C356.174 239.135 352.396 237.449 348.333 236.882Z" fill="#E0F2F6"/>
<path d="M358.736 254.705C357.111 260.588 349.845 264.138 342.508 262.635C335.171 261.131 330.541 255.143 332.166 249.259C333.792 243.377 341.057 239.827 348.394 241.33C355.732 242.834 360.362 248.822 358.736 254.705Z" fill="white"/>
<path d="M348.403 241.328C341.066 239.824 333.792 243.378 332.167 249.261C331.73 250.843 331.753 252.428 332.152 253.936C332.197 253.386 332.297 252.825 332.45 252.273C334.075 246.39 341.33 242.846 348.667 244.349C354.032 245.449 357.949 248.943 359.032 253.044C359.463 247.736 355.047 242.69 348.403 241.328Z" fill="white"/>
<g opacity="0.6">
<path d="M444.098 117.446C440.074 118.268 436.377 120.425 434.526 123.53C432.997 125.426 432.373 127.826 432.474 130.096C432.612 133.94 434.772 137.819 438.668 139.946C440.685 141.13 442.951 142.077 445.466 142.281C450.32 142.773 455.524 141.36 458.911 138.378C460.787 136.477 462.464 134.31 462.846 131.815C463.619 128.083 462.301 124.089 459.347 121.244C457.711 119.79 455.617 118.621 453.438 117.81C450.465 116.954 447.175 116.754 444.098 117.446Z" fill="#E0F2F6"/>
<path d="M458.047 127.611C459.083 132.344 455.275 136.912 449.541 137.813C443.808 138.714 438.321 135.608 437.285 130.875C436.25 126.142 440.058 121.574 445.791 120.673C451.524 119.771 457.012 122.878 458.047 127.611Z" fill="white"/>
<path d="M445.796 120.67C440.063 121.571 436.251 126.144 437.286 130.877C437.565 132.15 438.169 133.299 439.01 134.291C438.838 133.877 438.7 133.441 438.603 132.997C437.567 128.264 441.37 123.703 447.103 122.802C451.295 122.143 455.355 123.624 457.64 126.32C455.975 122.331 450.988 119.854 445.796 120.67Z" fill="white"/>
</g>
<path d="M85.2483 120.953C-21.0628 148.413 12.5323 255.574 53.7825 281.161C95.0327 306.747 182.558 257.7 171.976 187.54C161.394 117.379 85.2483 120.953 85.2483 120.953Z" fill="#1D5A6A"/>
<path d="M91.2527 119.858C24.431 155.571 21.1792 190.737 33.5771 225.258C45.975 259.779 51.5561 265.382 70.1783 266.403C88.8005 267.424 145.941 274.668 165.53 229.171C185.118 183.673 144.453 147.682 124.515 137.337C104.578 126.993 91.2527 119.858 91.2527 119.858Z" fill="#9CD7E3"/>
<path d="M114.951 90.9948C85.5517 96.3508 58.9726 113.299 49.3741 141.565C44.8689 150.317 39.4985 171.212 48.3023 172.649C45.8451 186.163 40.3056 195.427 41.4714 207.769C39.1165 218.237 38.7957 235.891 40.3804 247.125C46.8993 293.336 90.0767 321.694 121.323 313.059C125.018 312.038 135.707 312.344 139.243 311.132C149.001 312.622 156.587 313.729 166.878 311.854C220.555 302.075 257.489 247.389 249.35 189.694C244.633 156.253 225.813 129.148 200.371 114.171C184.165 91.7182 157.319 82.6974 114.951 90.9948Z" fill="#1D5A6A"/>
<path d="M117.295 105.555C117.295 105.555 82.5988 111.876 71.0157 131.646C59.4319 151.41 58.3894 163.365 58.3894 163.365C62.0181 151.22 101.934 131.659 94.9648 141.259C89.8455 148.31 68.3508 156.387 55.2302 174.96C25.1986 183.747 32.9262 272.004 94.7637 297.958C121.734 308.363 161.501 280.007 178.081 266.688C179.507 266.393 181.658 265.94 181.658 265.94C183.075 275.98 154.723 298.073 154.723 298.073C154.723 298.073 209.757 304.97 230.434 228.379C251.111 151.789 199.655 126.595 169.629 132.065C144.899 136.57 136.321 139.6 134.028 140.546C143.679 128.763 166.87 120.45 186.593 116.474C181.941 107.759 144.073 101.417 134.065 103.24C124.056 105.063 123.455 125.029 123.455 125.029L117.295 105.555Z" fill="url(#paint0_radial_796_2099)"/>
<path d="M39.129 219.819C43.8559 249.131 62.4198 284.383 94.7648 297.959C121.736 308.364 161.502 280.008 178.082 266.689C179.508 266.393 181.659 265.94 181.659 265.94C182.086 268.962 179.796 273.08 176.413 277.355C193.642 262.217 204.775 246.236 206.85 240.754C209.842 232.853 197.803 254.181 145.133 268.926C93.9079 283.266 56.6167 267.926 39.129 219.819Z" fill="white"/>
<path d="M235.111 199.338C234.322 203.754 233.527 208.217 232.513 214.036C227.603 242.22 212.259 279.884 172.941 281.401C165.06 290.001 154.724 298.075 154.724 298.075C154.724 298.075 209.758 304.972 230.435 228.381C233.314 217.717 234.776 208.065 235.111 199.338Z" fill="#9CD7E3"/>
<path d="M117.295 105.556C117.295 105.556 82.5877 111.89 71.0044 131.657C59.4206 151.422 58.3817 163.372 58.3817 163.372C60.9382 154.816 81.5054 142.599 90.9998 139.472C83.8702 140.351 76.5465 141.654 76.5465 141.654C76.5465 141.654 87.9951 130.755 104.736 123.292C121.477 115.828 120.62 138.769 123.188 137.566C125.755 136.363 128.045 113.905 145.596 112.179C163.146 110.453 169.866 114.369 166.834 117.128C165.399 118.433 169.518 119.032 172.269 120C177.084 118.59 181.942 117.426 186.595 116.489C181.943 107.773 144.073 101.418 134.065 103.241C124.056 105.065 123.455 125.031 123.455 125.031L117.295 105.556ZM95.5395 138.966C95.9711 139.326 95.8359 140.059 94.9648 141.259C94.5975 141.765 94.0982 142.328 93.554 142.932C96.9474 140.276 98.0126 138.817 95.5395 138.966ZM169.629 132.066C153.35 135.032 144.155 137.345 139.059 138.858C121.926 154.453 115.819 172.837 114.841 180.28C113.851 187.816 117.878 201.804 117.878 201.804C117.878 201.804 129.313 151.911 186.372 148.872C237.504 146.149 231.051 218.268 224.184 246.898C226.503 241.344 228.595 235.192 230.434 228.381C251.111 151.79 199.655 126.596 169.629 132.066Z" fill="white"/>
<path d="M81.6963 178.24C58.9961 240.488 111.406 253.007 142.706 251.719C174.005 250.43 188.745 243.331 191.553 224.43C194.362 205.528 195.754 176.586 189.041 172.66C182.328 168.734 175.311 162.657 175.817 166.242C176.323 169.828 189.71 196.813 166.259 224.624C142.807 252.436 108.149 239.624 92.1745 223.409C76.1995 207.194 87.9037 178.58 86.0634 175.238C84.2231 171.895 81.6963 178.24 81.6963 178.24Z" fill="white"/>
<path opacity="0.646018" d="M170.098 248.867C209.043 240.211 214.887 202.736 211.954 181.945C209.021 161.153 196.996 151.38 196.625 155.609C196.254 159.838 196.484 171.76 194.94 181.403C193.397 191.047 202.164 215.457 189.584 229.192C177.003 242.927 170.098 248.867 170.098 248.867Z" fill="#9CD7E3"/>
<path d="M133.061 251.269C199.969 274.388 207.201 199.512 197.594 179.93C187.988 160.347 173.512 164.456 177.455 168.151C181.398 171.846 197.717 195.355 184.476 222.777C171.235 250.2 148.872 246.918 136.559 246.954C124.245 246.991 133.061 251.269 133.061 251.269Z" fill="#1D5A6A"/>
<path d="M82.52 176.916C69.3692 203.759 78.7218 225.461 85.9282 231.95C93.1347 238.44 87.0302 243.193 81.1676 235.939C75.305 228.684 66.6252 215.182 68.9825 197.587C71.3398 179.993 79.5172 172.782 84.4924 170.315C89.4676 167.848 82.52 176.916 82.52 176.916Z" fill="#9CD7E3"/>
<defs>
<radialGradient id="paint0_radial_796_2099" cx="0" cy="0" r="1" gradientTransform="matrix(29.7981 211.233 -246.873 44.9826 135.622 201.519)" gradientUnits="userSpaceOnUse">
<stop stop-color="#EAF6F9"/>
<stop offset="1" stop-color="#CAE9F0"/>
</radialGradient>
</defs>
</svg>
