<svg width="475" height="263" viewBox="0 0 475 263" fill="none" xmlns="http://www.w3.org/2000/svg">
<g clip-path="url(#clip0_799_984)">
<path opacity="0.6" d="M116.156 29.4925C182.053 21.2554 230.297 24.713 219.318 38.3843C184.797 81.3705 406.333 68.4794 397.799 94.0279C387.193 125.775 262.364 97.4487 241.772 119.071C221.179 140.694 354.639 146.871 354.252 167.485C353.851 188.902 256.187 183.938 224.268 200.412C192.349 216.887 343.706 216.357 312.817 236.949C303.55 243.127 153.951 253.247 115.458 246.091C96.118 242.496 70.8515 164.375 78.059 135.545C85.2664 106.715 116.156 29.4925 116.156 29.4925Z" fill="white"/>
<path d="M381.44 106.117C376.752 106.474 372.143 108.705 369.399 112.57C367.278 114.856 366.061 117.997 365.686 121.098C365.013 126.343 366.6 132.017 370.509 135.639C372.516 137.627 374.851 139.34 377.628 140.092C382.963 141.675 389.101 140.74 393.54 137.33C396.052 135.102 398.399 132.477 399.364 129.162C401.034 124.241 400.416 118.57 397.717 114.15C396.196 111.868 394.1 109.886 391.832 108.373C388.683 106.65 385.038 105.757 381.44 106.117Z" fill="#E0F2F6"/>
<path d="M394.891 122.551C395.033 129.172 389.781 134.655 383.16 134.797C376.538 134.939 371.056 129.686 370.913 123.065C370.771 116.444 376.024 110.961 382.645 110.819C389.266 110.677 394.749 115.929 394.891 122.551Z" fill="white"/>
<path d="M382.651 110.815C376.03 110.957 370.772 116.446 370.914 123.067C370.952 124.848 371.382 126.522 372.111 128.027C372.007 127.433 371.947 126.814 371.934 126.194C371.791 119.572 377.036 114.098 383.657 113.956C388.499 113.852 392.731 116.629 394.712 120.72C393.704 114.991 388.647 110.686 382.651 110.815Z" fill="white"/>
<path d="M263.763 23.6318C267.579 39.3211 257.953 55.1327 242.264 58.9482C226.575 62.7636 210.763 53.1382 206.948 37.4489C203.132 21.7596 212.758 5.94796 228.447 2.13248C244.136 -1.68301 259.948 7.94255 263.763 23.6318Z" fill="#E0F2F6"/>
<path d="M255.463 24.5141C258.198 35.7631 251.297 47.0998 240.048 49.8354C228.799 52.571 217.462 45.6697 214.727 34.4207C211.991 23.1718 218.893 11.8351 230.141 9.09943C241.39 6.3638 252.727 13.2652 255.463 24.5141Z" fill="white"/>
<path d="M230.15 9.09114C218.901 11.8268 211.992 23.176 214.727 34.4249C215.463 37.4502 216.827 40.1463 218.638 42.4398C218.238 41.466 217.902 40.4325 217.646 39.378C214.91 28.1291 221.801 16.809 233.05 14.0734C241.275 12.0732 249.545 15.221 254.467 21.4573C250.588 12.0573 240.336 6.61389 230.15 9.09114Z" fill="white"/>
<path d="M248.298 238.254C245.89 254.22 230.995 265.211 215.029 262.803C199.063 260.395 188.072 245.5 190.48 229.534C192.888 213.568 207.783 202.577 223.749 204.985C239.715 207.393 250.706 222.288 248.298 238.254Z" fill="#E0F2F6"/>
<path d="M240.281 235.929C238.555 247.376 227.875 255.256 216.428 253.53C204.981 251.803 197.1 241.124 198.827 229.676C200.554 218.229 211.233 210.349 222.68 212.075C234.128 213.802 242.008 224.481 240.281 235.929Z" fill="white"/>
<path d="M222.691 212.071C211.243 210.345 200.552 218.233 198.825 229.681C198.361 232.759 198.603 235.771 199.411 238.58C199.409 237.527 199.49 236.443 199.651 235.37C201.378 223.923 212.042 216.054 223.489 217.781C231.859 219.043 238.321 225.087 240.516 232.723C240.485 222.554 233.057 213.634 222.691 212.071Z" fill="white"/>
<g opacity="0.6">
<path d="M364.497 175.871C360.327 175.565 355.941 176.596 352.945 179.007C350.736 180.373 349.19 182.453 348.391 184.604C347.004 188.239 347.536 192.447 350.419 195.478C351.879 197.125 353.67 198.617 355.994 199.48C360.438 201.237 365.969 201.306 370.384 199.42C372.928 198.142 375.387 196.562 376.737 194.329C378.95 191.043 379.268 186.953 377.57 183.501C376.58 181.703 375.041 180.049 373.279 178.707C370.776 177.112 367.711 176.045 364.497 175.871Z" fill="#E0F2F6"/>
<path d="M373.813 189.113C372.933 193.82 367.489 197.077 361.654 196.388C355.819 195.7 351.802 191.326 352.682 186.62C353.562 181.913 359.006 178.656 364.841 179.344C370.676 180.033 374.693 184.406 373.813 189.113Z" fill="white"/>
<path d="M364.846 179.343C359.011 178.654 353.561 181.915 352.681 186.622C352.444 187.888 352.568 189.125 352.98 190.277C352.979 189.845 353.02 189.399 353.102 188.958C353.982 184.251 359.418 180.999 365.253 181.687C369.52 182.191 372.814 184.662 373.933 187.796C373.917 183.618 370.13 179.966 364.846 179.343Z" fill="white"/>
</g>
<g opacity="0.3">
<path d="M461.902 57.9915C459.8 58.4039 457.814 59.4215 456.72 60.9854C455.833 62.0641 454.953 63.2032 454.898 64.5457C454.67 66.9224 455.458 69.4503 457.347 71.2501C458.744 72.011 460.023 72.9714 461.609 73.4351C464.711 74.1717 468.24 73.5642 470.795 71.9358C471.994 70.825 473.18 69.6119 473.901 68.2381C474.893 65.2739 473.926 61.8665 471.304 59.6752C470.294 59.2658 469.254 58.6041 468.183 58.1312C467.058 57.6424 465.649 57.7088 464.378 57.6941C463.544 57.7472 462.715 57.8218 461.902 57.9915Z" fill="#E0F2F6"/>
<path d="M470.431 64.5788C470.986 67.2754 468.789 69.8433 465.525 70.3144C462.262 70.7856 459.166 68.9815 458.612 66.2849C458.057 63.5884 460.253 61.0204 463.517 60.5493C466.781 60.0781 469.876 61.8822 470.431 64.5788Z" fill="white"/>
<path d="M463.52 60.5469C460.256 61.018 458.057 63.5888 458.612 66.2854C458.761 67.0106 459.096 67.6679 459.567 68.2371C459.472 68.0011 459.397 67.7521 459.345 67.4993C458.791 64.8027 460.984 62.2385 464.247 61.7674C466.634 61.4229 468.93 62.2938 470.209 63.8415C469.291 61.5635 466.476 60.1203 463.52 60.5469Z" fill="white"/>
</g>
<path d="M19.5029 134.887C-9.87217 240.684 99.7296 265.171 142.514 242.24C185.297 219.31 186.584 118.988 120.532 93.0714C54.4808 67.1552 19.5029 134.887 19.5029 134.887Z" fill="#1D5A6A"/>
<path d="M21.5577 129.138C19.0749 204.864 47.9032 225.263 83.9983 231.787C120.093 238.31 127.736 236.278 137.932 220.662C148.127 205.045 182.971 159.182 153.363 119.469C123.755 79.7565 72.2533 96.9774 53.3263 109.072C34.3994 121.166 21.5577 129.138 21.5577 129.138Z" fill="#9CD7E3"/>
<path d="M8.40924 94.1842C-1.65204 122.323 -0.264223 153.815 19.4157 176.261C24.7427 184.538 40.1528 199.636 45.7991 192.731C56.2744 201.616 61.5277 211.045 72.7991 216.207C80.6868 223.48 95.8156 232.585 106.336 236.829C149.616 254.29 195.764 231.076 203.909 199.698C204.872 195.988 210.481 186.884 211.2 183.216C217.369 175.51 222.12 169.494 225.642 159.644C244.012 108.268 215.119 48.9395 161.085 27.1408C129.765 14.5054 96.8822 17.2512 71.1908 31.7962C43.6428 34.6047 22.4075 53.3436 8.40924 94.1842Z" fill="#1D5A6A"/>
<path d="M22.1909 99.4352C22.1909 99.4352 10.3172 132.643 21.6461 152.559C32.9708 172.473 42.8027 179.353 42.8027 179.353C34.0995 170.139 37.1169 125.79 41.9458 136.625C45.4929 144.584 41.7404 167.238 51.2651 187.887C43.8584 218.288 124.155 255.725 177.551 215.149C200.047 196.994 195.374 148.377 192.129 127.359C192.586 125.977 193.27 123.887 193.27 123.887C202.673 127.68 207.63 163.28 207.63 163.28C207.63 163.28 241.12 119.068 185.129 62.8656C129.138 6.66352 81.5914 38.6289 71.3159 67.3666C62.8526 91.0363 61.1875 99.9805 60.8601 102.439C55.4813 88.1898 59.8779 63.9488 66.2956 44.8807C56.4222 44.5512 31.9958 74.1749 28.5707 83.7542C25.1455 93.3334 42.136 103.837 42.136 103.837L22.1909 99.4352Z" fill="url(#paint0_radial_799_984)"/>
<path d="M82.063 224.26C109.812 234.823 149.623 236.372 177.552 215.148C200.048 196.993 195.375 148.376 192.13 127.358C192.587 125.975 193.271 123.886 193.271 123.886C196.101 125.027 198.522 129.07 200.533 134.137C196.037 111.647 187.764 94.0155 184.054 89.4767C178.708 82.9353 191.159 104.025 177.593 157.011C164.399 208.544 132.469 233.169 82.063 224.26Z" fill="white"/>
<path d="M162.316 44.2935C165.747 47.1848 169.214 50.1047 173.746 53.8919C195.699 72.2365 220.646 104.356 202.3 139.165C205.808 150.291 207.632 163.279 207.632 163.279C207.632 163.279 241.122 119.067 185.131 62.8646C177.335 55.039 169.707 48.947 162.316 44.2935Z" fill="#9CD7E3"/>
<path d="M22.1922 99.4352C22.1922 99.4352 10.3234 132.659 21.6513 152.574C32.976 172.489 42.8053 179.363 42.8053 179.363C36.6737 172.871 36.3779 148.951 38.4163 139.165C35.6131 145.779 33.0798 152.773 33.0798 152.773C33.0798 152.773 29.3652 137.409 31.2721 119.179C33.179 100.949 52.6182 113.162 52.8599 110.337C53.1016 107.511 34.7979 94.2995 42.0781 78.2374C49.3583 62.1753 56.1096 58.3131 56.9829 62.3191C57.3959 64.214 59.9741 60.9465 62.1874 59.0479C63.3746 54.1733 64.7958 49.3839 66.3097 44.8859C56.4363 44.5564 31.9975 74.1752 28.5723 83.7544C25.1472 93.3337 42.1377 103.837 42.1377 103.837L22.1922 99.4352ZM40.2486 134.981C40.7762 134.787 41.3434 135.271 41.9471 136.625C42.2016 137.196 42.4389 137.91 42.6906 138.683C42.087 134.417 41.3561 132.765 40.2486 134.981ZM71.3176 67.3669C65.7463 82.9484 63.1519 92.068 61.9147 97.2376C66.8539 119.873 79.7211 134.354 85.6779 138.922C91.7095 143.547 105.836 147.054 105.836 147.054C105.836 147.054 68.346 112.204 94.2436 61.2703C117.451 15.627 176.681 57.2752 198.042 77.5376C194.391 72.7518 190.11 67.864 185.131 62.8659C129.14 6.66378 81.5931 38.6291 71.3176 67.3669Z" fill="white"/>
<path d="M67.3375 166.607C109.895 217.39 146.943 178.261 161.477 150.511C176.01 122.76 177.232 106.446 162.267 94.5634C147.302 82.6803 122.934 67.0035 116.177 70.8543C109.421 74.7051 100.649 77.743 104.007 79.0978C107.366 80.4526 137.429 82.3507 149.789 116.566C162.148 150.782 133.724 174.39 111.694 180.118C89.664 185.845 70.7359 161.402 66.9209 161.324C63.1058 161.246 67.3375 166.607 67.3375 166.607Z" fill="white"/>
<path opacity="0.646018" d="M172.702 125.361C184.679 87.3061 155.147 63.5078 135.674 55.6521C116.202 47.7964 101.726 53.3239 105.202 55.7599C108.679 58.1958 119.118 63.9575 126.698 70.1158C134.278 76.2741 159.802 80.887 165.406 98.6493C171.011 116.412 172.702 125.361 172.702 125.361Z" fill="#9CD7E3"/>
<path d="M156.266 158.639C209.742 112.255 148.513 68.5538 126.751 67.0819C104.989 65.61 101.309 80.2015 106.481 78.6342C111.652 77.0669 140.171 74.688 157.299 99.8663C174.427 125.045 160.403 142.771 154.278 153.453C148.153 164.135 156.266 158.639 156.266 158.639Z" fill="#1D5A6A"/>
<path d="M66.6049 165.232C83.2757 190.042 106.747 192.794 115.97 189.798C125.193 186.801 126.257 194.464 117.044 195.915C107.83 197.365 91.7963 198.13 77.7379 187.291C63.6796 176.453 61.5231 165.765 61.8743 160.223C62.2256 154.681 66.6049 165.232 66.6049 165.232Z" fill="#9CD7E3"/>
</g>
<defs>
<radialGradient id="paint0_radial_799_984" cx="0" cy="0" r="1" gradientTransform="matrix(197.833 79.8108 -84.4802 236.289 114.461 131.545)" gradientUnits="userSpaceOnUse">
<stop stop-color="#EAF6F9"/>
<stop offset="1" stop-color="#CAE9F0"/>
</radialGradient>
<clipPath id="clip0_799_984">
<rect width="475" height="263" fill="white"/>
</clipPath>
</defs>
</svg>
