<svg width="546" height="386" viewBox="0 0 546 386" fill="none" xmlns="http://www.w3.org/2000/svg">
<path opacity="0.6" d="M167.871 96.4924C233.768 88.2553 268.197 105.639 293.487 108.848C330.989 113.607 411.807 109.792 409.961 140.694C408.825 159.719 308.932 164.449 288.339 186.071C267.746 207.693 365.772 219.373 367.746 236.877C370.642 262.558 297.606 256.086 265.687 272.561C233.768 289.035 285.25 299.331 275.983 305.509C266.716 311.687 204.938 308.598 185.375 306.539C165.812 304.479 122.567 231.375 129.774 202.545C136.982 173.715 167.871 96.4924 167.871 96.4924Z" fill="white"/>
<path d="M356.404 189.811C356.75 205.954 343.945 219.321 327.802 219.667C311.659 220.013 298.292 207.208 297.945 191.065C297.599 174.922 310.405 161.555 326.548 161.209C342.69 160.863 356.058 173.668 356.404 189.811Z" fill="#E0F2F6"/>
<path d="M348.107 188.886C348.356 200.46 339.174 210.044 327.6 210.292C316.026 210.54 306.442 201.359 306.194 189.785C305.945 178.211 315.127 168.627 326.701 168.379C338.275 168.13 347.859 177.312 348.107 188.886Z" fill="white"/>
<path d="M326.711 168.37C315.137 168.619 305.946 178.213 306.194 189.787C306.261 192.9 307.013 195.827 308.287 198.457C308.106 197.42 308 196.338 307.977 195.253C307.729 183.679 316.896 174.109 328.471 173.861C336.933 173.679 344.331 178.534 347.794 185.684C346.032 175.67 337.192 168.146 326.711 168.37Z" fill="white"/>
<g opacity="0.3">
<path d="M460.741 64.9232C458.049 65.7522 455.576 67.5243 454.324 70.08C453.289 71.8541 452.269 73.7227 452.347 75.8409C452.313 79.6022 453.619 83.5146 456.278 86.1867C458.182 87.265 459.953 88.6677 462.07 89.262C466.191 90.1564 470.72 88.8981 473.866 86.116C475.304 84.2646 476.714 82.2533 477.5 80.0289C478.464 75.2773 476.828 69.9955 473.171 66.7698C471.81 66.2118 470.383 65.2588 468.936 64.6059C467.416 63.9326 465.589 64.1576 463.932 64.2433C462.852 64.3983 461.781 64.5865 460.741 64.9232Z" fill="#E0F2F6"/>
<path d="M472.578 74.5642C473.599 78.7622 471.023 82.9929 466.825 84.0138C462.627 85.0347 458.397 82.4592 457.376 78.2612C456.355 74.0633 458.93 69.8326 463.128 68.8117C467.326 67.7908 471.557 70.3663 472.578 74.5642Z" fill="white"/>
<path d="M463.13 68.8088C458.932 69.8297 456.354 74.0651 457.375 78.263C457.649 79.392 458.159 80.3981 458.834 81.2541C458.685 80.8907 458.56 80.505 458.464 80.1114C457.443 75.9135 460.015 71.689 464.213 70.6681C467.282 69.9216 470.368 71.0964 472.205 73.4237C470.758 69.9157 466.932 67.8843 463.13 68.8088Z" fill="white"/>
</g>
<g opacity="0.3">
<path d="M473.497 313.953C470.693 313.702 467.732 314.405 465.607 316.297C463.976 317.547 462.325 318.891 461.595 320.881C460.14 324.349 459.867 328.465 461.317 331.945C462.671 333.663 463.78 335.632 465.514 336.984C468.99 339.372 473.657 339.921 477.623 338.538C479.655 337.368 481.721 336.04 483.291 334.279C485.982 330.246 486.467 324.738 484.303 320.368C483.255 319.336 482.295 317.914 481.203 316.762C480.051 315.563 478.274 315.08 476.708 314.532C475.65 314.266 474.588 314.035 473.497 313.953Z" fill="#E0F2F6"/>
<path d="M480.804 327.357C480.159 331.629 476.174 334.57 471.902 333.926C467.63 333.282 464.689 329.296 465.333 325.024C465.978 320.752 469.963 317.811 474.235 318.456C478.507 319.1 481.448 323.085 480.804 327.357Z" fill="white"/>
<path d="M474.239 318.454C469.967 317.81 465.977 320.754 465.333 325.026C465.16 326.175 465.25 327.299 465.551 328.347C465.551 327.954 465.581 327.55 465.641 327.149C466.285 322.877 470.265 319.941 474.537 320.585C477.66 321.056 480.072 323.312 480.891 326.161C480.88 322.366 478.107 319.038 474.239 318.454Z" fill="white"/>
</g>
<path d="M365.465 249.46C363.55 259.701 351.705 266.788 339.008 265.29C326.311 263.792 317.571 254.276 319.486 244.035C321.401 233.794 333.246 226.707 345.942 228.205C358.639 229.703 367.379 239.219 365.465 249.46Z" fill="#E0F2F6"/>
<path d="M359.089 247.993C357.716 255.336 349.224 260.417 340.12 259.343C331.017 258.269 324.75 251.446 326.123 244.103C327.496 236.761 335.989 231.679 345.092 232.753C354.196 233.828 360.462 240.651 359.089 247.993Z" fill="white"/>
<path d="M345.1 232.749C335.997 231.674 327.495 236.762 326.122 244.104C325.753 246.079 325.946 248.009 326.588 249.807C326.586 249.132 326.65 248.437 326.779 247.749C328.152 240.406 336.632 235.332 345.735 236.406C352.392 237.191 357.531 241.047 359.276 245.935C359.251 239.418 353.344 233.721 345.1 232.749Z" fill="white"/>
<path d="M433.886 115.113C428.816 116.414 424.245 119.396 422.085 123.465C420.26 125.976 419.617 129.071 419.89 131.954C420.309 136.84 423.305 141.642 428.399 144.102C431.043 145.481 433.987 146.543 437.203 146.643C443.413 146.962 449.949 144.834 454.072 140.823C456.34 138.283 458.337 135.418 458.665 132.218C459.413 127.417 457.481 122.416 453.541 118.981C451.365 117.234 448.626 115.879 445.8 114.984C441.961 114.083 437.759 114.036 433.886 115.113Z" fill="#E0F2F6"/>
<path d="M452.291 127.17C453.909 133.13 449.351 139.186 442.109 140.697C434.867 142.208 427.684 138.602 426.065 132.641C424.447 126.681 429.006 120.625 436.247 119.114C443.489 117.603 450.672 121.209 452.291 127.17Z" fill="white"/>
<path d="M436.254 119.11C429.012 120.621 424.448 126.685 426.067 132.645C426.502 134.248 427.344 135.672 428.477 136.881C428.232 136.366 428.029 135.819 427.878 135.26C426.259 129.3 430.811 123.252 438.053 121.741C443.348 120.637 448.61 122.266 451.69 125.552C449.317 120.58 442.812 117.742 436.254 119.11Z" fill="white"/>
<path d="M213.677 119.635C136.741 41.2965 60.7343 123.971 59.2006 172.488C57.6669 221.006 143.906 272.281 199.375 228.037C254.845 183.792 213.677 119.635 213.677 119.635Z" fill="#1D5A6A"/>
<path d="M217.627 124.288C153.288 84.2753 121.208 99.0419 97.5104 127.039C73.8134 155.037 71.7513 162.672 80.1782 179.31C88.6052 195.947 110.902 249.055 160.098 243.27C209.294 237.485 220.131 184.272 219.121 161.834C218.11 139.396 217.627 124.288 217.627 124.288Z" fill="#9CD7E3"/>
<path d="M254.472 130.379C235.133 107.596 207.166 93.0521 177.888 98.8726C168.056 99.3471 147.275 105.144 150.433 113.486C137.5 118.116 126.708 117.95 116.602 125.131C106.359 128.325 90.9098 136.875 81.9736 143.864C45.2127 172.615 42.2427 224.187 65.3439 246.93C68.0756 249.619 73.1558 259.028 75.9726 261.485C79.5616 270.681 82.3961 277.804 89.1653 285.779C124.473 327.375 190.299 332.018 236.195 296.122C262.798 275.316 276.861 245.465 277.11 215.943C288.452 190.682 282.841 162.922 254.472 130.379Z" fill="#1D5A6A"/>
<path d="M243.034 139.691C243.034 139.691 220.211 112.804 197.299 112.657C174.391 112.507 163.516 117.582 163.516 117.582C175.848 114.652 212.747 139.44 200.949 138.204C192.282 137.296 174.54 122.72 151.895 120.644C129.27 99.0285 56.7004 149.85 65.1421 216.38C69.6167 244.939 114.057 265.2 133.881 272.9C134.85 273.986 136.318 275.623 136.318 275.623C128.331 281.87 95.0223 268.363 95.0223 268.363C95.0223 268.363 116.567 319.473 193.235 299.084C269.903 278.695 265.993 221.536 246.243 198.268C229.976 179.104 223.063 173.19 221.097 171.677C236.127 174.144 254.922 190.072 268.227 205.164C273.449 196.778 260.007 160.812 253.424 153.056C246.841 145.3 229.249 154.763 229.249 154.763L243.034 139.691Z" fill="url(#paint0_radial_796_2062)"/>
<path d="M104.996 129.127C81.9739 147.877 60.7268 181.58 65.1423 216.379C69.617 244.939 114.057 265.2 133.882 272.899C134.851 273.986 136.319 275.623 136.319 275.623C133.915 277.503 129.203 277.579 123.81 276.787C145.534 284.138 164.94 285.789 170.726 284.846C179.064 283.486 154.574 283.724 115.47 245.483C77.4382 208.291 72.0777 168.326 104.996 129.127Z" fill="white"/>
<path d="M220.724 288.611C216.505 290.136 212.243 291.679 206.697 293.71C179.833 303.55 139.543 309.094 118.571 275.802C107.182 273.277 95.0217 268.362 95.0217 268.362C95.0217 268.362 116.566 319.472 193.234 299.083C203.909 296.244 212.999 292.685 220.724 288.611Z" fill="#9CD7E3"/>
<path d="M243.032 139.689C243.032 139.689 220.194 112.799 197.283 112.651C174.374 112.502 163.506 117.577 163.506 117.577C172.194 115.513 193.057 127.217 200.513 133.875C196.187 128.14 191.396 122.449 191.396 122.449C191.396 122.449 206.56 126.915 221.394 137.681C236.228 148.447 215.931 159.176 218.257 160.798C220.583 162.42 241.177 153.174 251.447 167.51C261.717 181.846 261.686 189.624 257.78 188.377C255.933 187.787 257.473 191.654 258.011 194.52C261.639 197.985 265.076 201.611 268.215 205.171C273.437 196.785 260.005 160.811 253.422 153.055C246.839 145.299 229.247 154.762 229.247 154.762L243.032 139.689ZM203.221 137.554C203.125 138.108 202.422 138.357 200.947 138.203C200.326 138.138 199.589 137.986 198.793 137.817C202.79 139.428 204.586 139.621 203.221 137.554ZM246.242 198.267C235.533 185.652 228.933 178.845 225.074 175.189C203.002 168.149 184.028 172.052 177.093 174.926C170.071 177.837 159.971 188.318 159.971 188.318C159.971 188.318 208.897 173.275 240.058 221.17C267.983 264.09 202.299 294.561 174.071 302.929C180.041 302.16 186.415 300.896 193.233 299.083C269.901 278.695 265.991 221.535 246.242 198.267Z" fill="white"/>
<path d="M162.287 145.201C97.0286 156.666 112.391 208.314 129.157 234.776C145.923 261.238 159.44 270.453 177.214 263.435C194.987 256.416 220.748 243.151 220.791 235.374C220.835 227.597 222.59 218.482 219.737 220.713C216.885 222.944 200.209 248.031 164.398 241.626C128.586 235.222 122.353 198.802 128.408 176.86C134.463 154.918 165.096 150.747 167.07 147.482C169.045 144.217 162.287 145.201 162.287 145.201Z" fill="white"/>
<path opacity="0.646018" d="M145.324 257.074C172.292 286.473 207.668 272.797 224.208 259.861C240.747 246.925 243.198 231.625 239.351 233.418C235.503 235.211 225.293 241.371 216.17 244.856C207.047 248.341 190.29 268.139 172.105 264.111C153.92 260.084 145.324 257.074 145.324 257.074Z" fill="#9CD7E3"/>
<path d="M124.725 226.2C138.157 295.704 206.618 264.528 218.773 246.418C230.929 228.308 220.132 217.825 218.904 223.087C217.675 228.35 205.476 254.237 175.107 256.481C144.738 258.725 136.399 237.717 130.21 227.072C124.022 216.426 124.725 226.2 124.725 226.2Z" fill="#1D5A6A"/>
<path d="M163.845 145.254C134.023 147.287 119.904 166.238 117.888 175.723C115.871 185.209 108.703 182.299 112.054 173.594C115.405 164.89 122.759 150.622 139.174 143.866C155.59 137.111 165.924 140.587 170.548 143.662C175.172 146.737 163.845 145.254 163.845 145.254Z" fill="#9CD7E3"/>
<defs>
<radialGradient id="paint0_radial_796_2062" cx="0" cy="0" r="1" gradientTransform="matrix(-168.034 131.423 -162.392 -191.307 169.09 203.544)" gradientUnits="userSpaceOnUse">
<stop stop-color="#EAF6F9"/>
<stop offset="1" stop-color="#CAE9F0"/>
</radialGradient>
</defs>
</svg>
