<svg width="441" height="281" viewBox="0 0 441 281" fill="none" xmlns="http://www.w3.org/2000/svg">
<g clip-path="url(#clip0_799_911)">
<path opacity="0.6" d="M121.217 34.4924C187.114 26.2553 221.543 43.6389 246.833 46.848C284.334 51.6066 365.153 47.7923 363.307 78.6936C362.17 97.7186 262.277 102.449 241.684 124.071C221.092 145.693 319.118 157.373 321.092 174.877C323.988 200.558 250.951 194.086 219.032 210.561C187.114 227.035 238.596 237.331 229.329 243.509C220.062 249.687 158.284 246.598 138.721 244.539C119.157 242.479 75.9125 169.375 83.12 140.545C90.3274 111.715 121.217 34.4924 121.217 34.4924Z" fill="white"/>
<path d="M309.75 127.811C310.096 143.954 297.29 157.321 281.147 157.667C265.005 158.013 251.637 145.208 251.291 129.065C250.945 112.922 263.75 99.5552 279.893 99.2089C296.036 98.8625 309.403 111.668 309.75 127.811Z" fill="#E0F2F6"/>
<path d="M301.453 126.886C301.701 138.46 292.52 148.044 280.946 148.292C269.372 148.54 259.788 139.359 259.539 127.785C259.291 116.211 268.473 106.627 280.047 106.379C291.621 106.13 301.205 115.312 301.453 126.886Z" fill="white"/>
<path d="M280.057 106.37C268.483 106.619 259.291 116.213 259.54 127.787C259.606 130.9 260.358 133.827 261.633 136.457C261.451 135.42 261.346 134.338 261.323 133.253C261.074 121.679 270.242 112.109 281.816 111.861C290.279 111.679 297.676 116.534 301.14 123.684C299.377 113.67 290.538 106.146 280.057 106.37Z" fill="white"/>
<g opacity="0.3">
<path d="M414.084 2.9232C411.393 3.75225 408.92 5.52426 407.668 8.07997C406.633 9.85406 405.613 11.7227 405.691 13.8409C405.657 17.6022 406.962 21.5146 409.622 24.1867C411.526 25.265 413.297 26.6677 415.414 27.262C419.535 28.1564 424.063 26.8981 427.21 24.116C428.648 22.2646 430.058 20.2533 430.844 18.0289C431.807 13.2773 430.172 7.99553 426.514 4.76977C425.153 4.21177 423.726 3.25879 422.28 2.60594C420.76 1.9326 418.932 2.15761 417.275 2.24334C416.195 2.39825 415.125 2.58651 414.084 2.9232Z" fill="#E0F2F6"/>
<path d="M425.922 12.5642C426.943 16.7622 424.367 20.9929 420.169 22.0138C415.971 23.0347 411.741 20.4592 410.72 16.2612C409.699 12.0633 412.274 7.83255 416.472 6.81165C420.67 5.79075 424.901 8.36626 425.922 12.5642Z" fill="white"/>
<path d="M416.474 6.80879C412.276 7.82969 409.698 12.0651 410.719 16.263C410.993 17.392 411.502 18.3981 412.178 19.2541C412.029 18.8907 411.903 18.505 411.808 18.1114C410.787 13.9135 413.358 9.689 417.556 8.6681C420.626 7.92164 423.712 9.09636 425.549 11.4237C424.101 7.91573 420.275 5.88432 416.474 6.80879Z" fill="white"/>
</g>
<g opacity="0.3">
<path d="M426.843 251.953C424.038 251.702 421.078 252.405 418.952 254.297C417.322 255.547 415.671 256.891 414.941 258.881C413.485 262.349 413.213 266.465 414.663 269.945C416.017 271.663 417.125 273.632 418.86 274.984C422.335 277.372 427.003 277.921 430.969 276.538C433.001 275.368 435.067 274.04 436.637 272.279C439.327 268.246 439.813 262.738 437.649 258.368C436.6 257.336 435.64 255.914 434.549 254.762C433.397 253.563 431.62 253.08 430.054 252.532C428.996 252.266 427.934 252.035 426.843 251.953Z" fill="#E0F2F6"/>
<path d="M434.149 265.357C433.505 269.629 429.52 272.57 425.248 271.926C420.976 271.282 418.035 267.296 418.679 263.024C419.323 258.752 423.309 255.811 427.581 256.456C431.853 257.1 434.794 261.085 434.149 265.357Z" fill="white"/>
<path d="M427.585 256.454C423.313 255.81 419.323 258.754 418.678 263.026C418.505 264.175 418.596 265.299 418.897 266.347C418.896 265.954 418.926 265.55 418.987 265.149C419.631 260.877 423.611 257.941 427.883 258.585C431.006 259.056 433.418 261.312 434.237 264.161C434.225 260.366 431.453 257.038 427.585 256.454Z" fill="white"/>
</g>
<path d="M318.81 187.46C316.895 197.701 305.05 204.788 292.354 203.29C279.657 201.792 270.917 192.276 272.832 182.035C274.746 171.794 286.592 164.707 299.288 166.205C311.985 167.703 320.725 177.219 318.81 187.46Z" fill="#E0F2F6"/>
<path d="M312.435 185.993C311.062 193.336 302.569 198.417 293.466 197.343C284.363 196.269 278.096 189.446 279.469 182.103C280.842 174.761 289.335 169.679 298.438 170.753C307.541 171.828 313.808 178.651 312.435 185.993Z" fill="white"/>
<path d="M298.446 170.749C289.343 169.674 280.841 174.762 279.468 182.104C279.099 184.079 279.291 186.009 279.934 187.807C279.932 187.132 279.996 186.437 280.125 185.749C281.498 178.406 289.978 173.332 299.081 174.406C305.737 175.191 310.876 179.047 312.622 183.935C312.597 177.418 306.69 171.721 298.446 170.749Z" fill="white"/>
<path d="M387.23 53.1132C382.16 54.4144 377.589 57.3955 375.429 61.465C373.604 63.9757 372.96 67.0714 373.233 69.9545C373.653 74.8398 376.649 79.6415 381.743 82.1019C384.387 83.4814 387.331 84.5434 390.546 84.6433C396.757 84.9619 403.292 82.8339 407.416 78.8226C409.683 76.2827 411.681 73.4184 412.009 70.2178C412.757 65.4175 410.825 60.4164 406.885 56.9814C404.709 55.2345 401.969 53.8786 399.144 52.9836C395.305 52.0831 391.103 52.0363 387.23 53.1132Z" fill="#E0F2F6"/>
<path d="M405.634 65.1695C407.253 71.1297 402.694 77.1862 395.452 78.6972C388.21 80.2082 381.028 76.6015 379.409 70.6414C377.791 64.6813 382.349 58.6247 389.591 57.1137C396.833 55.6027 404.016 59.2094 405.634 65.1695Z" fill="white"/>
<path d="M389.598 57.1104C382.356 58.6214 377.792 64.6846 379.411 70.6447C379.846 72.2477 380.688 73.6725 381.821 74.8812C381.576 74.3661 381.373 73.819 381.222 73.2602C379.603 67.3001 384.155 61.2525 391.397 59.7414C396.692 58.6366 401.954 60.2657 405.034 63.5523C402.661 58.5801 396.156 55.7421 389.598 57.1104Z" fill="white"/>
<path d="M167.007 57.635C90.0711 -20.7035 14.0644 61.9713 12.5307 110.488C10.997 159.006 97.2356 210.281 152.705 166.037C208.175 121.792 167.007 57.635 167.007 57.635Z" fill="#1D5A6A"/>
<path d="M170.957 62.2883C106.618 22.2753 74.5377 37.0419 50.8405 65.0394C27.1435 93.0368 25.0814 100.672 33.5083 117.31C41.9352 133.947 64.2319 187.055 113.428 181.27C162.624 175.485 173.461 122.272 172.451 99.8341C171.44 77.3958 170.957 62.2883 170.957 62.2883Z" fill="#9CD7E3"/>
<path d="M207.802 68.3789C188.463 45.5963 160.497 31.0521 131.218 36.8726C121.386 37.3471 100.606 43.1435 103.763 51.4863C90.8304 56.1155 80.0376 55.9503 69.932 63.1309C59.6895 66.3253 44.2399 74.8746 35.3037 81.8638C-1.45717 110.615 -4.42721 162.187 18.6739 184.93C21.4057 187.619 26.4859 197.028 29.3027 199.485C32.8917 208.681 35.7262 215.804 42.4954 223.779C77.8029 265.375 143.63 270.018 189.525 234.122C216.128 213.316 230.191 183.465 230.44 153.943C241.782 128.682 236.171 100.922 207.802 68.3789Z" fill="#1D5A6A"/>
<path d="M196.364 77.6886C196.364 77.6886 173.541 50.8015 150.629 50.6548C127.721 50.5052 116.846 55.5798 116.846 55.5798C129.178 52.65 166.077 77.4376 154.279 76.2019C145.612 75.2942 127.87 60.7177 105.225 58.6416C82.6 37.0266 10.0305 87.8476 18.4721 154.378C22.9468 182.937 67.387 203.198 87.2114 210.898C88.1804 211.984 89.6484 213.621 89.6484 213.621C81.6615 219.868 48.3524 206.361 48.3524 206.361C48.3524 206.361 69.8966 257.471 146.565 237.082C223.233 216.693 219.323 159.534 199.573 136.266C183.306 117.102 176.393 111.188 174.427 109.675C189.457 112.142 208.252 128.07 221.557 143.162C226.779 134.776 213.337 98.81 206.754 91.0541C200.171 83.2982 182.579 92.7606 182.579 92.7606L196.364 77.6886Z" fill="url(#paint0_radial_799_911)"/>
<path d="M58.3258 67.1253C35.304 85.8751 14.0569 119.578 18.4724 154.377C22.947 182.937 67.3872 203.198 87.2117 210.897C88.1806 211.984 89.6487 213.621 89.6487 213.621C87.2447 215.501 82.5333 215.577 77.1399 214.785C98.8639 222.136 118.27 223.787 124.056 222.844C132.394 221.484 107.904 221.722 68.7997 183.481C30.7683 146.289 25.4078 106.324 58.3258 67.1253Z" fill="white"/>
<path d="M174.054 226.611C169.835 228.136 165.573 229.679 160.027 231.71C133.163 241.55 92.8735 247.094 71.9011 213.802C60.512 211.277 48.3518 206.362 48.3518 206.362C48.3518 206.362 69.896 257.472 146.564 237.083C157.239 234.244 166.329 230.685 174.054 226.611Z" fill="#9CD7E3"/>
<path d="M196.364 77.6894C196.364 77.6894 173.526 50.7989 150.615 50.6514C127.706 50.5019 116.838 55.5769 116.838 55.5769C125.526 53.5129 146.389 65.2166 153.845 71.875C149.519 66.1404 144.728 60.4494 144.728 60.4494C144.728 60.4494 159.892 64.9146 174.726 75.681C189.56 86.4473 169.263 97.1756 171.589 98.7977C173.915 100.42 194.509 91.1742 204.779 105.51C215.049 119.846 215.018 127.624 211.112 126.377C209.265 125.787 210.805 129.654 211.343 132.52C214.971 135.985 218.408 139.611 221.547 143.171C226.769 134.785 213.337 98.8111 206.754 91.0552C200.171 83.2993 182.579 92.7617 182.579 92.7617L196.364 77.6894ZM156.553 75.5539C156.457 76.1077 155.754 76.3572 154.279 76.2027C153.658 76.1376 152.921 75.9864 152.125 75.8175C156.122 77.4281 157.918 77.6212 156.553 75.5539ZM199.574 136.267C188.865 123.652 182.265 116.845 178.406 113.189C156.334 106.149 137.36 110.052 130.425 112.926C123.403 115.837 113.303 126.318 113.303 126.318C113.303 126.318 162.229 111.275 193.39 159.17C221.315 202.09 155.632 232.561 127.403 240.929C133.373 240.16 139.747 238.896 146.565 237.083C223.233 216.695 219.323 159.535 199.574 136.267Z" fill="white"/>
<path d="M115.617 83.2012C50.3586 94.666 65.7212 146.314 82.487 172.776C99.2528 199.238 112.77 208.453 130.544 201.435C148.317 194.416 174.078 181.151 174.121 173.374C174.165 165.597 175.92 156.482 173.067 158.713C170.215 160.944 153.539 186.031 117.728 179.626C81.9165 173.222 75.6829 136.802 81.7381 114.86C87.7933 92.9179 118.426 88.7472 120.4 85.4821C122.375 82.2169 115.617 83.2012 115.617 83.2012Z" fill="white"/>
<path opacity="0.646018" d="M98.6541 195.074C125.622 224.473 160.998 210.797 177.538 197.861C194.077 184.925 196.528 169.625 192.681 171.418C188.833 173.211 178.623 179.371 169.5 182.856C160.377 186.341 143.62 206.139 125.435 202.111C107.25 198.084 98.6541 195.074 98.6541 195.074Z" fill="#9CD7E3"/>
<path d="M78.0547 164.198C91.4872 233.702 159.948 202.526 172.103 184.416C184.259 166.306 173.463 155.823 172.234 161.085C171.005 166.348 158.806 192.235 128.437 194.479C98.0683 196.723 89.7289 175.715 83.5405 165.07C77.3521 154.424 78.0547 164.198 78.0547 164.198Z" fill="#1D5A6A"/>
<path d="M117.175 83.2524C87.3532 85.2847 73.2345 104.236 71.2179 113.721C69.2012 123.207 62.0326 120.297 65.3837 111.593C68.7347 102.888 76.0886 88.6198 92.5043 81.8642C108.92 75.1086 119.254 78.5848 123.878 81.66C128.502 84.7353 117.175 83.2524 117.175 83.2524Z" fill="#9CD7E3"/>
</g>
<defs>
<radialGradient id="paint0_radial_799_911" cx="0" cy="0" r="1" gradientTransform="matrix(-168.034 131.423 -162.392 -191.307 122.42 141.542)" gradientUnits="userSpaceOnUse">
<stop stop-color="#EAF6F9"/>
<stop offset="1" stop-color="#CAE9F0"/>
</radialGradient>
<clipPath id="clip0_799_911">
<rect width="441" height="281" fill="white"/>
</clipPath>
</defs>
</svg>
