<svg width="391" height="281" viewBox="0 0 391 281" fill="none" xmlns="http://www.w3.org/2000/svg">
<g clip-path="url(#clip0_799_873)">
<path opacity="0.6" d="M118.752 36.1689C184.649 27.9319 243.338 31.0208 242.308 48.5245C241.279 66.0284 227.894 72.2062 236.131 78.384C244.368 84.5618 330.857 107.214 310.265 128.836C289.672 150.459 255.694 157.666 260.842 163.844C265.99 170.022 323.65 207.089 291.731 223.563C259.812 240.037 236.131 239.008 226.864 245.186C217.597 251.363 155.819 248.275 136.256 246.215C116.693 244.156 73.4477 171.052 80.6551 142.222C87.8626 113.392 118.752 36.1689 118.752 36.1689Z" fill="white"/>
<path d="M259.581 129.43C259.96 147.071 245.966 161.678 228.325 162.056C210.685 162.435 196.077 148.441 195.699 130.8C195.32 113.16 209.314 98.5526 226.955 98.1741C244.596 97.7956 259.203 111.789 259.581 129.43Z" fill="#E0F2F6"/>
<path d="M250.517 128.419C250.788 141.067 240.755 151.54 228.107 151.811C215.459 152.083 204.985 142.049 204.714 129.401C204.443 116.753 214.476 106.28 227.124 106.009C239.772 105.737 250.245 115.771 250.517 128.419Z" fill="white"/>
<path d="M227.133 106.001C214.485 106.272 204.441 116.757 204.712 129.405C204.785 132.806 205.607 136.005 206.999 138.878C206.801 137.745 206.686 136.563 206.661 135.377C206.389 122.729 216.408 112.271 229.056 112C238.304 111.802 246.387 117.107 250.172 124.921C248.246 113.977 238.587 105.755 227.133 106.001Z" fill="white"/>
<g opacity="0.6">
<path d="M368.953 1.29981C364.689 2.5859 360.881 5.59053 359.132 9.72556C357.636 12.2727 357.151 15.4265 357.437 18.3709C357.885 23.3598 360.51 28.2845 364.865 30.8371C367.127 32.2667 369.637 33.3747 372.358 33.5031C377.617 33.8793 383.103 31.7615 386.513 27.7019C388.383 25.1287 390.017 22.2221 390.234 18.9587C390.774 14.0662 389.045 8.94672 385.648 5.409C383.775 3.60834 381.432 2.2022 379.025 1.26556C375.761 0.315076 372.207 0.23274 368.953 1.29981Z" fill="#E0F2F6"/>
<path d="M384.746 13.7547C386.229 19.8503 382.489 25.9934 376.393 27.4757C370.298 28.9581 364.155 25.2184 362.672 19.1229C361.19 13.0274 364.93 6.88423 371.025 5.40186C377.121 3.91948 383.264 7.6592 384.746 13.7547Z" fill="white"/>
<path d="M371.031 5.39858C364.935 6.88096 361.191 13.0308 362.674 19.1264C363.072 20.7657 363.812 22.2267 364.793 23.4695C364.576 22.9418 364.394 22.3818 364.255 21.8103C362.773 15.7148 366.507 9.58073 372.602 8.09835C377.059 7.01448 381.54 8.7202 384.208 12.0995C382.106 7.00589 376.55 4.05622 371.031 5.39858Z" fill="white"/>
</g>
<g opacity="0.6">
<path d="M372.574 245.88C368.141 245.456 363.479 246.795 360.294 249.961C357.946 251.752 356.303 254.487 355.453 257.321C353.979 262.108 354.545 267.66 357.609 271.671C359.161 273.851 361.065 275.826 363.535 276.976C368.26 279.314 374.139 279.431 378.833 276.965C381.537 275.291 384.15 273.219 385.586 270.281C387.939 265.957 388.277 260.564 386.471 256.003C385.419 253.628 383.783 251.439 381.91 249.661C379.249 247.546 375.991 246.124 372.574 245.88Z" fill="#E0F2F6"/>
<path d="M382.478 263.387C381.543 269.59 375.756 273.86 369.553 272.925C363.35 271.989 359.079 266.202 360.015 259.999C360.951 253.796 366.738 249.526 372.941 250.462C379.144 251.397 383.414 257.184 382.478 263.387Z" fill="white"/>
<path d="M372.946 250.458C366.743 249.523 360.95 253.798 360.014 260.001C359.763 261.669 359.894 263.301 360.332 264.823C360.331 264.252 360.374 263.665 360.462 263.084C361.397 256.881 367.176 252.617 373.379 253.552C377.914 254.236 381.416 257.512 382.606 261.649C382.589 256.139 378.563 251.306 372.946 250.458Z" fill="white"/>
</g>
<path d="M287.915 185.202C285.65 197.316 271.638 205.7 256.619 203.928C241.599 202.156 231.26 190.899 233.525 178.784C235.791 166.67 249.802 158.286 264.822 160.058C279.841 161.831 290.18 173.088 287.915 185.202Z" fill="#E0F2F6"/>
<path d="M280.374 183.465C278.75 192.151 268.703 198.162 257.935 196.891C247.166 195.621 239.753 187.549 241.378 178.864C243.002 170.178 253.048 164.167 263.817 165.437C274.585 166.708 281.998 174.779 280.374 183.465Z" fill="white"/>
<path d="M263.826 165.435C253.058 164.164 243 170.182 241.376 178.867C240.939 181.203 241.167 183.486 241.927 185.613C241.925 184.815 242.001 183.993 242.153 183.179C243.777 174.493 253.809 168.491 264.577 169.761C272.451 170.69 278.53 175.251 280.595 181.034C280.566 173.323 273.578 166.585 263.826 165.435Z" fill="white"/>
<path d="M362.847 69.245C365.61 79.4189 357.828 89.7573 345.466 92.3366C333.104 94.9159 320.843 88.7593 318.081 78.5854C315.318 68.4116 323.099 58.0731 335.461 55.4939C347.823 52.9146 360.084 59.0712 362.847 69.245Z" fill="#E0F2F6"/>
<path d="M356.324 69.8703C358.305 77.1648 352.726 84.5773 343.862 86.4266C334.999 88.2759 326.208 83.8617 324.227 76.5672C322.246 69.2727 327.826 61.8602 336.689 60.0109C345.552 58.1616 354.343 62.5758 356.324 69.8703Z" fill="white"/>
<path d="M336.695 60.0054C327.832 61.8547 322.246 69.2753 324.227 76.5698C324.76 78.5316 325.791 80.2754 327.178 81.7548C326.878 81.1243 326.629 80.4547 326.444 79.7709C324.463 72.4764 330.034 65.0748 338.897 63.2255C345.378 61.8733 351.818 63.8671 355.587 67.8896C352.683 61.8041 344.721 58.3307 336.695 60.0054Z" fill="white"/>
<path d="M213.405 143.365C242.78 37.5675 133.179 13.0812 90.3947 36.0115C47.6108 58.9418 46.3243 159.264 112.376 185.181C178.427 211.097 213.405 143.365 213.405 143.365Z" fill="#1D5A6A"/>
<path d="M211.35 149.114C213.833 73.3879 185.005 52.9889 148.91 46.4654C112.815 39.9418 105.172 41.9735 94.9765 57.5903C84.7812 73.2071 49.9369 119.07 79.5448 158.783C109.153 198.495 160.655 181.275 179.582 169.18C198.509 157.086 211.35 149.114 211.35 149.114Z" fill="#9CD7E3"/>
<path d="M224.499 184.068C234.56 155.929 233.172 124.437 213.493 101.991C208.166 93.7137 192.755 78.6155 187.109 85.5213C176.634 76.636 171.38 67.2065 160.109 62.0451C152.221 54.7721 137.093 45.667 126.572 41.4226C83.2919 23.9624 37.1445 47.1761 28.9993 78.5537C28.0362 82.2641 22.4274 91.3684 21.7083 95.0362C15.5389 102.742 10.7878 108.758 7.26588 118.608C-11.1039 169.984 17.7887 229.312 71.8229 251.111C103.143 263.747 136.026 261.001 161.717 246.456C189.265 243.647 210.501 224.908 224.499 184.068Z" fill="#1D5A6A"/>
<path d="M210.717 178.817C210.717 178.817 222.591 145.609 211.262 125.693C199.937 105.779 190.105 98.8985 190.105 98.8985C198.809 108.113 195.791 152.462 190.962 141.627C187.415 133.668 191.168 111.014 181.643 90.3648C189.05 59.9636 108.753 22.5271 55.3569 63.1028C32.8608 81.2578 37.5343 129.875 40.7788 150.893C40.3221 152.275 39.6386 154.365 39.6386 154.365C30.2353 150.572 25.2781 114.972 25.2781 114.972C25.2781 114.972 -8.21212 159.184 47.779 215.386C103.77 271.588 151.317 239.623 161.592 210.885C170.056 187.216 171.721 178.271 172.048 175.813C177.427 190.062 173.03 214.303 166.613 233.371C176.486 233.701 200.912 204.077 204.338 194.498C207.763 184.919 190.772 174.415 190.772 174.415L210.717 178.817Z" fill="url(#paint0_radial_799_873)"/>
<path d="M150.845 53.992C123.097 43.4294 83.2855 41.8803 55.356 63.104C32.8599 81.259 37.5333 129.876 40.7778 150.894C40.3212 152.277 39.6377 154.366 39.6377 154.366C36.8074 153.224 34.3859 149.182 32.3752 144.115C36.8708 166.605 45.1441 184.236 48.8539 188.775C54.2004 195.317 41.7495 174.227 55.3153 121.24C68.5089 69.7083 100.439 45.0833 150.845 53.992Z" fill="white"/>
<path d="M70.5919 233.958C67.1615 231.067 63.6941 228.147 59.162 224.36C37.2091 206.015 12.2625 173.895 30.6083 139.087C27.1005 127.961 25.2766 114.973 25.2766 114.973C25.2766 114.973 -8.2137 159.185 47.7774 215.387C55.5736 223.213 63.201 229.305 70.5919 233.958Z" fill="#9CD7E3"/>
<path d="M210.716 178.817C210.716 178.817 222.585 145.593 211.257 125.678C199.932 105.763 190.103 98.8888 190.103 98.8888C196.234 105.381 196.53 129.301 194.492 139.087C197.295 132.473 199.828 125.479 199.828 125.479C199.828 125.479 203.543 140.843 201.636 159.073C199.729 177.303 180.29 165.09 180.048 167.915C179.807 170.741 198.11 183.952 190.83 200.015C183.55 216.077 176.799 219.939 175.925 215.933C175.512 214.038 172.934 217.305 170.721 219.204C169.534 224.079 168.112 228.868 166.598 233.366C176.472 233.696 200.911 204.077 204.336 194.498C207.761 184.918 190.771 174.415 190.771 174.415L210.716 178.817ZM192.66 143.271C192.132 143.465 191.565 142.981 190.961 141.627C190.707 141.056 190.469 140.342 190.218 139.569C190.821 143.835 191.552 145.487 192.66 143.271ZM161.591 210.885C167.162 195.304 169.756 186.184 170.993 181.014C166.054 158.379 153.187 143.898 147.23 139.33C141.199 134.705 127.072 131.198 127.072 131.198C127.072 131.198 164.562 166.048 138.665 216.982C115.457 262.625 56.2272 220.977 34.8662 200.714C38.5167 205.5 42.7979 210.388 47.7773 215.386C103.768 271.588 151.315 239.623 161.591 210.885Z" fill="white"/>
<path d="M165.569 111.645C123.011 60.8619 85.9635 99.9905 71.4297 127.741C56.8959 155.492 55.674 171.805 70.6389 183.689C85.6038 195.572 109.972 211.248 116.729 207.398C123.486 203.547 132.257 200.509 128.899 199.154C125.541 197.799 95.4772 195.901 83.1176 161.686C70.7581 127.47 99.1819 103.862 121.212 98.1344C143.242 92.4073 162.17 116.85 165.985 116.928C169.8 117.005 165.569 111.645 165.569 111.645Z" fill="white"/>
<path opacity="0.646018" d="M60.2061 152.891C48.2294 190.946 77.7615 214.744 97.234 222.6C116.707 230.456 131.183 224.928 127.706 222.492C124.23 220.056 113.79 214.294 106.21 208.136C98.6297 201.978 73.1066 197.365 67.5018 179.603C61.897 161.84 60.2061 152.891 60.2061 152.891Z" fill="#9CD7E3"/>
<path d="M76.6421 119.613C23.1661 165.997 84.3957 209.698 106.157 211.17C127.919 212.642 131.599 198.05 126.428 199.618C121.256 201.185 92.7375 203.564 75.6095 178.386C58.4815 153.207 72.5052 135.481 78.6303 124.799C84.7556 114.117 76.6421 119.613 76.6421 119.613Z" fill="#1D5A6A"/>
<path d="M166.303 113.02C149.632 88.2097 126.161 85.458 116.938 88.4543C107.715 91.4507 106.651 83.7875 115.864 82.3374C125.078 80.8874 141.112 80.1219 155.17 90.9605C169.229 101.799 171.385 112.486 171.034 118.029C170.683 123.571 166.303 113.02 166.303 113.02Z" fill="#9CD7E3"/>
</g>
<defs>
<radialGradient id="paint0_radial_799_873" cx="0" cy="0" r="1" gradientTransform="matrix(-197.833 -79.8108 84.4802 -236.289 118.447 146.707)" gradientUnits="userSpaceOnUse">
<stop stop-color="#EAF6F9"/>
<stop offset="1" stop-color="#CAE9F0"/>
</radialGradient>
<clipPath id="clip0_799_873">
<rect width="390" height="281" fill="white" transform="translate(0.117188)"/>
</clipPath>
</defs>
</svg>
