<svg width="474" height="288" viewBox="0 0 474 288" fill="none" xmlns="http://www.w3.org/2000/svg">
<g clip-path="url(#clip0_799_1058)">
<g opacity="0.3">
<path d="M463.683 127.445C461.677 127.609 459.677 128.465 458.411 130.056C457.415 131.135 456.415 132.282 456.144 133.773C455.541 136.392 455.85 139.324 457.294 141.598C458.457 142.644 459.478 143.896 460.864 144.636C463.602 145.895 466.956 145.714 469.581 144.257C470.869 143.186 472.163 141.999 473.054 140.568C474.458 137.4 474.129 133.462 472.073 130.647C471.209 130.048 470.36 129.164 469.451 128.485C468.494 127.781 467.184 127.657 466.014 127.462C465.237 127.404 464.461 127.37 463.683 127.445Z" fill="#E0F2F6"/>
<path d="M470.459 135.996C470.525 139.083 468.077 141.639 464.99 141.706C461.903 141.772 459.346 139.323 459.28 136.236C459.214 133.149 461.663 130.593 464.75 130.527C467.837 130.46 470.393 132.909 470.459 135.996Z" fill="white"/>
<path d="M464.752 130.525C461.665 130.591 459.214 133.15 459.28 136.237C459.298 137.067 459.498 137.848 459.838 138.549C459.79 138.272 459.762 137.984 459.756 137.695C459.689 134.608 462.135 132.055 465.222 131.989C467.479 131.94 469.452 133.235 470.376 135.142C469.905 132.471 467.548 130.465 464.752 130.525Z" fill="white"/>
</g>
<path d="M324.528 5.12774C319.093 6.76709 314.239 10.597 312.009 15.8679C310.103 19.1147 309.484 23.1348 309.849 26.8879C310.42 33.2472 313.766 39.5246 319.317 42.7784C322.201 44.6007 325.4 46.013 328.869 46.1767C335.571 46.6563 342.564 43.9568 346.912 38.7821C349.295 35.502 351.378 31.797 351.654 27.6372C352.343 21.4008 350.14 14.8751 345.809 10.3656C343.421 8.07038 340.435 6.278 337.367 5.08408C333.207 3.87251 328.676 3.76755 324.528 5.12774Z" fill="#E0F2F6"/>
<path d="M344.66 21.0052C346.55 28.7751 341.783 36.6056 334.013 38.4952C326.243 40.3847 318.412 35.6178 316.523 27.8479C314.633 20.078 319.4 12.2475 327.17 10.3579C334.94 8.46839 342.771 13.2353 344.66 21.0052Z" fill="white"/>
<path d="M327.177 10.3524C319.407 12.2419 314.635 20.0811 316.525 27.8509C317.033 29.9406 317.975 31.8028 319.226 33.387C318.95 32.7144 318.717 32.0005 318.54 31.2722C316.651 23.5023 321.411 15.6833 329.181 13.7937C334.862 12.4121 340.574 14.5864 343.974 18.8939C341.295 12.4012 334.213 8.64127 327.177 10.3524Z" fill="white"/>
<path d="M320.289 245.489C314.639 244.949 308.696 246.656 304.636 250.69C301.643 252.974 299.549 256.461 298.465 260.072C296.586 266.174 297.307 273.252 301.213 278.365C303.192 281.143 305.618 283.661 308.767 285.126C314.789 288.107 322.284 288.256 328.267 285.112C331.714 282.978 335.045 280.338 336.875 276.592C339.874 271.081 340.305 264.207 338.003 258.393C336.662 255.365 334.577 252.575 332.19 250.309C328.797 247.613 324.644 245.8 320.289 245.489Z" fill="#E0F2F6"/>
<path d="M332.914 267.805C331.721 275.712 324.345 281.155 316.438 279.963C308.531 278.77 303.088 271.394 304.28 263.487C305.473 255.58 312.849 250.137 320.756 251.329C328.663 252.522 334.106 259.898 332.914 267.805Z" fill="white"/>
<path d="M320.763 251.326C312.856 250.134 305.472 255.583 304.279 263.49C303.958 265.616 304.126 267.697 304.684 269.637C304.682 268.909 304.738 268.161 304.85 267.419C306.042 259.513 313.408 254.078 321.315 255.27C327.096 256.142 331.56 260.317 333.076 265.591C333.055 258.567 327.923 252.406 320.763 251.326Z" fill="white"/>
<path opacity="0.6" d="M122.271 41.8988C188.168 33.6615 236.412 37.1195 225.433 50.7906C190.912 93.7769 412.448 80.8853 403.914 106.434C393.308 138.181 268.48 109.855 247.887 131.477C227.294 153.1 360.754 159.277 360.367 179.892C359.966 201.309 262.302 196.344 230.383 212.819C198.464 229.293 349.821 228.763 318.932 249.356C309.665 255.534 160.066 265.653 121.573 258.498C102.233 254.902 76.9667 176.781 84.1742 147.951C91.3816 119.122 122.271 41.8988 122.271 41.8988Z" fill="white"/>
<path d="M249.368 186.194C246.892 199.432 231.581 208.594 215.168 206.657C198.755 204.721 187.456 192.419 189.932 179.181C192.407 165.943 207.719 156.781 224.132 158.717C240.545 160.654 251.843 172.956 249.368 186.194Z" fill="#CCEAF0"/>
<path d="M241.125 184.296C239.351 193.788 228.372 200.357 216.605 198.968C204.837 197.58 196.736 188.76 198.511 179.268C200.286 169.777 211.264 163.208 223.032 164.596C234.8 165.985 242.9 174.805 241.125 184.296Z" fill="white"/>
<path d="M223.044 164.592C211.277 163.203 200.286 169.779 198.511 179.271C198.034 181.823 198.283 184.318 199.114 186.642C199.112 185.77 199.194 184.872 199.36 183.982C201.135 174.49 212.098 167.931 223.865 169.319C232.469 170.335 239.113 175.319 241.369 181.638C241.337 173.212 233.7 165.849 223.044 164.592Z" fill="white"/>
<path d="M309.965 80.8026C313.233 92.8376 304.028 105.067 289.405 108.118C274.781 111.169 260.278 103.887 257.009 91.8517C253.741 79.8168 262.946 67.5871 277.57 64.536C292.193 61.4849 306.697 68.7677 309.965 80.8026Z" fill="#E0F2F6"/>
<path d="M302.248 81.5437C304.591 90.1726 297.991 98.941 287.507 101.129C277.022 103.316 266.623 98.0946 264.28 89.4657C261.937 80.8369 268.537 72.0684 279.021 69.8808C289.506 67.6932 299.905 72.9149 302.248 81.5437Z" fill="white"/>
<path d="M279.029 69.873C268.544 72.0606 261.937 80.8387 264.28 89.4675C264.91 91.7882 266.13 93.851 267.77 95.601C267.415 94.8552 267.122 94.0631 266.902 93.2542C264.559 84.6253 271.149 75.8698 281.633 73.6822C289.299 72.0827 296.918 74.4411 301.377 79.1994C297.941 72.0008 288.523 67.892 279.029 69.873Z" fill="white"/>
<path d="M167.781 230.623C274.092 203.164 240.497 96.0024 199.247 70.4157C157.997 44.8289 70.4715 93.876 81.0532 164.036C91.6349 234.197 167.781 230.623 167.781 230.623Z" fill="#1D5A6A"/>
<path d="M161.775 231.718C228.596 196.005 231.848 160.84 219.45 126.319C207.052 91.7976 201.471 86.1943 182.849 85.1733C164.227 84.1524 107.086 76.908 87.4978 122.405C67.9097 167.903 108.575 203.895 128.512 214.239C148.449 224.583 161.775 231.718 161.775 231.718Z" fill="#9CD7E3"/>
<path d="M138.078 260.581C167.478 255.225 194.057 238.277 203.655 210.011C208.16 201.259 213.531 180.365 204.727 178.928C207.184 165.413 212.724 156.149 211.558 143.807C213.913 133.339 214.234 115.685 212.649 104.451C206.13 58.2399 162.953 29.8819 131.706 38.5167C128.011 39.5378 117.322 39.2326 113.786 40.4437C104.028 38.954 96.4425 37.8474 86.1513 39.7222C32.474 49.5012 -4.45996 104.187 3.67883 161.882C8.39637 195.324 27.2158 222.428 52.6578 237.405C68.864 259.858 95.71 268.879 138.078 260.581Z" fill="#1D5A6A"/>
<path d="M135.735 246.021C135.735 246.021 170.43 239.7 182.014 219.931C193.597 200.166 194.64 188.211 194.64 188.211C191.011 200.356 151.095 219.917 158.065 210.318C163.184 203.266 184.679 195.189 197.799 176.616C227.831 167.83 220.103 79.572 158.266 53.6178C131.295 43.2131 91.5281 71.5688 74.9482 84.8877C73.5226 85.1835 71.371 85.6364 71.371 85.6364C69.9547 75.5962 98.3066 53.5031 98.3066 53.5031C98.3066 53.5031 43.2721 46.6061 22.5952 123.197C1.91832 199.788 53.3745 224.982 83.3998 219.512C108.13 215.006 116.708 211.976 119.002 211.03C109.351 222.813 86.1589 231.126 66.4366 235.102C71.088 243.818 108.956 250.16 118.965 248.336C128.973 246.513 129.574 226.547 129.574 226.547L135.735 246.021Z" fill="url(#paint0_radial_799_1058)"/>
<path d="M213.9 131.757C209.173 102.445 190.61 67.193 158.264 53.6172C131.294 43.2125 91.5269 71.5683 74.947 84.8872C73.5214 85.1829 71.3698 85.6359 71.3698 85.6359C70.9435 82.6139 73.2335 78.4957 76.6162 74.2209C59.3877 89.3589 48.2547 105.34 46.1789 110.822C43.1872 118.723 55.2263 97.3949 107.896 82.6502C159.121 68.3101 196.413 83.6503 213.9 131.757Z" fill="white"/>
<path d="M17.9185 152.238C18.7072 147.822 19.5023 143.359 20.516 137.541C25.4265 109.356 40.7699 71.6921 80.0881 70.1756C87.9693 61.5749 98.3057 53.5011 98.3057 53.5011C98.3057 53.5011 43.2712 46.6041 22.5943 123.195C19.7152 133.859 18.2532 143.511 17.9185 152.238Z" fill="#9CD7E3"/>
<path d="M135.733 246.02C135.733 246.02 170.44 239.687 182.023 219.919C193.607 200.154 194.646 188.205 194.646 188.205C192.089 196.761 171.522 208.977 162.028 212.105C169.157 211.225 176.481 209.922 176.481 209.922C176.481 209.922 165.032 220.821 148.291 228.285C131.55 235.748 132.407 212.807 129.84 214.01C127.272 215.214 124.982 237.671 107.432 239.397C89.8815 241.123 83.1612 237.208 86.1938 234.448C87.6283 233.143 83.5095 232.544 80.7585 231.577C75.9434 232.986 71.0851 234.15 66.4328 235.088C71.0841 243.803 108.954 250.158 118.963 248.335C128.971 246.512 129.572 226.546 129.572 226.546L135.733 246.02ZM157.488 212.61C157.056 212.25 157.191 211.517 158.063 210.317C158.43 209.811 158.929 209.248 159.473 208.644C156.08 211.3 155.015 212.759 157.488 212.61ZM83.3979 219.51C99.6776 216.544 108.873 214.231 113.968 212.718C131.102 197.123 137.208 178.739 138.186 171.296C139.176 163.76 135.15 149.772 135.15 149.772C135.15 149.772 123.714 199.665 66.6551 202.704C15.5231 205.427 21.9765 133.309 28.8438 104.678C26.5244 110.233 24.4321 116.384 22.5933 123.195C1.91637 199.786 53.3725 224.98 83.3979 219.51Z" fill="white"/>
<path d="M171.333 173.336C194.033 111.089 141.623 98.5688 110.324 99.8574C79.024 101.146 64.2848 108.245 61.4762 127.146C58.6675 146.048 57.2752 174.99 63.9885 178.916C70.7017 182.842 77.7185 188.92 77.2126 185.334C76.7068 181.748 63.3188 154.763 86.7707 126.952C110.222 99.1402 144.88 111.952 160.855 128.167C176.83 144.382 165.126 172.996 166.966 176.338C168.806 179.681 171.333 173.336 171.333 173.336Z" fill="white"/>
<path opacity="0.646018" d="M82.9309 102.71C43.9859 111.365 38.142 148.84 41.075 169.631C44.0081 190.423 56.0331 200.196 56.4044 195.967C56.7757 191.738 56.5458 179.816 58.0889 170.173C59.6321 160.529 50.8654 136.119 63.4456 122.384C76.0259 108.649 82.9309 102.71 82.9309 102.71Z" fill="#9CD7E3"/>
<path d="M119.968 100.307C53.0598 77.1877 45.8287 152.064 55.4348 171.647C65.041 191.229 79.5177 187.12 75.5746 183.425C71.6314 179.73 55.312 156.222 68.553 128.799C81.794 101.377 104.157 104.659 116.471 104.622C128.784 104.585 119.968 100.307 119.968 100.307Z" fill="#1D5A6A"/>
<path d="M170.509 174.66C183.66 147.818 174.308 126.115 167.101 119.626C159.895 113.136 165.999 108.383 171.862 115.637C177.724 122.892 186.404 136.395 184.047 153.989C181.689 171.583 173.512 178.794 168.537 181.261C163.562 183.728 170.509 174.66 170.509 174.66Z" fill="#9CD7E3"/>
</g>
<defs>
<radialGradient id="paint0_radial_799_1058" cx="0" cy="0" r="1" gradientTransform="matrix(-29.7981 -211.233 246.873 -44.9826 117.407 150.057)" gradientUnits="userSpaceOnUse">
<stop stop-color="#EAF6F9"/>
<stop offset="1" stop-color="#CAE9F0"/>
</radialGradient>
<clipPath id="clip0_799_1058">
<rect width="474" height="288" fill="white"/>
</clipPath>
</defs>
</svg>
