<svg width="525" height="387" viewBox="0 0 525 387" fill="none" xmlns="http://www.w3.org/2000/svg">
<path opacity="0.6" d="M146.874 97.1741C212.771 88.937 261.015 92.3946 250.036 106.066C215.516 149.052 437.052 136.161 428.517 161.71C417.912 193.457 293.083 165.13 272.49 186.753C251.898 208.375 385.357 214.552 384.971 235.167C384.569 256.584 286.905 251.62 254.986 268.094C223.068 284.568 374.425 284.038 343.535 304.631C334.269 310.809 184.669 320.929 146.177 313.773C126.837 310.178 101.57 232.057 108.778 203.227C115.985 174.397 146.874 97.1741 146.874 97.1741Z" fill="white"/>
<path d="M412.159 173.799C407.471 174.155 402.862 176.387 400.118 180.252C397.997 182.538 396.779 185.679 396.405 188.779C395.732 194.025 397.319 199.699 401.227 203.321C403.235 205.309 405.57 207.022 408.346 207.773C413.682 209.357 419.819 208.421 424.259 205.012C426.771 202.784 429.117 200.159 430.083 196.844C431.753 191.923 431.134 186.252 428.436 181.832C426.915 179.55 424.819 177.567 422.551 176.054C419.402 174.332 415.757 173.439 412.159 173.799Z" fill="#E0F2F6"/>
<path d="M425.61 190.232C425.752 196.854 420.5 202.336 413.878 202.478C407.257 202.62 401.774 197.368 401.632 190.747C401.49 184.125 406.743 178.643 413.364 178.501C419.985 178.359 425.468 183.611 425.61 190.232Z" fill="white"/>
<path d="M413.37 178.497C406.749 178.639 401.49 184.127 401.632 190.749C401.671 192.529 402.101 194.204 402.83 195.708C402.726 195.115 402.666 194.496 402.652 193.875C402.51 187.254 407.755 181.779 414.376 181.637C419.218 181.533 423.449 184.311 425.431 188.401C424.422 182.672 419.366 178.368 413.37 178.497Z" fill="white"/>
<path d="M294.482 91.3134C298.298 107.003 288.672 122.814 272.983 126.63C257.293 130.445 241.482 120.82 237.666 105.13C233.851 89.4413 243.476 73.6296 259.166 69.8141C274.855 65.9986 290.667 75.6242 294.482 91.3134Z" fill="#E0F2F6"/>
<path d="M286.181 92.1958C288.917 103.445 282.016 114.781 270.767 117.517C259.518 120.253 248.181 113.351 245.445 102.102C242.71 90.8534 249.611 79.5167 260.86 76.7811C272.109 74.0454 283.446 80.9468 286.181 92.1958Z" fill="white"/>
<path d="M260.868 76.7728C249.619 79.5084 242.71 90.8576 245.446 102.107C246.182 105.132 247.546 107.828 249.357 110.121C248.957 109.148 248.621 108.114 248.364 107.06C245.629 95.8107 252.52 84.4907 263.769 81.755C271.994 79.7548 280.263 82.9026 285.186 89.1389C281.307 79.739 271.055 74.2955 260.868 76.7728Z" fill="white"/>
<path d="M279.016 305.936C276.608 321.902 261.713 332.893 245.747 330.484C229.781 328.076 218.79 313.182 221.198 297.215C223.607 281.25 238.502 270.259 254.468 272.667C270.434 275.075 281.424 289.97 279.016 305.936Z" fill="#E0F2F6"/>
<path d="M271 303.61C269.274 315.058 258.594 322.938 247.147 321.211C235.7 319.485 227.819 308.805 229.546 297.358C231.272 285.911 241.952 278.03 253.399 279.757C264.846 281.484 272.727 292.163 271 303.61Z" fill="white"/>
<path d="M253.409 279.753C241.962 278.026 231.271 285.915 229.544 297.362C229.08 300.441 229.322 303.453 230.13 306.262C230.128 305.209 230.208 304.125 230.37 303.052C232.097 291.604 242.76 283.736 254.208 285.462C262.578 286.725 269.04 292.769 271.235 300.404C271.204 290.236 263.775 281.316 253.409 279.753Z" fill="white"/>
<g opacity="0.6">
<path d="M395.216 243.555C391.046 243.248 386.66 244.28 383.664 246.69C381.455 248.056 379.909 250.136 379.11 252.287C377.723 255.922 378.255 260.13 381.137 263.161C382.598 264.809 384.389 266.3 386.712 267.163C391.157 268.921 396.688 268.99 401.103 267.104C403.647 265.825 406.105 264.246 407.456 262.013C409.669 258.727 409.987 254.636 408.288 251.184C407.299 249.386 405.76 247.733 403.998 246.391C401.495 244.796 398.429 243.729 395.216 243.555Z" fill="#E0F2F6"/>
<path d="M404.532 256.797C403.652 261.503 398.208 264.761 392.373 264.072C386.537 263.383 382.521 259.01 383.401 254.303C384.281 249.597 389.725 246.339 395.56 247.028C401.395 247.716 405.412 252.09 404.532 256.797Z" fill="white"/>
<path d="M395.565 247.027C389.73 246.338 384.28 249.599 383.4 254.306C383.163 255.571 383.287 256.808 383.698 257.961C383.697 257.528 383.738 257.083 383.821 256.642C384.701 251.935 390.137 248.683 395.972 249.371C400.239 249.874 403.533 252.346 404.652 255.479C404.636 251.301 400.849 247.65 395.565 247.027Z" fill="white"/>
</g>
<g opacity="0.3">
<path d="M492.621 125.673C490.519 126.086 488.533 127.103 487.439 128.667C486.552 129.746 485.671 130.885 485.617 132.227C485.389 134.604 486.176 137.132 488.066 138.932C489.463 139.693 490.741 140.653 492.328 141.117C495.43 141.853 498.959 141.246 501.514 139.617C502.713 138.507 503.898 137.294 504.619 135.92C505.611 132.956 504.645 129.548 502.023 127.357C501.013 126.947 499.973 126.286 498.902 125.813C497.777 125.324 496.368 125.39 495.096 125.376C494.263 125.429 493.434 125.503 492.621 125.673Z" fill="#E0F2F6"/>
<path d="M501.15 132.26C501.704 134.957 499.508 137.525 496.244 137.996C492.98 138.467 489.885 136.663 489.33 133.967C488.776 131.27 490.972 128.702 494.236 128.231C497.5 127.76 500.595 129.564 501.15 132.26Z" fill="white"/>
<path d="M494.239 128.229C490.975 128.7 488.776 131.27 489.331 133.967C489.48 134.692 489.815 135.35 490.286 135.919C490.191 135.683 490.116 135.434 490.064 135.181C489.509 132.484 491.702 129.92 494.966 129.449C497.353 129.105 499.649 129.975 500.928 131.523C500.01 129.245 497.194 127.802 494.239 128.229Z" fill="white"/>
</g>
<path d="M50.2217 202.568C20.8466 308.366 130.448 332.852 173.232 309.922C216.016 286.992 217.303 186.669 151.251 160.753C85.1995 134.837 50.2217 202.568 50.2217 202.568Z" fill="#1D5A6A"/>
<path d="M52.2765 196.82C49.7936 272.546 78.622 292.945 114.717 299.468C150.812 305.992 158.455 303.96 168.65 288.343C178.846 272.726 213.69 226.863 184.082 187.151C154.474 147.438 102.972 164.659 84.045 176.753C65.1181 188.848 52.2765 196.82 52.2765 196.82Z" fill="#9CD7E3"/>
<path d="M39.128 161.866C29.0667 190.005 30.4545 221.497 50.1345 243.942C55.4614 252.22 70.8715 267.318 76.5178 260.412C86.9932 269.298 92.2465 278.727 103.518 283.888C111.406 291.162 126.534 300.267 137.055 304.511C180.335 321.971 226.482 298.757 234.628 267.38C235.591 263.67 241.2 254.565 241.919 250.897C248.088 243.191 252.839 237.175 256.361 227.325C274.731 175.95 245.838 116.621 191.804 94.8224C160.484 82.187 127.601 84.9329 101.91 99.4778C74.3616 102.286 53.1263 121.025 39.128 161.866Z" fill="#1D5A6A"/>
<path d="M52.9097 167.117C52.9097 167.117 41.0359 200.325 52.3649 220.241C63.6895 240.155 73.5215 247.035 73.5215 247.035C64.8183 237.82 67.8357 193.471 72.6646 204.307C76.2116 212.266 72.4592 234.919 81.9838 255.569C74.5771 285.97 154.874 323.406 208.27 282.831C230.766 264.676 226.093 216.059 222.848 195.041C223.305 193.658 223.988 191.569 223.988 191.569C233.392 195.362 238.349 230.962 238.349 230.962C238.349 230.962 271.839 186.749 215.848 130.547C159.857 74.3452 112.31 106.311 102.035 135.048C93.5713 158.718 91.9063 167.662 91.5788 170.121C86.2001 155.871 90.5967 131.63 97.0144 112.562C87.1409 112.233 62.7146 141.857 59.2894 151.436C55.8642 161.015 72.8547 171.519 72.8547 171.519L52.9097 167.117Z" fill="url(#paint0_radial_796_2137)"/>
<path d="M112.782 291.942C140.53 302.504 180.341 304.053 208.271 282.83C230.767 264.675 226.094 216.058 222.849 195.04C223.306 193.657 223.989 191.567 223.989 191.567C226.82 192.709 229.241 196.751 231.252 201.818C226.756 179.329 218.483 161.697 214.773 157.158C209.427 150.617 221.877 171.707 208.312 224.693C195.118 276.225 163.187 300.85 112.782 291.942Z" fill="white"/>
<path d="M193.035 111.975C196.465 114.866 199.933 117.786 204.465 121.574C226.418 139.918 251.364 172.038 233.019 206.847C236.526 217.973 238.35 230.961 238.35 230.961C238.35 230.961 271.841 186.748 215.85 130.546C208.053 122.721 200.426 116.629 193.035 111.975Z" fill="#9CD7E3"/>
<path d="M52.9109 167.117C52.9109 167.117 41.0422 200.341 52.3701 220.256C63.6948 240.17 73.524 247.045 73.524 247.045C67.3925 240.553 67.0967 216.633 69.135 206.847C66.3319 213.461 63.7985 220.455 63.7985 220.455C63.7985 220.455 60.0839 205.09 61.9909 186.861C63.8978 168.631 83.3369 180.844 83.5786 178.018C83.8203 175.193 65.5167 161.981 72.7969 145.919C80.0771 129.857 86.8283 125.995 87.7016 130.001C88.1146 131.896 90.6929 128.628 92.9062 126.73C94.0933 121.855 95.5146 117.066 97.0285 112.568C87.155 112.238 62.7163 141.857 59.2911 151.436C55.8659 161.015 72.8564 171.519 72.8564 171.519L52.9109 167.117ZM70.9673 202.662C71.4949 202.469 72.0622 202.952 72.6658 204.307C72.9203 204.878 73.1577 205.591 73.4093 206.365C72.8057 202.098 72.0748 200.446 70.9673 202.662ZM102.036 135.048C96.465 150.63 93.8707 159.75 92.6335 164.919C97.5726 187.555 110.44 202.035 116.397 206.603C122.428 211.229 136.555 214.736 136.555 214.736C136.555 214.736 99.0648 179.886 124.962 128.952C148.17 83.3087 207.4 124.957 228.761 145.219C225.11 140.433 220.829 135.546 215.85 130.548C159.859 74.3454 112.312 106.311 102.036 135.048Z" fill="white"/>
<path d="M98.0562 234.289C140.614 285.072 177.661 245.943 192.195 218.193C206.729 190.442 207.951 174.128 192.986 162.245C178.021 150.362 153.653 134.685 146.896 138.536C140.139 142.387 131.368 145.425 134.726 146.779C138.084 148.134 168.148 150.032 180.507 184.248C192.867 218.464 164.443 242.072 142.413 247.799C120.383 253.526 101.455 229.083 97.6397 229.006C93.8246 228.928 98.0562 234.289 98.0562 234.289Z" fill="white"/>
<path opacity="0.646018" d="M203.421 193.043C215.398 154.988 185.865 131.189 166.393 123.334C146.92 115.478 132.444 121.006 135.921 123.441C139.397 125.877 149.837 131.639 157.417 137.797C164.997 143.956 190.52 148.569 196.125 166.331C201.73 184.093 203.421 193.043 203.421 193.043Z" fill="#9CD7E3"/>
<path d="M186.985 226.321C240.461 179.936 179.231 136.235 157.47 134.764C135.708 133.292 132.028 147.883 137.199 146.316C142.371 144.749 170.889 142.37 188.017 167.548C205.145 192.726 191.122 210.452 184.997 221.134C178.871 231.817 186.985 226.321 186.985 226.321Z" fill="#1D5A6A"/>
<path d="M97.3236 232.914C113.994 257.724 137.466 260.476 146.689 257.479C155.912 254.483 156.976 262.146 147.762 263.596C138.549 265.046 122.515 265.812 108.457 254.973C94.3983 244.135 92.2419 233.447 92.593 227.905C92.9444 222.363 97.3236 232.914 97.3236 232.914Z" fill="#9CD7E3"/>
<defs>
<radialGradient id="paint0_radial_796_2137" cx="0" cy="0" r="1" gradientTransform="matrix(197.833 79.8108 -84.4802 236.289 145.18 199.227)" gradientUnits="userSpaceOnUse">
<stop stop-color="#EAF6F9"/>
<stop offset="1" stop-color="#CAE9F0"/>
</radialGradient>
</defs>
</svg>
