<svg width="442" height="286" viewBox="0 0 442 286" fill="none" xmlns="http://www.w3.org/2000/svg">
<g clip-path="url(#clip0_799_1021)">
<path opacity="0.6" d="M116.873 40.4932C182.77 32.2561 241.459 35.345 240.43 52.8488C239.4 70.3527 218.734 75.8024 226.971 81.9802C235.208 88.158 399.601 107.898 386.289 133.889C372.677 160.465 243.169 159.402 242.946 174.721C242.59 199.107 347.981 212.869 316.063 229.344C284.144 245.818 244.845 242.989 224.985 249.51C201.512 257.217 153.94 252.599 134.377 250.539C114.814 248.48 71.5688 175.376 78.7762 146.546C85.9837 117.716 116.873 40.4932 116.873 40.4932Z" fill="white"/>
<g opacity="0.6">
<path d="M427.184 121.11C423.577 121.385 420.03 123.102 417.919 126.076C416.287 127.835 415.351 130.251 415.062 132.637C414.544 136.673 415.765 141.039 418.773 143.826C420.317 145.356 422.114 146.674 424.251 147.252C428.356 148.47 433.078 147.75 436.494 145.127C438.427 143.413 440.233 141.393 440.975 138.842C442.26 135.056 441.785 130.692 439.709 127.291C438.538 125.535 436.925 124.01 435.18 122.846C432.757 121.521 429.953 120.833 427.184 121.11Z" fill="#E0F2F6"/>
<path d="M437.534 133.755C437.644 138.849 433.602 143.068 428.507 143.177C423.413 143.287 419.194 139.245 419.085 134.151C418.975 129.056 423.017 124.837 428.112 124.728C433.206 124.619 437.425 128.66 437.534 133.755Z" fill="white"/>
<path d="M428.116 124.724C423.021 124.833 418.975 129.056 419.085 134.151C419.114 135.521 419.445 136.81 420.006 137.967C419.926 137.511 419.88 137.035 419.869 136.557C419.76 131.462 423.796 127.25 428.89 127.141C432.616 127.061 435.872 129.198 437.396 132.345C436.62 127.937 432.73 124.625 428.116 124.724Z" fill="white"/>
</g>
<path d="M307.855 23.9966C311.08 37.2597 302.943 50.6262 289.68 53.8516C276.417 57.0771 263.05 48.9401 259.825 35.677C256.599 22.4139 264.736 9.04736 277.999 5.8219C291.262 2.59644 304.629 10.7335 307.855 23.9966Z" fill="#E0F2F6"/>
<path d="M300.837 24.7421C303.149 34.2515 297.315 43.8351 287.806 46.1477C278.296 48.4603 268.713 42.6262 266.4 33.1167C264.088 23.6073 269.922 14.0237 279.431 11.7111C288.941 9.39852 298.524 15.2327 300.837 24.7421Z" fill="white"/>
<path d="M279.44 11.7051C269.93 14.0177 264.09 23.6119 266.402 33.1213C267.024 35.6788 268.178 37.9579 269.709 39.8968C269.37 39.0736 269.086 38.1999 268.869 37.3085C266.557 27.7991 272.382 18.2295 281.892 15.9169C288.845 14.226 295.835 16.8871 299.997 22.159C296.718 14.2126 288.051 9.61098 279.44 11.7051Z" fill="white"/>
<path d="M293.654 261.783C291.618 275.28 279.027 284.571 265.53 282.535C252.033 280.5 242.741 267.908 244.777 254.411C246.813 240.914 259.404 231.623 272.901 233.659C286.398 235.694 295.69 248.286 293.654 261.783Z" fill="#E0F2F6"/>
<path d="M286.876 259.817C285.416 269.494 276.388 276.156 266.711 274.696C257.034 273.237 250.372 264.209 251.832 254.532C253.291 244.855 262.319 238.193 271.997 239.652C281.674 241.112 288.335 250.14 286.876 259.817Z" fill="white"/>
<path d="M272.007 239.648C262.33 238.188 253.292 244.857 251.833 254.535C251.44 257.137 251.645 259.683 252.328 262.057C252.326 261.167 252.394 260.251 252.531 259.344C253.99 249.667 263.005 243.015 272.682 244.475C279.758 245.542 285.221 250.651 287.077 257.106C287.05 248.51 280.77 240.97 272.007 239.648Z" fill="white"/>
<g opacity="0.3">
<path d="M403.658 194.194C401.019 194.013 398.235 194.556 396.235 195.998C394.702 196.951 393.148 197.975 392.462 199.487C391.092 202.122 390.836 205.243 392.2 207.877C393.474 209.176 394.516 210.665 396.148 211.684C399.417 213.483 403.808 213.884 407.539 212.821C409.45 211.928 411.394 210.914 412.871 209.573C415.402 206.506 415.859 202.328 413.823 199.022C412.837 198.243 411.934 197.168 410.906 196.298C409.823 195.393 408.152 195.032 406.679 194.622C405.683 194.424 404.684 194.253 403.658 194.194Z" fill="#E0F2F6"/>
<path d="M410.53 204.334C409.924 207.576 406.174 209.819 402.156 209.345C398.137 208.871 395.371 205.859 395.977 202.617C396.583 199.376 400.332 197.132 404.351 197.607C408.369 198.081 411.136 201.093 410.53 204.334Z" fill="white"/>
<path d="M404.356 197.605C400.338 197.131 396.584 199.377 395.978 202.618C395.815 203.49 395.9 204.342 396.184 205.135C396.183 204.838 396.211 204.531 396.268 204.227C396.874 200.985 400.618 198.746 404.637 199.22C407.575 199.566 409.844 201.269 410.614 203.426C410.603 200.549 407.995 198.034 404.356 197.605Z" fill="white"/>
</g>
<path d="M257.369 93.2349C260.94 106.387 250.881 119.751 234.901 123.085C218.921 126.419 203.071 118.461 199.5 105.309C195.928 92.1575 205.988 78.7932 221.968 75.459C237.948 72.1248 253.797 80.0833 257.369 93.2349Z" fill="#E0F2F6"/>
<path d="M248.936 94.0435C251.497 103.473 244.284 113.055 232.827 115.446C221.37 117.836 210.006 112.13 207.445 102.7C204.884 93.2711 212.097 83.689 223.554 81.2985C235.011 78.9079 246.375 84.6141 248.936 94.0435Z" fill="white"/>
<path d="M223.562 81.2924C212.105 83.683 204.885 93.2755 207.445 102.705C208.134 105.241 209.467 107.495 211.259 109.408C210.872 108.593 210.551 107.727 210.31 106.843C207.75 97.4135 214.951 87.8456 226.409 85.455C234.786 83.7071 243.111 86.2844 247.984 91.4842C244.23 83.6176 233.938 79.1277 223.562 81.2924Z" fill="white"/>
<path d="M69.0691 229.941C146.005 308.28 222.012 225.605 223.546 177.088C225.079 128.571 138.841 77.2952 83.3707 121.539C27.9009 165.784 69.0691 229.941 69.0691 229.941Z" fill="#1D5A6A"/>
<path d="M65.1194 225.288C129.458 265.301 161.539 250.534 185.236 222.537C208.933 194.539 210.995 186.904 202.568 170.267C194.141 153.629 171.844 100.521 122.648 106.306C73.4523 112.091 62.615 165.304 63.6254 187.742C64.6358 210.18 65.1194 225.288 65.1194 225.288Z" fill="#9CD7E3"/>
<path d="M28.2745 219.197C47.6127 241.98 75.5796 256.524 104.858 250.704C114.69 250.229 135.471 244.433 132.313 236.09C145.246 231.461 156.039 231.626 166.144 224.445C176.387 221.251 191.836 212.702 200.772 205.712C237.533 176.961 240.503 125.389 217.402 102.647C214.67 99.9573 209.59 90.5478 206.773 88.0912C203.184 78.8953 200.35 71.7726 193.581 63.7977C158.273 22.2012 92.4466 17.5586 46.5512 53.4542C19.9486 74.2606 5.88506 104.111 5.63571 133.633C-5.70602 158.894 -0.0953233 186.654 28.2745 219.197Z" fill="#1D5A6A"/>
<path d="M39.7106 209.888C39.7106 209.888 62.5328 236.775 85.4449 236.921C108.353 237.071 119.228 231.996 119.228 231.996C106.896 234.926 69.9973 210.139 81.7955 211.374C90.4618 212.282 108.204 226.858 130.849 228.935C153.474 250.55 226.044 199.729 217.602 133.199C213.127 104.639 168.687 84.3778 148.863 76.6786C147.894 75.5918 146.426 73.955 146.426 73.955C154.413 67.7083 187.722 81.2152 187.722 81.2152C187.722 81.2152 166.178 30.1054 89.5096 50.4941C12.8416 70.8828 16.7511 128.042 36.5009 151.31C52.7678 170.474 59.6812 176.388 61.6467 177.901C46.6171 175.435 27.822 159.507 14.5174 144.415C9.2953 152.8 22.737 188.766 29.3203 196.522C35.9036 204.278 53.4952 194.816 53.4952 194.816L39.7106 209.888Z" fill="url(#paint0_radial_799_1021)"/>
<path d="M177.75 220.449C200.772 201.699 222.019 167.996 217.604 133.197C213.129 104.637 168.689 84.376 148.864 76.6767C147.896 75.59 146.427 73.9532 146.427 73.9532C148.831 72.073 153.543 71.9971 158.936 72.7891C137.212 65.4379 117.806 63.7868 112.02 64.7302C103.682 66.0897 128.172 65.852 167.276 104.093C205.308 141.285 210.668 181.251 177.75 220.449Z" fill="white"/>
<path d="M62.02 60.9654C66.2391 59.4402 70.5015 57.8973 76.0474 55.866C102.911 46.0265 143.201 40.4822 164.173 73.7745C175.562 76.2995 187.722 81.2141 187.722 81.2141C187.722 81.2141 166.178 30.1043 89.5103 50.493C78.835 53.3319 69.7455 56.8914 62.02 60.9654Z" fill="#9CD7E3"/>
<path d="M39.7119 209.887C39.7119 209.887 62.5502 236.777 85.4614 236.925C108.37 237.074 119.238 231.999 119.238 231.999C110.55 234.063 89.6869 222.36 82.2309 215.701C86.5574 221.436 91.3477 227.127 91.3477 227.127C91.3477 227.127 76.1845 222.662 61.3505 211.895C46.5165 201.129 66.8128 190.401 64.4867 188.779C62.1607 187.156 41.5671 196.402 31.297 182.066C21.0269 167.73 21.0578 159.952 24.9638 161.199C26.8113 161.789 25.2707 157.922 24.7331 155.056C21.1051 151.591 17.668 147.965 14.5296 144.405C9.30751 152.791 22.7387 188.765 29.322 196.521C35.9053 204.277 53.4968 194.814 53.4968 194.814L39.7119 209.887ZM79.5235 212.022C79.6196 211.468 80.322 211.219 81.7968 211.373C82.4186 211.439 83.1551 211.59 83.951 211.759C79.9541 210.148 78.1579 209.955 79.5235 212.022ZM36.5026 151.309C47.211 163.924 53.8116 170.731 57.67 174.387C79.7426 181.428 98.7166 177.524 105.651 174.65C112.673 171.739 122.773 161.258 122.773 161.258C122.773 161.258 73.8473 176.301 42.6859 128.406C14.7613 85.486 80.4446 55.0154 108.673 46.6475C102.703 47.4161 96.3294 48.6798 89.5113 50.493C12.8433 70.8817 16.7528 128.041 36.5026 151.309Z" fill="white"/>
<path d="M120.458 204.375C185.716 192.91 170.353 141.262 153.587 114.8C136.821 88.338 123.304 79.1228 105.531 86.1413C87.7571 93.1597 61.9965 106.425 61.953 114.202C61.9095 121.979 60.1545 131.094 63.007 128.863C65.8595 126.632 82.535 101.546 118.346 107.95C154.158 114.354 160.391 150.774 154.336 172.716C148.281 194.658 117.649 198.829 115.674 202.094C113.699 205.359 120.458 204.375 120.458 204.375Z" fill="white"/>
<path opacity="0.646018" d="M137.42 92.5044C110.452 63.1047 75.0758 76.7811 58.5364 89.7169C41.9968 102.653 39.5457 117.953 43.3936 116.16C47.2415 114.368 57.451 108.208 66.5743 104.722C75.6976 101.237 92.4541 81.4394 110.639 85.4667C128.824 89.494 137.42 92.5044 137.42 92.5044Z" fill="#9CD7E3"/>
<path d="M158.021 123.378C144.589 53.8739 76.1283 85.0499 63.9727 103.16C51.8171 121.27 62.6136 131.753 63.8422 126.491C65.0707 121.228 77.2698 95.3412 107.639 93.0971C138.008 90.8529 146.347 111.861 152.536 122.506C158.724 133.152 158.021 123.378 158.021 123.378Z" fill="#1D5A6A"/>
<path d="M118.899 204.324C148.721 202.291 162.84 183.341 164.856 173.855C166.873 164.369 174.042 167.279 170.691 175.984C167.34 184.688 159.986 198.956 143.57 205.712C127.154 212.468 116.82 208.991 112.196 205.916C107.572 202.841 118.899 204.324 118.899 204.324Z" fill="#9CD7E3"/>
</g>
<defs>
<radialGradient id="paint0_radial_799_1021" cx="0" cy="0" r="1" gradientTransform="matrix(168.034 -131.423 162.392 191.307 113.654 146.034)" gradientUnits="userSpaceOnUse">
<stop stop-color="#EAF6F9"/>
<stop offset="1" stop-color="#CAE9F0"/>
</radialGradient>
<clipPath id="clip0_799_1021">
<rect width="442" height="286" fill="white"/>
</clipPath>
</defs>
</svg>
