<svg width="448" height="254" viewBox="0 0 448 254" fill="none" xmlns="http://www.w3.org/2000/svg">
<g clip-path="url(#clip0_799_948)">
<path opacity="0.6" d="M123.873 20.4935C189.77 12.2564 317.436 24.6637 316.407 42.1675C315.377 59.6714 203.487 44.9033 223.05 63.4368C230.525 70.5181 454.649 92.5163 434.057 114.139C413.464 135.761 242.555 152.186 241.386 166.775C239.081 195.531 334.596 203.063 304.133 214.44C270.484 227.008 218.682 221.148 177.38 224.414C166.277 225.292 160.94 232.599 141.377 230.54C121.814 228.481 78.5688 155.376 85.7762 126.546C92.9837 97.7165 123.873 20.4935 123.873 20.4935Z" fill="#F9F9F9"/>
<path d="M360.335 114.938C360.628 128.585 349.803 139.884 336.156 140.177C322.51 140.47 311.21 129.645 310.917 115.998C310.624 102.352 321.449 91.0517 335.096 90.759C348.742 90.4662 360.043 101.291 360.335 114.938Z" fill="#E0F2F6"/>
<path d="M353.322 114.155C353.532 123.939 345.77 132.041 335.986 132.251C326.202 132.461 318.1 124.7 317.89 114.915C317.68 105.131 325.442 97.0291 335.226 96.8191C345.01 96.6092 353.112 104.371 353.322 114.155Z" fill="white"/>
<path d="M335.235 96.8131C325.45 97.023 317.68 105.134 317.89 114.918C317.946 117.55 318.582 120.024 319.659 122.247C319.506 121.37 319.417 120.456 319.397 119.538C319.187 109.754 326.937 101.664 336.722 101.454C343.876 101.301 350.129 105.405 353.057 111.45C351.567 102.984 344.095 96.623 335.235 96.8131Z" fill="white"/>
<path d="M219.098 30.8352C223.267 47.9802 212.749 65.2588 195.604 69.4283C178.459 73.5978 161.18 63.0793 157.01 45.9342C152.841 28.7893 163.36 11.5106 180.505 7.34109C197.65 3.17159 214.928 13.6902 219.098 30.8352Z" fill="#E0F2F6"/>
<path d="M210.026 31.7992C213.016 44.0919 205.474 56.4804 193.181 59.4699C180.889 62.4593 168.5 54.9177 165.511 42.625C162.521 30.3324 170.063 17.9438 182.355 14.9543C194.648 11.9649 207.037 19.5066 210.026 31.7992Z" fill="white"/>
<path d="M182.366 14.9458C170.074 17.9352 162.524 30.3375 165.513 42.6301C166.317 45.9361 167.808 48.8823 169.787 51.3887C169.35 50.3245 168.983 49.1951 168.702 48.0428C165.713 35.7501 173.243 23.3798 185.536 20.3903C194.524 18.2045 203.561 21.6444 208.94 28.4593C204.702 18.1872 193.498 12.2387 182.366 14.9458Z" fill="white"/>
<path d="M211.521 218.951C208.89 236.398 192.613 248.408 175.165 245.777C157.718 243.146 145.707 226.869 148.339 209.421C150.97 191.974 167.247 179.963 184.695 182.595C202.142 185.226 214.153 201.503 211.521 218.951Z" fill="#E0F2F6"/>
<path d="M202.76 216.409C200.873 228.918 189.202 237.529 176.693 235.643C164.184 233.756 155.572 222.086 157.459 209.576C159.346 197.067 171.016 188.455 183.525 190.342C196.035 192.229 204.646 203.899 202.76 216.409Z" fill="white"/>
<path d="M183.538 190.338C171.029 188.451 159.346 197.072 157.459 209.581C156.952 212.946 157.216 216.237 158.099 219.306C158.097 218.156 158.185 216.971 158.362 215.799C160.248 203.289 171.902 194.69 184.411 196.577C193.558 197.957 200.62 204.561 203.018 212.906C202.984 201.794 194.866 192.046 183.538 190.338Z" fill="white"/>
<path d="M336.333 160.882C331.07 160.043 325.388 160.879 321.323 163.618C318.369 165.115 316.182 167.59 314.935 170.236C312.781 174.703 313.003 180.105 316.338 184.266C318.015 186.516 320.128 188.603 322.987 189.95C328.442 192.662 335.459 193.346 341.271 191.427C344.64 190.077 347.933 188.336 349.889 185.646C353.054 181.71 353.899 176.549 352.114 171.982C351.051 169.592 349.275 167.325 347.182 165.431C344.174 163.135 340.396 161.449 336.333 160.882Z" fill="#E0F2F6"/>
<path d="M346.736 178.705C345.111 184.588 337.845 188.138 330.508 186.635C323.171 185.131 318.541 179.143 320.166 173.259C321.792 167.377 329.057 163.827 336.394 165.33C343.732 166.834 348.362 172.822 346.736 178.705Z" fill="white"/>
<path d="M336.403 165.328C329.066 163.824 321.792 167.378 320.167 173.261C319.73 174.843 319.753 176.428 320.152 177.936C320.197 177.386 320.297 176.825 320.45 176.273C322.075 170.39 329.33 166.846 336.667 168.349C342.032 169.449 345.949 172.943 347.032 177.044C347.463 171.736 343.047 166.69 336.403 165.328Z" fill="white"/>
<g opacity="0.6">
<path d="M432.098 41.4463C428.074 42.268 424.377 44.4255 422.526 47.5298C420.997 49.4258 420.373 51.8263 420.474 54.0959C420.612 57.9402 422.772 61.8194 426.668 63.9459C428.685 65.13 430.951 66.077 433.466 66.2808C438.32 66.7727 443.524 65.3604 446.911 62.3783C448.787 60.4766 450.464 58.3103 450.846 55.8153C451.619 52.0833 450.301 48.0893 447.347 45.2442C445.711 43.7905 443.617 42.6212 441.438 41.8097C438.465 40.9543 435.175 40.7537 432.098 41.4463Z" fill="#E0F2F6"/>
<path d="M446.047 51.6107C447.083 56.3439 443.275 60.9115 437.541 61.8129C431.808 62.7142 426.321 59.608 425.285 54.8748C424.25 50.1417 428.058 45.574 433.791 44.6726C439.524 43.7713 445.012 46.8776 446.047 51.6107Z" fill="white"/>
<path d="M433.796 44.6699C428.063 45.5712 424.251 50.1439 425.286 54.8771C425.565 56.15 426.169 57.2993 427.01 58.2906C426.838 57.8774 426.7 57.4408 426.603 56.9971C425.567 52.2639 429.37 47.703 435.103 46.8016C439.295 46.1426 443.355 47.6244 445.64 50.3198C443.975 46.3312 438.988 43.8537 433.796 44.6699Z" fill="white"/>
</g>
<path d="M73.2463 44.9533C-33.0648 72.4126 0.53032 179.574 41.7805 205.161C83.0307 230.747 170.556 181.7 159.974 111.54C149.392 41.3793 73.2463 44.9533 73.2463 44.9533Z" fill="#1D5A6A"/>
<path d="M79.2527 43.8584C12.431 79.571 9.17917 114.737 21.5771 149.258C33.975 183.779 39.5561 189.382 58.1783 190.403C76.8005 191.424 133.941 198.668 153.53 153.171C173.118 107.673 132.453 71.6815 112.515 61.3374C92.578 50.9933 79.2527 43.8584 79.2527 43.8584Z" fill="#9CD7E3"/>
<path d="M102.949 14.9948C73.5497 20.3508 46.9706 37.2988 37.3722 65.5648C32.867 74.317 27.4966 95.2116 36.3004 96.6485C33.8431 110.163 28.3036 119.427 29.4694 131.769C27.1146 142.237 26.7937 159.891 28.3784 171.125C34.8974 217.336 78.0748 245.694 109.321 237.059C113.016 236.038 123.705 236.344 127.241 235.132C136.999 236.622 144.585 237.729 154.876 235.854C208.553 226.075 245.487 171.389 237.349 113.694C232.631 80.2526 213.812 53.1481 188.37 38.1712C172.163 15.7182 145.317 6.69736 102.949 14.9948Z" fill="#1D5A6A"/>
<path d="M105.295 29.5573C105.295 29.5573 70.5988 35.8784 59.0157 55.6475C47.4319 75.412 46.3894 87.3668 46.3894 87.3668C50.0181 75.2222 89.934 55.6609 82.9648 65.2606C77.8455 72.3119 56.3508 80.389 43.2302 98.9623C13.1986 107.748 20.9262 196.006 82.7637 221.96C109.734 232.365 149.501 204.009 166.081 190.69C167.507 190.395 169.658 189.942 169.658 189.942C171.075 199.982 142.723 222.075 142.723 222.075C142.723 222.075 197.757 228.972 218.434 152.381C239.111 75.7905 187.655 50.5965 157.629 56.0666C132.899 60.5719 124.321 63.6021 122.028 64.5478C131.679 52.765 154.87 44.452 174.593 40.4759C169.941 31.7605 132.073 25.4185 122.065 27.2418C112.056 29.0652 111.455 49.0311 111.455 49.0311L105.295 29.5573Z" fill="url(#paint0_radial_799_948)"/>
<path d="M27.127 143.819C31.8539 173.131 50.4178 208.383 82.7629 221.959C109.734 232.364 149.5 204.008 166.08 190.689C167.506 190.393 169.657 189.94 169.657 189.94C170.084 192.962 167.794 197.08 164.411 201.355C181.64 186.217 192.773 170.236 194.848 164.754C197.84 156.853 185.801 178.181 133.131 192.926C81.9059 207.266 44.6148 191.926 27.127 143.819Z" fill="white"/>
<path d="M223.109 123.338C222.32 127.754 221.525 132.217 220.511 138.036C215.601 166.22 200.257 203.884 160.939 205.401C153.058 214.001 142.722 222.075 142.722 222.075C142.722 222.075 197.756 228.972 218.433 152.381C221.312 141.717 222.774 132.065 223.109 123.338Z" fill="#9CD7E3"/>
<path d="M105.295 29.5562C105.295 29.5562 70.5877 35.8895 59.0044 55.6575C47.4206 75.422 46.3817 87.3717 46.3817 87.3717C48.9382 78.8156 69.5054 66.5995 78.9998 63.4716C71.8702 64.3511 64.5465 65.6541 64.5465 65.6541C64.5465 65.6541 75.9951 54.7551 92.7361 47.2917C109.477 39.8281 108.62 62.7694 111.188 61.566C113.755 60.3626 116.045 37.9053 133.596 36.1791C151.146 34.4529 157.866 38.3685 154.834 41.1279C153.399 42.4329 157.518 43.0321 160.269 43.9995C165.084 42.5903 169.942 41.4264 174.595 40.4885C169.943 31.7731 132.073 25.4179 122.065 27.2413C112.056 29.0646 111.455 49.0305 111.455 49.0305L105.295 29.5562ZM83.5395 62.9664C83.9711 63.3264 83.8359 64.0595 82.9648 65.2595C82.5975 65.7654 82.0982 66.3277 81.554 66.9325C84.9474 64.2764 86.0126 62.8173 83.5395 62.9664ZM157.629 56.066C141.35 59.0318 132.155 61.3448 127.059 62.8582C109.926 78.4534 103.819 96.837 102.841 104.28C101.851 111.816 105.878 125.804 105.878 125.804C105.878 125.804 117.313 75.9113 174.372 72.8722C225.504 70.1488 219.051 142.268 212.184 170.898C214.503 165.344 216.595 159.192 218.434 152.381C239.111 75.7899 187.655 50.5959 157.629 56.066Z" fill="white"/>
<path d="M69.6944 102.24C46.9941 164.488 99.4042 177.007 130.704 175.719C162.003 174.43 176.743 167.331 179.551 148.43C182.36 129.528 183.752 100.586 177.039 96.6603C170.326 92.7342 163.309 86.6566 163.815 90.2424C164.321 93.8282 177.709 120.813 154.257 148.624C130.805 176.436 96.1475 163.624 80.1725 147.409C64.1975 131.194 75.9018 102.58 74.0615 99.2378C72.2212 95.8951 69.6944 102.24 69.6944 102.24Z" fill="white"/>
<path opacity="0.646018" d="M158.096 172.867C197.041 164.211 202.885 126.736 199.952 105.945C197.019 85.1533 184.994 75.3804 184.623 79.6092C184.252 83.838 184.482 95.7597 182.938 105.403C181.395 115.047 190.162 139.457 177.582 153.192C165.001 166.927 158.096 172.867 158.096 172.867Z" fill="#9CD7E3"/>
<path d="M121.059 175.269C187.968 198.388 195.199 123.512 185.593 103.93C175.986 84.3474 161.51 88.456 165.453 92.1512C169.396 95.8463 185.715 119.355 172.474 146.777C159.233 174.2 136.87 170.918 124.557 170.954C112.243 170.991 121.059 175.269 121.059 175.269Z" fill="#1D5A6A"/>
<path d="M70.5181 100.916C57.3672 127.759 66.7198 149.461 73.9263 155.95C81.1328 162.44 75.0282 167.193 69.1657 159.939C63.303 152.684 54.6232 139.182 56.9805 121.587C59.3378 103.993 67.5152 96.7819 72.4904 94.315C77.4656 91.8482 70.5181 100.916 70.5181 100.916Z" fill="#9CD7E3"/>
</g>
<defs>
<radialGradient id="paint0_radial_799_948" cx="0" cy="0" r="1" gradientTransform="matrix(29.7981 211.233 -246.873 44.9826 123.622 125.521)" gradientUnits="userSpaceOnUse">
<stop stop-color="#EAF6F9"/>
<stop offset="1" stop-color="#CAE9F0"/>
</radialGradient>
<clipPath id="clip0_799_948">
<rect width="447" height="254" fill="white" transform="translate(0.660156)"/>
</clipPath>
</defs>
</svg>
