<svg width="118" height="49" viewBox="0 0 118 49" fill="none" xmlns="http://www.w3.org/2000/svg">
<path d="M117.7 48.8741H0C0.4 48.6741 0.799988 48.4742 1.29999 48.2742L3.89999 47.3741C6.19999 46.5741 8.19999 45.3742 9.79999 43.7742C12.6 40.9742 14.2 37.1741 14.2 33.1741C14.2 32.8741 14.4 32.6741 14.7 32.6741H15.9C18.6 32.6741 21 31.5741 22.7 29.8741L22.8 29.9741C23.3 29.4741 23.7 28.9741 24 28.4741C25 26.9741 25.6 25.0741 25.6 23.1741V21.9741C25.6 21.6741 25.8 21.4741 26.1 21.4741C30.2 21.4741 34 19.8741 36.7 17.0741C38.3 15.4741 39.6 13.4741 40.3 11.1741L41.1 8.57414C42 5.97414 44 3.97414 46.6 3.07414L55.4 0.17412C57.4 -0.52588 59.4 0.974145 59.4 3.07414C59.4 5.07414 60.2 6.77414 61.5 8.07414C62.8 9.37414 64.5 10.1741 66.5 10.1741H77.5C80.4 10.1741 83.2 11.3741 85.3 13.3741L88.6 16.6741C90.6 18.6741 91.7 21.1741 91.8 23.8741C91.9 25.1741 91.7 26.5741 91.3 27.8741L90.3 30.9741L89.1 34.6741C88.3 36.9741 88.9 39.5742 90.7 41.2742C91.6 42.1742 92.6 42.7741 93.8 42.9741C94.9 43.2741 96.2 43.1742 97.3 42.7742L106.7 39.6741C109 38.8741 111.6 39.4742 113.3 41.2742L115.1 42.9741C115.8 43.6741 116.4 44.5741 116.7 45.4741L117.7 48.8741Z" fill="#2E934A"/>
<path d="M98.5996 46.0746C98.5996 46.0746 87.3996 44.3747 85.4996 40.7747L84.1996 22.9746C83.9996 19.7746 82.2996 16.7746 79.6996 14.9746C77.8996 13.6746 75.6996 12.9746 73.4996 12.9746C72.6996 12.9746 71.9996 13.0746 71.2996 13.1746L67.9996 13.8746C67.3996 13.9746 66.7996 14.1746 66.1996 14.3746C63.9996 15.0746 57.8996 16.8747 55.3996 16.2747C52.2996 15.5747 48.5996 16.2747 47.0996 16.2747C46.2996 16.2747 42.9996 19.1746 39.9996 21.8746C36.7996 24.7746 34.2996 28.4746 32.9996 32.6746L32.5996 33.9746L35.8996 29.9746L42.3996 25.0746C43.0996 24.5746 43.7996 24.0746 44.4996 23.6746L44.9996 23.3746C47.9996 21.6746 51.2996 20.6746 54.7996 20.5746L63.9996 20.2747C65.2996 20.2747 66.5996 19.9746 67.7996 19.3746C69.1996 18.6746 70.6996 18.2747 72.0996 18.2747C74.4996 18.2747 76.7996 19.1746 78.5996 20.9746C79.4996 21.8746 80.0996 23.0746 80.1996 24.3746L81.7996 41.1746C82.0996 44.1746 84.3996 46.4746 87.2996 46.8746C87.7996 46.9746 88.1996 46.9746 88.6996 46.8746L98.5996 46.0746Z" fill="#61AA6A"/>
<path d="M91.8996 23.9756C91.9996 25.2756 91.7996 26.6756 91.3996 27.9756L90.3996 31.0757C89.2996 30.2757 88.2996 29.0757 87.5996 27.6757L85.9996 24.3757C84.2996 20.9757 80.8996 19.1757 77.4996 19.1757C75.0996 19.1757 72.6996 20.0756 70.7996 21.9756C68.8996 23.7756 66.4996 24.7757 64.0996 24.7757C61.6996 24.7757 59.2996 23.8756 57.3996 21.9756C52.7996 17.3756 45.0996 18.6756 42.1996 24.4756L40.5996 27.7757C38.7996 31.2757 35.4996 32.9756 32.0996 32.9756C28.9996 32.9756 25.9996 31.4757 24.0996 28.5757C25.0996 27.0757 25.6996 25.1757 25.6996 23.2757V22.0757C25.6996 21.7757 25.8996 21.5757 26.1996 21.5757C30.2996 21.5757 34.0996 19.9757 36.7996 17.1757C38.3996 15.5757 39.6996 13.5757 40.3996 11.2757L41.1996 8.67565C42.0996 6.07565 44.0996 4.07565 46.6996 3.17565L55.4996 0.275687C57.4996 -0.424313 59.4996 1.07565 59.4996 3.17565C59.4996 5.17565 60.2996 6.87565 61.5996 8.17565C62.8996 9.47565 64.5996 10.2757 66.5996 10.2757H77.5996C80.4996 10.2757 83.2996 11.4756 85.3996 13.4756L88.6996 16.7757C90.6996 18.6757 91.7996 21.2756 91.8996 23.9756Z" fill="#D7F2F4"/>
<path d="M91.8996 23.9753C90.0996 23.1753 88.4996 21.6753 87.4996 19.6753L85.8996 16.3753C84.1996 12.9753 80.7996 11.1753 77.3996 11.1753C74.9996 11.1753 72.5996 12.0753 70.6996 13.9753C68.7996 15.7753 66.3996 16.7753 63.9996 16.7753C61.5996 16.7753 59.1996 15.8753 57.2996 13.9753C52.6996 9.37527 44.9996 10.6753 42.0996 16.4753L40.4996 19.7753C38.6996 23.2753 35.3996 24.9753 31.9996 24.9753C29.6996 24.9753 27.3996 24.1753 25.5996 22.5753V22.1753C25.5996 21.8753 25.7996 21.6753 26.0996 21.6753C30.1996 21.6753 33.9996 20.0753 36.6996 17.2753C38.2996 15.6753 39.5996 13.6753 40.2996 11.3753L41.0996 8.77532C41.9996 6.17532 43.9996 4.17532 46.5996 3.27532L55.3996 0.375292C57.3996 -0.324708 59.3996 1.17532 59.3996 3.27532C59.3996 5.27532 60.1996 6.97532 61.4996 8.27532C62.7996 9.57532 64.4996 10.3753 66.4996 10.3753H77.4996C80.3996 10.3753 83.1996 11.5753 85.2996 13.5753L88.5996 16.8753C90.6996 18.6753 91.7996 21.2753 91.8996 23.9753Z" fill="#F5F7F9"/>
</svg>
