<svg width="99" height="69" viewBox="0 0 99 69" fill="none" xmlns="http://www.w3.org/2000/svg">
<path d="M95.3997 39.9909C95.4997 43.1909 94.7997 46.2909 93.2997 49.2909L89.1996 57.3909C85.7996 64.1909 78.8997 68.3909 71.3997 68.3909H19.9996C14.6996 68.3909 9.59966 66.2909 5.89966 62.5909C2.09966 58.7909 0.0996094 53.6909 0.0996094 48.4909C0.0996094 45.4909 0.799585 42.3909 2.19958 39.5909L8.49963 26.9909L8.79968 26.3909C9.69968 24.6909 10.6996 23.0909 11.9996 21.7909C12.4996 21.1909 13.0996 20.6909 13.6996 20.1909C14.8996 19.1909 16.2996 18.2909 17.6996 17.4909L43.7997 4.49089L46.8997 2.89091C53.5997 -0.409089 61.3997 0.290887 67.2997 4.49089C68.1997 5.09089 69.0997 5.8909 69.8997 6.6909L89.5996 26.3909C90.3996 27.1909 91.0997 28.0909 91.7997 28.9909C92.5997 30.1909 93.2997 31.3909 93.8997 32.6909C94.7997 34.8909 95.3997 37.4909 95.3997 39.9909Z" fill="#838E8D"/>
<path d="M12.1992 68.4894L17.7993 64.0894C19.4993 62.6894 21.5992 61.8894 23.6992 61.5894L29.2993 60.8894C31.5993 60.5894 33.9992 60.9894 36.0992 62.0894L38.0992 63.0894C39.8992 63.9894 41.4992 65.3894 42.5992 66.9894L43.5992 68.4894H12.1992Z" fill="#ADB7B8"/>
<path d="M20.9004 68.4908L32.1003 67.1908C33.1003 67.0908 34.0003 66.4908 34.6003 65.6908C35.6003 64.1908 37.7004 63.6908 39.3004 64.5908L40.6003 65.2908C41.0003 65.4908 41.4003 65.8908 41.7003 66.2908L43.3004 68.3908H20.9004V68.4908Z" fill="#838E8D"/>
<path d="M63.7997 62.4906L64.6996 61.2906C66.2996 60.1906 67.9997 59.2906 69.7997 58.5906L82.0997 53.8906C84.6997 52.8906 87.4997 52.3906 90.2997 52.3906C93.3997 52.3906 96.1997 54.1906 97.3997 57.0906L98.4997 59.4906C98.9997 60.6906 98.7997 62.0906 97.9997 63.1906L93.6996 68.4906H72.3997L65.5997 66.6906C63.5997 66.4906 62.5997 64.1906 63.7997 62.4906Z" fill="#ADB7B8"/>
<path d="M68.3995 66.2911H76.1995C77.1995 66.2911 78.1995 66.1912 79.1995 65.9912C81.6995 65.4912 86.4995 64.4911 86.8995 64.5911C87.1995 64.6911 88.7995 63.9911 90.1995 63.2911C91.6995 62.5911 92.9995 61.7912 94.3995 60.8912L96.4995 59.3912C96.7995 59.1912 97.1996 59.2911 97.2996 59.5911C97.5996 60.2911 97.5995 61.1912 97.0995 61.8912L92.6995 68.4912H73.3995L68.2996 66.6912C68.0996 66.5912 68.0995 66.2911 68.3995 66.2911Z" fill="#838E8D"/>
<path d="M89.5991 26.29L69.8991 6.59002C63.7991 0.490017 54.5991 -1.00993 46.8991 2.89007L17.6991 17.49C15.4991 18.59 13.5991 19.99 11.9991 21.79C11.1991 23.49 10.3992 25.29 9.79917 26.59C9.39917 27.29 9.09914 27.89 8.89914 28.59L7.79917 31.99C5.29917 39.29 9.79914 42.0901 17.3991 43.6901L35.1991 47.3901L51.7992 50.09C52.7992 50.29 53.6991 50.2901 54.6991 50.1901L79.8991 48.59C80.7991 48.49 81.6991 48.39 82.5991 48.09C88.0991 46.49 91.9991 46.4901 91.9991 40.6901V37.29V34.6901V28.79C91.0991 27.99 90.3991 27.09 89.5991 26.29Z" fill="#ADB7B8"/>
<path d="M88.6993 42.1906L62.1993 43.8906C55.9993 44.2906 49.7993 43.8906 43.6993 42.5906L30.4993 39.8906C21.8993 38.1906 16.2994 29.8906 17.7994 21.2906L18.0993 19.3906L18.1993 22.1906C18.4993 29.4906 23.6994 35.5906 30.7994 37.1906L44.1993 40.1906C49.2993 41.3906 54.4993 41.8906 59.6993 41.8906H88.6993V42.1906Z" fill="#FBECD5"/>
<path opacity="0.37" d="M91.7008 28.8901V32.19L59.4009 27.29C59.0009 27.19 58.7009 27.19 58.3009 26.99L35.4009 18.8901C32.7009 17.8901 31.1008 15.09 31.6008 12.29L32.0008 10.3901L46.9009 2.99004C54.6009 -0.809965 63.8009 0.690047 69.9009 6.69005L89.6008 26.3901C90.4008 27.0901 91.1008 27.9901 91.7008 28.8901Z" fill="#F9F9F9"/>
<path d="M95.4004 39.9899C94.2004 40.4899 93.0003 40.6899 91.7003 40.6899C88.3003 40.6899 85.0003 38.9899 83.2003 35.4899L81.6003 32.1899C79.9003 28.7899 76.5003 26.9899 73.1003 26.9899C70.7003 26.9899 68.3004 27.8899 66.4004 29.7899C64.6004 31.6899 62.1003 32.5898 59.7003 32.5898C57.3003 32.5898 54.9004 31.6899 53.0004 29.7899C48.4004 25.1899 40.7004 26.4899 37.8004 32.2899L36.2003 35.5898C34.4003 39.0898 31.1003 40.7899 27.7003 40.7899C24.3003 40.7899 21.0003 39.0898 19.2003 35.5898L17.6003 32.2899C15.9003 28.8899 12.5003 27.0898 9.10034 27.0898C8.90034 27.0898 8.70039 27.0898 8.40039 27.0898L8.70032 26.4899C9.60032 24.7899 10.6004 23.1899 11.9004 21.8899C12.4004 21.2899 13.0003 20.7899 13.6003 20.2899C14.8003 19.2899 16.2003 18.3898 17.6003 17.5898L43.7003 4.58984H67.3004C68.2004 5.18984 69.1004 5.98986 69.9004 6.78986L89.6003 26.4899C90.4003 27.2899 91.1004 28.1898 91.8004 29.0898C92.6004 30.2898 93.3004 31.4899 93.9004 32.7899C94.8004 34.8899 95.4004 37.4899 95.4004 39.9899Z" fill="#D7F2F4"/>
<path d="M93.7993 32.4909C93.0993 32.6909 92.3992 32.6909 91.6992 32.6909C88.2992 32.6909 84.9992 30.9909 83.1992 27.4909L81.5992 24.1909C79.8992 20.7909 76.4992 18.9909 73.0992 18.9909C70.6992 18.9909 68.2993 19.8909 66.3993 21.7909C64.5993 23.6909 62.0992 24.5909 59.6992 24.5909C57.2992 24.5909 54.8993 23.6909 52.9993 21.7909C48.3993 17.1909 40.6993 18.4909 37.7993 24.2909L36.1992 27.5909C34.3992 31.0909 31.0992 32.7909 27.6992 32.7909C24.2992 32.7909 20.9992 31.0909 19.1992 27.5909L17.5992 24.2909C16.6992 22.4909 15.2992 21.0909 13.6992 20.1909C14.8992 19.1909 16.2992 18.2909 17.6992 17.4909L43.7993 4.49089L46.8993 2.89091C53.5993 -0.409089 61.3993 0.290887 67.2993 4.49089C68.1993 5.09089 69.0993 5.8909 69.8993 6.6909L89.5992 26.3909C90.3992 27.1909 91.0993 28.0909 91.7993 28.9909C92.5993 29.9909 93.1993 31.2909 93.7993 32.4909Z" fill="#F5F7F9"/>
</svg>
