<svg width="87" height="57" viewBox="0 0 87 57" fill="none" xmlns="http://www.w3.org/2000/svg">
<path d="M64.8053 32.6737C65.0053 31.0737 65.5052 29.3737 66.2052 27.5737C68.9052 20.8737 74.6052 18.1737 74.2052 17.5737C73.7052 16.8737 66.3052 19.9737 59.5052 26.4737C60.0052 24.0737 60.7053 21.4737 61.8053 18.7737C66.8053 6.37371 77.4053 1.37367 76.6053 0.173674C75.6053 -1.22633 59.3052 5.87367 45.7052 20.1737C45.3052 20.5737 44.9053 20.9737 44.6053 21.3737C44.0053 20.1737 43.5053 18.8737 43.1053 17.2737C41.8053 11.5737 44.3052 7.17372 43.7052 6.97372C43.1052 6.77372 39.8052 11.8737 38.2052 18.9737C27.5052 10.9737 18.1052 7.27369 17.3052 8.37369C16.5052 9.57369 26.7052 14.4737 32.3052 26.3737C15.3052 20.8737 0.305256 21.2737 0.00525639 22.8737C-0.294744 24.3737 12.3052 24.6737 22.8052 34.6737C23.8052 35.6737 24.7053 36.5737 25.6053 37.5737C15.8053 38.5737 8.60524 41.5737 8.80524 42.5737C9.00524 43.5737 16.6053 40.8737 25.1053 44.4737C25.4053 44.5737 25.7053 44.7737 26.0053 44.8737C31.3053 48.2737 34.0053 53.5737 34.9053 55.2737C35.1053 55.6737 35.2052 55.8737 35.2052 55.8737H51.2052C51.2052 55.8737 51.8052 53.5737 53.2052 50.7737C55.4052 50.0737 57.9052 49.5737 60.7052 49.5737C69.9052 49.2737 76.1053 54.5737 76.6053 53.7737C77.1053 52.8737 71.1053 47.1737 61.9053 42.5737C62.2053 42.3737 62.6053 42.2737 62.9053 42.0737C75.2053 36.8737 86.2052 40.7737 86.5052 39.3737C86.4052 38.2737 77.4053 34.4737 64.8053 32.6737Z" fill="#F5F7F9"/>
<path d="M27.2048 38.6741C27.0048 37.4741 26.7048 36.2741 26.2048 34.8741C24.2048 29.8741 20.0048 27.8741 20.3048 27.4741C20.7048 26.9741 26.2048 29.2741 31.3048 34.0741C31.0048 32.2741 30.4048 30.3741 29.6048 28.3741C25.9048 19.1741 18.0048 15.4741 18.6048 14.5741C19.4048 13.4741 31.5048 18.7741 41.6048 29.4741C41.9048 29.7741 42.2048 30.0741 42.4048 30.3741C42.8048 29.4741 43.2048 28.4741 43.5048 27.3741C44.5048 23.1741 42.6048 19.8741 43.0048 19.6741C43.5048 19.4741 45.9048 23.2741 47.1048 28.5741C55.0048 22.6741 62.0048 19.8741 62.6048 20.7741C63.2048 21.6741 55.6048 25.3741 51.4048 34.1741C64.1048 30.0741 75.2048 30.3741 75.4048 31.5741C75.6048 32.6741 66.2048 32.8741 58.5048 40.2741C57.8048 40.9741 57.1048 41.6741 56.4048 42.4741C63.7048 43.2741 69.0048 45.4741 68.9048 46.1741C68.8048 46.8741 63.1048 44.8741 56.8048 47.5741C56.6048 47.6741 56.4048 47.7741 56.2048 47.8741C52.3048 50.3741 50.2048 54.2741 49.6048 55.6741C49.5048 55.9741 49.4048 56.1741 49.4048 56.1741H37.5048C37.5048 56.1741 37.1048 54.4741 36.0048 52.3741C34.4048 51.8741 32.5048 51.4741 30.4048 51.4741C23.5048 51.2741 19.0048 55.1741 18.6048 54.5741C18.2048 53.9741 22.7048 49.6741 29.6048 46.2741C29.4048 46.1741 29.1048 46.0741 28.9048 45.9741C19.8048 42.0741 11.6048 44.9741 11.4048 43.9741C11.2048 42.8741 17.8048 39.9741 27.2048 38.6741Z" fill="#2E934A"/>
<path d="M42.4035 54.0734L39.9035 43.8734C38.8035 39.4734 37.0035 35.2734 34.5035 31.5734L27.6035 21.2734L29.3035 22.7734C38.0035 30.3734 42.8035 41.4734 42.5035 52.9734L42.4035 54.0734Z" fill="#D7F2F4"/>
<path d="M42.3043 53.7742L44.3043 44.8742C45.2043 41.1742 46.8043 37.5742 48.9043 34.3742L54.8043 25.5742L53.3043 26.8742C45.9043 33.3742 41.7043 42.7742 42.1043 52.6742L42.3043 53.7742Z" fill="#D7F2F4"/>
<path d="M42.2051 52.9739L45.6051 48.1738C45.7051 47.9738 45.9051 47.7738 46.0051 47.6738C48.7051 44.6738 53.6051 39.9738 57.0051 38.1738L66.8051 33.1738L64.8051 33.5739C54.8051 35.7739 47.1051 41.6739 42.5051 50.7739L42.2051 52.9739Z" fill="#D7F2F4"/>
<path d="M19.5039 42.2737L25.2039 42.7737C29.6039 43.1737 38.5039 47.2736 41.4039 50.5736L42.4039 52.2737L41.3039 49.7737C38.3039 43.9737 30.3039 41.7736 23.7039 42.0736L19.5039 42.2737Z" fill="#D7F2F4"/>
</svg>
