<svg width="96" height="90" viewBox="0 0 96 90" fill="none" xmlns="http://www.w3.org/2000/svg">
<path d="M94.1 59.0905L78.3 38.0905C77.3 36.6905 76 35.7905 74.6 35.2905L72.9 28.6905C72.4 26.5905 71.3 24.6905 69.8 23.1905L50.3 3.6905C45 -1.6095 36.3 -0.709508 32.1 5.49049L26.1 14.5905C24.8 16.4905 24.1 18.7905 24.1 21.0905V36.1905C21.1 36.0905 18 37.2905 15.9 40.0905L2 58.5905C0.7 60.2905 0 62.3905 0 64.4905V79.5905C0 84.9905 4.40005 89.3905 9.80005 89.3905H20.6H28.2H44.9H62.8H67.5H80.4H87.2C91.9 89.3905 95.6 85.5905 95.6 80.9905V64.0905C95.7 62.3905 95.2 60.5905 94.1 59.0905Z" fill="#B2875D"/>
<path d="M69 89.491L72.7 61.491L74.6 35.291L76.5 61.491V80.491L87.3 89.491H69Z" fill="#8E6540"/>
<path d="M43.0004 89.4894L31.7003 64.9894L24.1003 36.1895L25.5004 62.8895L33.6003 85.1895L9.90039 89.4894H43.0004Z" fill="#8E6540"/>
<path d="M55.5 89.4906L72.2 86.3906L73.7 89.4906H55.5Z" fill="#8E6540"/>
<path d="M3 72.9894C5.3 65.3894 9.09995 58.2895 14.2 52.1895L22.5 42.1895L9.90002 62.7894L3 72.9894Z" fill="#FBECD5"/>
<path d="M64.6003 64.9894L64.5004 63.9894L63.8004 55.0894C63.1004 45.6894 58.7003 37.0895 51.6003 30.8895L32.9004 14.6895L48.7003 24.6895C59.8003 31.6895 66.1003 44.2894 65.1003 57.2894L64.6003 64.9894Z" fill="#FBECD5"/>
<path opacity="0.37" d="M24.0996 36.1893L14.5996 63.6893L0.0996094 67.1893V64.4893C0.0996094 62.3893 0.799609 60.2893 2.09961 58.5893L15.9996 40.0893C17.9996 37.2893 21.0996 36.0893 24.0996 36.1893Z" fill="#FBECD5"/>
<path opacity="0.37" d="M74.5992 35.2905L58.4993 31.6905L24.1992 20.0905V36.1905V21.0905C24.1992 18.7905 24.8992 16.4905 26.1992 14.5905L32.1992 5.49049C36.2992 -0.709508 45.0993 -1.6095 50.3993 3.6905L69.8993 23.1905C71.3993 24.6905 72.4993 26.5905 72.9993 28.6905L74.5992 35.2905Z" fill="#FBECD5"/>
<path opacity="0.37" d="M95.5996 62.7906L79.7997 54.1906L75.5996 48.8906L76.4996 36.3906C77.0996 36.8906 77.5996 37.3906 78.0996 38.0906L93.8997 59.0906C94.8997 60.1906 95.3996 61.4906 95.5996 62.7906Z" fill="#FBECD5"/>
<path d="M72.8993 28.6914C71.9993 29.0914 71.1993 29.6914 70.3993 30.4914C68.5993 32.2914 66.0992 33.2914 63.6992 33.2914C61.2992 33.2914 58.8993 32.3914 56.9993 30.4914C52.3993 25.8914 44.6993 27.1914 41.7993 32.9914L40.1992 36.2914C38.3992 39.7914 35.0992 41.4914 31.6992 41.4914C28.2992 41.4914 24.9992 39.7914 23.1992 36.2914V36.1914C23.4992 36.1914 23.7992 36.1914 24.0992 36.1914V21.0914C24.0992 18.7914 24.7992 16.4914 26.0992 14.5914L32.0992 5.49139C32.1992 5.39139 32.1993 5.29141 32.2993 5.19141H51.7993L69.6992 23.0914C71.2992 24.6914 72.3993 26.5914 72.8993 28.6914Z" fill="#D7F2F4"/>
<path d="M69.6996 23.0904C67.9996 24.4904 65.7996 25.1905 63.6996 25.1905C61.2996 25.1905 58.8996 24.2905 56.9996 22.3905C52.3996 17.7905 44.6997 19.0905 41.7997 24.8905L40.1996 28.1905C38.3996 31.6905 35.0996 33.3905 31.6996 33.3905C28.7996 33.3905 25.8996 32.0904 24.0996 29.4904V20.8905C24.0996 18.5905 24.7996 16.2905 26.0996 14.3905L32.0996 5.29043C32.1996 5.19043 32.1997 5.09044 32.2997 4.99044C36.4997 -1.00956 45.0997 -1.70956 50.2997 3.49044L51.8997 4.99044L69.6996 23.0904Z" fill="#F5F7F9"/>
<path d="M23.1996 36.1914C23.4996 36.1914 23.7996 36.1914 24.0996 36.1914L24.8997 50.9914L25.2997 58.1914L24.2997 60.2914C22.4997 63.7914 19.1997 65.4914 15.7997 65.4914C12.3997 65.4914 9.09968 63.7914 7.29968 60.2914L5.69958 56.9914C5.39958 56.3914 4.99961 55.7914 4.59961 55.2914L7.09961 51.8914L15.8997 40.0914C17.7997 37.5914 20.4996 36.2914 23.1996 36.1914Z" fill="#D7F2F4"/>
<path d="M23.2 36.1914C23.5 36.1914 23.8 36.1914 24.1 36.1914L24.9 50.9914L24.2 52.2914C22.4 55.7914 19.1 57.4914 15.7 57.4914C12.3 57.4914 8.99995 55.7914 7.19995 52.2914L7 51.9914L15.8 40.1914C17.8 37.5914 20.5 36.2914 23.2 36.1914Z" fill="#F5F7F9"/>
<path d="M94.1992 59.291C92.3992 60.991 90.0993 61.791 87.7993 61.791C84.3993 61.791 81.0993 60.091 79.2993 56.591L77.6992 53.291C77.1992 52.291 76.4993 51.391 75.7993 50.691L75.1992 42.091L74.6992 35.291C76.0992 35.791 77.3993 36.791 78.3993 38.091L88.5992 51.691L89.8993 53.491L91.0992 55.091L94.0992 59.091C94.0992 59.191 94.0992 59.291 94.1992 59.291Z" fill="#D7F2F4"/>
<path d="M89.8 53.4914C89.1 53.6914 88.4 53.6914 87.7 53.6914C84.3 53.6914 81 51.9914 79.2 48.4914L77.6 45.1914C76.9 43.8914 76.1 42.7914 75 41.9914L74.5 35.1914C75.9 35.6914 77.2 36.6914 78.2 37.9914L88.4 51.5914L89.8 53.4914Z" fill="#F5F7F9"/>
</svg>
