<svg width="113" height="128" viewBox="0 0 113 128" fill="none" xmlns="http://www.w3.org/2000/svg">
<path d="M56.6992 40C67.7449 40 76.6992 31.0457 76.6992 20C76.6992 8.9543 67.7449 0 56.6992 0C45.6535 0 36.6992 8.9543 36.6992 20C36.6992 31.0457 45.6535 40 56.6992 40Z" fill="#F5F7F9"/>
<path d="M56.6992 88C72.1632 88 84.6992 75.464 84.6992 60C84.6992 44.536 72.1632 32 56.6992 32C41.2352 32 28.6992 44.536 28.6992 60C28.6992 75.464 41.2352 88 56.6992 88Z" fill="#F5F7F9"/>
<path d="M96.7008 112C96.7008 117.7 95.5008 123.1 93.4008 128H20.1008C17.9008 123.1 16.8008 117.7 16.8008 112C16.8008 89.9 34.7008 72 56.8008 72C78.9008 72 96.7008 89.9 96.7008 112Z" fill="#F5F7F9"/>
<path d="M58.6009 18.0996L87.701 11.0996L58.6009 24.8997C57.5009 23.0997 57.3009 20.7997 58.3009 18.8997L58.6009 18.0996Z" fill="#D66634"/>
<path d="M48.6008 30.2992C49.3187 30.2992 49.9008 29.7172 49.9008 28.9992C49.9008 28.2812 49.3187 27.6992 48.6008 27.6992C47.8828 27.6992 47.3008 28.2812 47.3008 28.9992C47.3008 29.7172 47.8828 30.2992 48.6008 30.2992Z" fill="#2B2B2B"/>
<path d="M52.1 31.8992C52.9836 31.8992 53.7 31.1828 53.7 30.2992C53.7 29.4155 52.9836 28.6992 52.1 28.6992C51.2163 28.6992 50.5 29.4155 50.5 30.2992C50.5 31.1828 51.2163 31.8992 52.1 31.8992Z" fill="#2B2B2B"/>
<path d="M56.7004 33.2992C57.9706 33.2992 59.0004 32.2695 59.0004 30.9992C59.0004 29.729 57.9706 28.6992 56.7004 28.6992C55.4301 28.6992 54.4004 29.729 54.4004 30.9992C54.4004 32.2695 55.4301 33.2992 56.7004 33.2992Z" fill="#2B2B2B"/>
<path d="M62.1 31.8992C62.9836 31.8992 63.7 31.1828 63.7 30.2992C63.7 29.4155 62.9836 28.6992 62.1 28.6992C61.2163 28.6992 60.5 29.4155 60.5 30.2992C60.5 31.1828 61.2163 31.8992 62.1 31.8992Z" fill="#2B2B2B"/>
<path d="M66.1665 29.7409C66.8025 29.4078 67.048 28.6221 66.7149 27.9861C66.3818 27.3501 65.5961 27.1047 64.9601 27.4378C64.3241 27.771 64.0786 28.5566 64.4118 29.1925C64.7449 29.8285 65.5306 30.0741 66.1665 29.7409Z" fill="#2B2B2B"/>
<path d="M50.8997 17.6003C52.1699 17.6003 53.1996 15.9886 53.1996 14.0004C53.1996 12.0121 52.1699 10.4004 50.8997 10.4004C49.6294 10.4004 48.5996 12.0121 48.5996 14.0004C48.5996 15.9886 49.6294 17.6003 50.8997 17.6003Z" fill="#2B2B2B"/>
<path d="M62.0992 15.5C63.1485 15.5 63.9992 14.1569 63.9992 12.5C63.9992 10.8431 63.1485 9.5 62.0992 9.5C61.0498 9.5 60.1992 10.8431 60.1992 12.5C60.1992 14.1569 61.0498 15.5 62.0992 15.5Z" fill="#2B2B2B"/>
<path d="M56.7 47.3004C57.915 47.3004 58.9 46.3154 58.9 45.1003C58.9 43.8853 57.915 42.9004 56.7 42.9004C55.485 42.9004 54.5 43.8853 54.5 45.1003C54.5 46.3154 55.485 47.3004 56.7 47.3004Z" fill="#2B2B2B"/>
<path d="M56.7996 59.9996C58.0146 59.9996 58.9996 59.0146 58.9996 57.7996C58.9996 56.5846 58.0146 55.5996 56.7996 55.5996C55.5846 55.5996 54.5996 56.5846 54.5996 57.7996C54.5996 59.0146 55.5846 59.9996 56.7996 59.9996Z" fill="#2B2B2B"/>
<path d="M56.7996 73.7008C58.0146 73.7008 58.9996 72.7158 58.9996 71.5008C58.9996 70.2858 58.0146 69.3008 56.7996 69.3008C55.5846 69.3008 54.5996 70.2858 54.5996 71.5008C54.5996 72.7158 55.5846 73.7008 56.7996 73.7008Z" fill="#2B2B2B"/>
<path d="M69.6992 35.2004C56.3992 45.1004 43.6992 35.2004 43.6992 35.2004C43.6992 35.2004 56.6992 41.9004 71.0992 33.9004" fill="#D7F2F4"/>
<path d="M78.1003 78.2004C56.8003 88.1004 35.4004 78.2004 35.4004 78.2004C35.4004 78.2004 56.1004 84.9004 79.2004 76.9004" fill="#D7F2F4"/>
<path d="M75.1008 74.9L77.0008 70.6C79.4008 65.2 79.5008 59 77.3008 53.5L72.8008 42L76.3008 46.7C82.4008 54.9 82.2008 66.2 75.7008 74.2L75.1008 74.9Z" fill="#D7F2F4"/>
<path d="M85.8004 128.001H84.0004C87.7004 119.101 87.8004 109.201 84.3004 100.301L76.9004 81.3008L82.7004 89.0008C91.2004 100.501 92.2004 115.601 85.8004 128.001Z" fill="#D7F2F4"/>
<path d="M59 22.7L82.2 13L59 24.2V22.7Z" fill="#ED977C"/>
<path d="M50.7008 16.5996C51.1979 16.5996 51.6008 15.928 51.6008 15.0996C51.6008 14.2712 51.1979 13.5996 50.7008 13.5996C50.2037 13.5996 49.8008 14.2712 49.8008 15.0996C49.8008 15.928 50.2037 16.5996 50.7008 16.5996Z" fill="#F5F7F9"/>
<path d="M62.1 14.7C62.4313 14.7 62.7 14.2075 62.7 13.6C62.7 12.9925 62.4313 12.5 62.1 12.5C61.7686 12.5 61.5 12.9925 61.5 13.6C61.5 14.2075 61.7686 14.7 62.1 14.7Z" fill="#F5F7F9"/>
<path d="M35.3 55.2996L12 45.9996L0 45.0996L11.2 48.1996L3.90002 51.7996L11.2 50.1996L15.3 49.2996L35.3 56.5996V55.2996Z" fill="#4C342C"/>
<path d="M78.9004 52.8L103.7 46.5H112.2L106.6 48L110.3 50.9L103.1 48.2L78.9004 54.4V52.8Z" fill="#4C342C"/>
</svg>
