<svg width="1280" height="720" viewBox="0 0 1280 720" fill="none" xmlns="http://www.w3.org/2000/svg">
<g clip-path="url(#clip0_795_860)">
<path d="M1280 0H0V720H1280V0Z" fill="url(#paint0_linear_795_860)"/>
<path d="M224.8 149.202C231.649 149.202 237.2 143.651 237.2 136.802C237.2 129.954 231.649 124.402 224.8 124.402C217.952 124.402 212.4 129.954 212.4 136.802C212.4 143.651 217.952 149.202 224.8 149.202Z" fill="#F6F6F6"/>
<path d="M303.7 266.001C305.412 266.001 306.8 264.613 306.8 262.901C306.8 261.189 305.412 259.801 303.7 259.801C301.988 259.801 300.6 261.189 300.6 262.901C300.6 264.613 301.988 266.001 303.7 266.001Z" fill="#F6F6F6"/>
<path d="M436.7 147.001C438.412 147.001 439.8 145.613 439.8 143.901C439.8 142.189 438.412 140.801 436.7 140.801C434.988 140.801 433.6 142.189 433.6 143.901C433.6 145.613 434.988 147.001 436.7 147.001Z" fill="#F6F6F6"/>
<path d="M436.7 147.001C438.412 147.001 439.8 145.613 439.8 143.901C439.8 142.189 438.412 140.801 436.7 140.801C434.988 140.801 433.6 142.189 433.6 143.901C433.6 145.613 434.988 147.001 436.7 147.001Z" fill="#F6F6F6"/>
<path d="M595.1 246.2C596.812 246.2 598.2 244.812 598.2 243.1C598.2 241.388 596.812 240 595.1 240C593.388 240 592 241.388 592 243.1C592 244.812 593.388 246.2 595.1 246.2Z" fill="#F6F6F6"/>
<path d="M515.1 390.2C516.812 390.2 518.2 388.812 518.2 387.1C518.2 385.388 516.812 384 515.1 384C513.388 384 512 385.388 512 387.1C512 388.812 513.388 390.2 515.1 390.2Z" fill="#F6F6F6"/>
<path d="M35.1 222.001C36.8121 222.001 38.2 220.613 38.2 218.901C38.2 217.189 36.8121 215.801 35.1 215.801C33.3879 215.801 32 217.189 32 218.901C32 220.613 33.3879 222.001 35.1 222.001Z" fill="#F6F6F6"/>
<path d="M514.7 55.1012C518.124 55.1012 520.9 52.3253 520.9 48.9012C520.9 45.477 518.124 42.7012 514.7 42.7012C511.276 42.7012 508.5 45.477 508.5 48.9012C508.5 52.3253 511.276 55.1012 514.7 55.1012Z" fill="#F6F6F6"/>
<path d="M364.901 384.001C366.613 384.001 368.001 382.613 368.001 380.901C368.001 379.189 366.613 377.801 364.901 377.801C363.189 377.801 361.801 379.189 361.801 380.901C361.801 382.613 363.189 384.001 364.901 384.001Z" fill="#F6F6F6"/>
<path d="M144.7 38.2C146.412 38.2 147.8 36.8121 147.8 35.1C147.8 33.3879 146.412 32 144.7 32C142.988 32 141.6 33.3879 141.6 35.1C141.6 36.8121 142.988 38.2 144.7 38.2Z" fill="#F6F6F6"/>
<path d="M1258.7 33.0008C1260.41 33.0008 1261.8 31.6129 1261.8 29.9008C1261.8 28.1887 1260.41 26.8008 1258.7 26.8008C1256.99 26.8008 1255.6 28.1887 1255.6 29.9008C1255.6 31.6129 1256.99 33.0008 1258.7 33.0008Z" fill="#F6F6F6"/>
<path d="M608.7 375.101C612.124 375.101 614.9 372.325 614.9 368.901C614.9 365.477 612.124 362.701 608.7 362.701C605.276 362.701 602.5 365.477 602.5 368.901C602.5 372.325 605.276 375.101 608.7 375.101Z" fill="#F6F6F6"/>
<path d="M886.2 112.002C889.624 112.002 892.4 109.226 892.4 105.802C892.4 102.377 889.624 99.6016 886.2 99.6016C882.776 99.6016 880 102.377 880 105.802C880 109.226 882.776 112.002 886.2 112.002Z" fill="#F6F6F6"/>
<path d="M909.901 269.901C911.613 269.901 913.001 268.513 913.001 266.801C913.001 265.089 911.613 263.701 909.901 263.701C908.189 263.701 906.801 265.089 906.801 266.801C906.801 268.513 908.189 269.901 909.901 269.901Z" fill="#F6F6F6"/>
<path d="M1062.9 150.901C1064.61 150.901 1066 149.513 1066 147.801C1066 146.089 1064.61 144.701 1062.9 144.701C1061.19 144.701 1059.8 146.089 1059.8 147.801C1059.8 149.513 1061.19 150.901 1062.9 150.901Z" fill="#F6F6F6"/>
<path d="M1062.9 150.901C1064.61 150.901 1066 149.513 1066 147.801C1066 146.089 1064.61 144.701 1062.9 144.701C1061.19 144.701 1059.8 146.089 1059.8 147.801C1059.8 149.513 1061.19 150.901 1062.9 150.901Z" fill="#F6F6F6"/>
<path d="M1177.9 189.901C1179.61 189.901 1181 188.513 1181 186.801C1181 185.089 1179.61 183.701 1177.9 183.701C1176.19 183.701 1174.8 185.089 1174.8 186.801C1174.8 188.513 1176.19 189.901 1177.9 189.901Z" fill="#F6F6F6"/>
<path d="M1110.9 363.901C1112.61 363.901 1114 362.513 1114 360.801C1114 359.089 1112.61 357.701 1110.9 357.701C1109.19 357.701 1107.8 359.089 1107.8 360.801C1107.8 362.513 1109.19 363.901 1110.9 363.901Z" fill="#F6F6F6"/>
<path d="M748.901 198.2C750.613 198.2 752.001 196.812 752.001 195.1C752.001 193.388 750.613 192 748.901 192C747.189 192 745.801 193.388 745.801 195.1C745.801 196.812 747.189 198.2 748.901 198.2Z" fill="#F6F6F6"/>
<path d="M1140.9 59.0016C1144.33 59.0016 1147.1 56.2257 1147.1 52.8016C1147.1 49.3774 1144.33 46.6016 1140.9 46.6016C1137.48 46.6016 1134.7 49.3774 1134.7 52.8016C1134.7 56.2257 1137.48 59.0016 1140.9 59.0016Z" fill="#F6F6F6"/>
<path d="M1000.9 415.901C1002.61 415.901 1004 414.513 1004 412.801C1004 411.089 1002.61 409.701 1000.9 409.701C999.189 409.701 997.801 411.089 997.801 412.801C997.801 414.513 999.189 415.901 1000.9 415.901Z" fill="#F6F6F6"/>
<path d="M750.901 75.9012C752.613 75.9012 754.001 74.5133 754.001 72.8012C754.001 71.0891 752.613 69.7012 750.901 69.7012C749.189 69.7012 747.801 71.0891 747.801 72.8012C747.801 74.5133 749.189 75.9012 750.901 75.9012Z" fill="#F6F6F6"/>
<path d="M1234.9 375.901C1236.61 375.901 1238 374.513 1238 372.801C1238 371.089 1236.61 369.701 1234.9 369.701C1233.19 369.701 1231.8 371.089 1231.8 372.801C1231.8 374.513 1233.19 375.901 1234.9 375.901Z" fill="#F6F6F6"/>
<path d="M613.8 95.0016C617.224 95.0016 620 92.2257 620 88.8016C620 85.3774 617.224 82.6016 613.8 82.6016C610.375 82.6016 607.6 85.3774 607.6 88.8016C607.6 92.2257 610.375 95.0016 613.8 95.0016Z" fill="#F6F6F6"/>
<path d="M442.8 266.002C446.224 266.002 449 263.226 449 259.802C449 256.377 446.224 253.602 442.8 253.602C439.375 253.602 436.6 256.377 436.6 259.802C436.6 263.226 439.375 266.002 442.8 266.002Z" fill="#F6F6F6"/>
<path d="M95.7996 351.002C99.2238 351.002 102 348.226 102 344.802C102 341.377 99.2238 338.602 95.7996 338.602C92.3754 338.602 89.5996 341.377 89.5996 344.802C89.5996 348.226 92.3754 351.002 95.7996 351.002Z" fill="#F6F6F6"/>
<path d="M1240 98.9C1243.42 98.9 1246.2 96.1242 1246.2 92.7C1246.2 89.2758 1243.42 86.5 1240 86.5C1236.58 86.5 1233.8 89.2758 1233.8 92.7C1233.8 96.1242 1236.58 98.9 1240 98.9Z" fill="#F6F6F6"/>
<path d="M1069 269.9C1072.42 269.9 1075.2 267.124 1075.2 263.7C1075.2 260.276 1072.42 257.5 1069 257.5C1065.58 257.5 1062.8 260.276 1062.8 263.7C1062.8 267.124 1065.58 269.9 1069 269.9Z" fill="#F6F6F6"/>
<path d="M761.8 338.601C768.649 338.601 774.2 333.049 774.2 326.201C774.2 319.352 768.649 313.801 761.8 313.801C754.952 313.801 749.4 319.352 749.4 326.201C749.4 333.049 754.952 338.601 761.8 338.601Z" fill="#F6F6F6"/>
</g>
<defs>
<linearGradient id="paint0_linear_795_860" x1="640" y1="-2.87337e-08" x2="640" y2="720" gradientUnits="userSpaceOnUse">
<stop stop-color="#B7C7E8"/>
<stop offset="1" stop-color="#E6EBF6"/>
</linearGradient>
<clipPath id="clip0_795_860">
<rect width="1280" height="720" fill="white"/>
</clipPath>
</defs>
</svg>
