<svg width="128" height="128" viewBox="0 0 128 128" fill="none" xmlns="http://www.w3.org/2000/svg">
<path d="M128 16V128H0V0H112C115.9 0 119.5 1.40001 122.3 3.70001C122.4 3.80001 122.5 3.9 122.6 4C123.9 5.1 125 6.5 125.9 8C126.6 9.1 127.1 10.4 127.5 11.7C127.8 13.1 128 14.5 128 16Z" fill="#B2875D"/>
<path d="M121.3 61.0008C119.4 59.1008 117 58.2008 114.6 58.2008C111.2 58.2008 107.8 60.0008 106.1 63.4008L104.5 66.7008C102.7 70.2008 99.4 71.9008 96 71.9008C92.6 71.9008 89.3 70.2008 87.5 66.7008L85.9 63.4008C83 57.6008 75.3 56.4008 70.7 60.9008C68.8 62.7008 66.4 63.7008 64 63.7008C61.6 63.7008 59.2 62.8008 57.3 60.9008C55.4 59.0008 53 58.1008 50.6 58.1008C47.2 58.1008 43.8 59.9008 42.1 63.3008L40.5 66.6008C38.7 70.1008 35.4 71.8008 32 71.8008C28.6 71.8008 25.3 70.1008 23.5 66.6008L21.9 63.3008C19 57.5008 11.3 56.3008 6.70001 60.8008C4.80001 62.6008 2.4 63.6008 0 63.6008V79.6008C2.4 79.6008 4.80001 78.7008 6.70001 76.8008C8.60001 74.9008 11 74.0008 13.4 74.0008C16.8 74.0008 20.2 75.8008 21.9 79.2008L23.5 82.5008C25.3 86.0008 28.6 87.7008 32 87.7008C35.4 87.7008 38.7 86.0008 40.5 82.5008L42.1 79.2008C45 73.4008 52.7 72.2008 57.3 76.7008C59.2 78.5008 61.6 79.5008 64 79.5008C66.4 79.5008 68.8 78.6008 70.7 76.7008C72.6 74.8008 75 73.9008 77.4 73.9008C80.8 73.9008 84.2 75.7008 85.9 79.1008L87.5 82.4008C89.3 85.9008 92.6 87.6008 96 87.6008C99.4 87.6008 102.7 85.9008 104.5 82.4008L106.1 79.1008C109 73.3008 116.7 72.1008 121.3 76.6008C123.2 78.4008 125.6 79.4008 128 79.4008V63.4008C125.6 63.8008 123.2 62.9008 121.3 61.0008Z" fill="#8E6540"/>
<path d="M121.3 93.0008C119.4 91.1008 117 90.2008 114.6 90.2008C111.2 90.2008 107.8 92.0008 106.1 95.4008L104.5 98.7008C102.7 102.201 99.4 103.901 96 103.901C92.6 103.901 89.3 102.201 87.5 98.7008L85.9 95.4008C83 89.6008 75.3 88.4008 70.7 92.9008C68.8 94.7008 66.4 95.7008 64 95.7008C61.6 95.7008 59.2 94.8008 57.3 92.9008C55.4 91.0008 53 90.1008 50.6 90.1008C47.2 90.1008 43.8 91.9008 42.1 95.3008L40.5 98.6008C38.7 102.101 35.4 103.801 32 103.801C28.6 103.801 25.3 102.101 23.5 98.6008L21.9 95.3008C19 89.5008 11.3 88.3008 6.70001 92.8008C4.80001 94.6008 2.4 95.6008 0 95.6008V111.601C2.4 111.601 4.80001 110.701 6.70001 108.801C8.60001 106.901 11 106.001 13.4 106.001C16.8 106.001 20.2 107.801 21.9 111.201L23.5 114.501C25.3 118.001 28.6 119.701 32 119.701C35.4 119.701 38.7 118.001 40.5 114.501L42.1 111.201C45 105.401 52.7 104.201 57.3 108.701C59.2 110.501 61.6 111.501 64 111.501C66.4 111.501 68.8 110.601 70.7 108.701C72.6 106.801 75 105.901 77.4 105.901C80.8 105.901 84.2 107.701 85.9 111.101L87.5 114.401C89.3 117.901 92.6 119.601 96 119.601C99.4 119.601 102.7 117.901 104.5 114.401L106.1 111.101C109 105.301 116.7 104.101 121.3 108.601C123.2 110.401 125.6 111.401 128 111.401V95.4008C125.6 95.8008 123.2 94.9008 121.3 93.0008Z" fill="#8E6540"/>
<path d="M96 19.7H32H0V47.8C2.4 47.8 4.80001 46.9 6.70001 45C8.60001 43.1 11 42.2 13.4 42.2C16.8 42.2 20.2 44 21.9 47.4L23.5 50.7C25.3 54.2 28.6 55.9 32 55.9C35.4 55.9 38.7 54.2 40.5 50.7L42.1 47.4C45 41.6 52.7 40.4 57.3 44.9C59.2 46.7 61.6 47.7 64 47.7C66.4 47.7 68.8 46.8 70.7 44.9C72.6 43 75 42.1 77.4 42.1C80.8 42.1 84.2 43.9 85.9 47.3L87.5 50.6C89.3 54.1 92.6 55.8 96 55.8C99.4 55.8 102.7 54.1 104.5 50.6L106.1 47.3C109 41.5 116.7 40.3 121.3 44.8C123.2 46.6 125.6 47.6 128 47.6V19.5H96V19.7Z" fill="#8E6540"/>
<path d="M128 16.0004V39.8004C125.6 39.8004 123.2 38.9004 121.3 37.0004C116.7 32.4004 109 33.7004 106.1 39.5004L104.5 42.8004C102.7 46.3004 99.4 48.0004 96 48.0004C92.6 48.0004 89.3 46.3004 87.5 42.8004L85.9 39.5004C84.2 36.1004 80.8 34.3004 77.4 34.3004C75 34.3004 72.6 35.2004 70.7 37.1004C68.8 38.9004 66.4 39.9004 64 39.9004C61.6 39.9004 59.2 39.0004 57.3 37.1004C52.7 32.5004 45 33.8004 42.1 39.6004L40.5 42.9004C38.7 46.4004 35.4 48.1004 32 48.1004C28.6 48.1004 25.3 46.4004 23.5 42.9004L21.9 39.6004C20.2 36.2004 16.8 34.4004 13.4 34.4004C11 34.4004 8.60001 35.3004 6.70001 37.2004C4.80001 39.0004 2.4 40.0004 0 40.0004V11.9004H127.4C127.8 13.1004 128 14.5004 128 16.0004Z" fill="#D7F2F4"/>
<path d="M128 16.0004V31.8004C125.6 31.8004 123.2 30.9004 121.3 29.0004C116.7 24.4004 109 25.7004 106.1 31.5004L104.5 34.8004C102.7 38.3004 99.4 40.0004 96 40.0004C92.6 40.0004 89.3 38.3004 87.5 34.8004L85.9 31.5004C84.2 28.1004 80.8 26.3004 77.4 26.3004C75 26.3004 72.6 27.2004 70.7 29.1004C68.8 30.9004 66.4 31.9004 64 31.9004C61.6 31.9004 59.2 31.0004 57.3 29.1004C52.7 24.5004 45 25.8004 42.1 31.6004L40.5 34.9004C38.7 38.4004 35.4 40.1004 32 40.1004C28.6 40.1004 25.3 38.4004 23.5 34.9004L21.9 31.6004C20.2 28.2004 16.8 26.4004 13.4 26.4004C11 26.4004 8.60001 27.3004 6.70001 29.2004C4.80001 31.0004 2.4 32.0004 0 32.0004V3.90039H122.3C122.4 4.00039 122.5 4.10041 122.6 4.20041C123.9 5.30041 125 6.70041 125.9 8.20041C126.6 9.30041 127.1 10.6004 127.5 11.9004C127.8 13.1004 128 14.5004 128 16.0004Z" fill="#F5F7F9"/>
<path d="M122.6 4H0V0H112C115.9 0 119.5 1.40001 122.3 3.70001C122.4 3.80001 122.5 3.9 122.6 4Z" fill="#D7F2F4"/>
</svg>
