<svg width="128" height="128" viewBox="0 0 128 128" fill="none" xmlns="http://www.w3.org/2000/svg">
<path d="M128 0V128H0V16C0 14.5 0.2 13.1 0.6 11.7C1 10.4 1.5 9.1 2.2 8C3.1 6.5 4.2 5.1 5.5 4C5.6 3.9 5.7 3.80001 5.8 3.70001C8.6 1.40001 12.1 0 16.1 0H128Z" fill="#B2875D"/>
<path d="M121.3 61.0008C119.4 59.1008 117 58.2008 114.6 58.2008C111.2 58.2008 107.8 60.0008 106.1 63.4008L104.5 66.7008C102.7 70.2008 99.4 71.9008 96 71.9008C92.6 71.9008 89.3 70.2008 87.5 66.7008L85.9 63.4008C83 57.6008 75.3 56.4008 70.7 60.9008C68.8 62.7008 66.4 63.7008 64 63.7008C61.6 63.7008 59.2 62.8008 57.3 60.9008C55.4 59.0008 53 58.1008 50.6 58.1008C47.2 58.1008 43.8 59.9008 42.1 63.3008L40.5 66.6008C38.7 70.1008 35.4 71.8008 32 71.8008C28.6 71.8008 25.3 70.1008 23.5 66.6008L21.9 63.3008C19 57.5008 11.3 56.3008 6.7 60.8008C4.8 62.6008 2.4 63.6008 0 63.6008V79.6008C2.4 79.6008 4.8 78.7008 6.7 76.8008C8.6 74.9008 11 74.0008 13.4 74.0008C16.8 74.0008 20.2 75.8008 21.9 79.2008L23.5 82.5008C25.3 86.0008 28.6 87.7008 32 87.7008C35.4 87.7008 38.7 86.0008 40.5 82.5008L42.1 79.2008C45 73.4008 52.7 72.2008 57.3 76.7008C59.2 78.5008 61.6 79.5008 64 79.5008C66.4 79.5008 68.8 78.6008 70.7 76.7008C72.6 74.8008 75 73.9008 77.4 73.9008C80.8 73.9008 84.2 75.7008 85.9 79.1008L87.5 82.4008C89.3 85.9008 92.6 87.6008 96 87.6008C99.4 87.6008 102.7 85.9008 104.5 82.4008L106.1 79.1008C109 73.3008 116.7 72.1008 121.3 76.6008C123.2 78.4008 125.6 79.4008 128 79.4008V63.4008C125.6 63.8008 123.2 62.9008 121.3 61.0008Z" fill="#8E6540"/>
<path d="M121.3 93.0008C119.4 91.1008 117 90.2008 114.6 90.2008C111.2 90.2008 107.8 92.0008 106.1 95.4008L104.5 98.7008C102.7 102.201 99.4 103.901 96 103.901C92.6 103.901 89.3 102.201 87.5 98.7008L85.9 95.4008C83 89.6008 75.3 88.4008 70.7 92.9008C68.8 94.7008 66.4 95.7008 64 95.7008C61.6 95.7008 59.2 94.8008 57.3 92.9008C55.4 91.0008 53 90.1008 50.6 90.1008C47.2 90.1008 43.8 91.9008 42.1 95.3008L40.5 98.6008C38.7 102.101 35.4 103.801 32 103.801C28.6 103.801 25.3 102.101 23.5 98.6008L21.9 95.3008C19 89.5008 11.3 88.3008 6.7 92.8008C4.8 94.6008 2.4 95.6008 0 95.6008V111.601C2.4 111.601 4.8 110.701 6.7 108.801C8.6 106.901 11 106.001 13.4 106.001C16.8 106.001 20.2 107.801 21.9 111.201L23.5 114.501C25.3 118.001 28.6 119.701 32 119.701C35.4 119.701 38.7 118.001 40.5 114.501L42.1 111.201C45 105.401 52.7 104.201 57.3 108.701C59.2 110.501 61.6 111.501 64 111.501C66.4 111.501 68.8 110.601 70.7 108.701C72.6 106.801 75 105.901 77.4 105.901C80.8 105.901 84.2 107.701 85.9 111.101L87.5 114.401C89.3 117.901 92.6 119.601 96 119.601C99.4 119.601 102.7 117.901 104.5 114.401L106.1 111.101C109 105.301 116.7 104.101 121.3 108.601C123.2 110.401 125.6 111.401 128 111.401V95.4008C125.6 95.8008 123.2 94.9008 121.3 93.0008Z" fill="#8E6540"/>
<path d="M96 19.7H32H0V47.8C2.4 47.8 4.8 46.9 6.7 45C8.6 43.1 11 42.2 13.4 42.2C16.8 42.2 20.2 44 21.9 47.4L23.5 50.7C25.3 54.2 28.6 55.9 32 55.9C35.4 55.9 38.7 54.2 40.5 50.7L42.1 47.4C45 41.6 52.7 40.4 57.3 44.9C59.2 46.7 61.6 47.7 64 47.7C66.4 47.7 68.8 46.8 70.7 44.9C72.6 43 75 42.1 77.4 42.1C80.8 42.1 84.2 43.9 85.9 47.3L87.5 50.6C89.3 54.1 92.6 55.8 96 55.8C99.4 55.8 102.7 54.1 104.5 50.6L106.1 47.3C109 41.5 116.7 40.3 121.3 44.8C123.2 46.6 125.6 47.6 128 47.6V19.5H96V19.7Z" fill="#8E6540"/>
<path d="M128 11.6992V39.7992C125.6 39.7992 123.2 38.8992 121.3 36.9992C116.7 32.3992 109 33.6992 106.1 39.4992L104.5 42.7992C102.7 46.2992 99.4 47.9992 96 47.9992C92.6 47.9992 89.3 46.2992 87.5 42.7992L85.9 39.4992C84.2 36.0992 80.8 34.2992 77.4 34.2992C75 34.2992 72.6 35.1992 70.7 37.0992C68.8 38.8992 66.4 39.8992 64 39.8992C61.6 39.8992 59.2 38.9992 57.3 37.0992C52.7 32.4992 45 33.7992 42.1 39.5992L40.5 42.8992C38.7 46.3992 35.4 48.0992 32 48.0992C28.6 48.0992 25.3 46.3992 23.5 42.8992L21.9 39.5992C20.2 36.1992 16.8 34.3992 13.4 34.3992C11 34.3992 8.6 35.2992 6.7 37.1992C4.8 38.9992 2.4 39.9992 0 39.9992V15.9992C0 14.4992 0.2 13.0992 0.6 11.6992H128Z" fill="#D7F2F4"/>
<path d="M128 3.69922V31.7992C125.6 31.7992 123.2 30.8992 121.3 28.9992C116.7 24.3992 109 25.6992 106.1 31.4992L104.5 34.7992C102.7 38.2992 99.4 39.9992 96 39.9992C92.6 39.9992 89.3 38.2992 87.5 34.7992L85.9 31.4992C84.2 28.0992 80.8 26.2992 77.4 26.2992C75 26.2992 72.6 27.1992 70.7 29.0992C68.8 30.8992 66.4 31.8992 64 31.8992C61.6 31.8992 59.2 30.9992 57.3 29.0992C52.7 24.4992 45 25.7992 42.1 31.5992L40.5 34.8992C38.7 38.3992 35.4 40.0992 32 40.0992C28.6 40.0992 25.3 38.3992 23.5 34.8992L21.9 31.5992C20.2 28.1992 16.8 26.3992 13.4 26.3992C11 26.3992 8.6 27.2992 6.7 29.1992C4.8 30.9992 2.4 31.9992 0 31.9992V15.9992C0 14.4992 0.2 13.0992 0.6 11.6992C1 10.3992 1.5 9.09921 2.2 7.99921C3.1 6.49921 4.2 5.09921 5.5 3.99921C5.6 3.89921 5.7 3.79922 5.8 3.69922H128Z" fill="#F5F7F9"/>
<path d="M128 0V4H5.40039C5.50039 3.9 5.60039 3.80001 5.70039 3.70001C8.50039 1.40001 12.0004 0 16.0004 0H128Z" fill="#D7F2F4"/>
</svg>
